<svg xmlns="http://www.w3.org/2000/svg" xmlns:xlink="http://www.w3.org/1999/xlink" viewBox="0 0 960 460"><defs><style>.cls-1{fill:url(#linear-gradient);}.cls-2{fill:url(#linear-gradient-2);}.cls-3{fill:url(#Degradado_sin_nombre_8);}.cls-4,.cls-6,.cls-7,.cls-8,.cls-80{fill:none;}.cls-5,.cls-57,.cls-66{fill:#b0bfde;}.cls-10,.cls-11,.cls-5,.cls-8,.cls-9{clip-rule:evenodd;}.cls-6,.cls-82{clip-path:url(#clip-path);}.cls-14,.cls-7{clip-path:url(#clip-path-2);}.cls-44,.cls-9{fill:url(#linear-gradient-3);}.cls-10,.cls-52,.cls-54{fill:#06357a;}.cls-11,.cls-58,.cls-60{fill:#d1dbea;}.cls-12{clip-path:url(#clip-path-3);}.cls-13{fill:url(#Degradado_sin_nombre_8-3);}.cls-15{opacity:0.2;}.cls-16,.cls-17,.cls-18,.cls-19,.cls-20,.cls-21,.cls-22,.cls-23,.cls-24,.cls-25,.cls-26,.cls-27,.cls-28,.cls-29,.cls-30,.cls-31,.cls-32{fill:#2be2eb;}.cls-17{opacity:0.94;}.cls-17,.cls-18,.cls-19,.cls-20,.cls-21,.cls-22,.cls-23,.cls-24,.cls-25,.cls-26,.cls-27,.cls-28,.cls-29,.cls-30,.cls-31{isolation:isolate;}.cls-18{opacity:0.88;}.cls-19{opacity:0.81;}.cls-20{opacity:0.75;}.cls-21{opacity:0.69;}.cls-22{opacity:0.63;}.cls-23{opacity:0.56;}.cls-24{opacity:0.5;}.cls-25{opacity:0.44;}.cls-26{opacity:0.38;}.cls-27{opacity:0.31;}.cls-28{opacity:0.25;}.cls-29{opacity:0.19;}.cls-30{opacity:0.13;}.cls-31{opacity:0.06;}.cls-32{fill-opacity:0;}.cls-33,.cls-78{fill:#fff;}.cls-33,.cls-34,.cls-36,.cls-44,.cls-50,.cls-51,.cls-52,.cls-55,.cls-56,.cls-57,.cls-58,.cls-61,.cls-62,.cls-63,.cls-64{fill-rule:evenodd;}.cls-34{fill:url(#linear-gradient-4);}.cls-35{mask:url(#mask);}.cls-36{fill:#d685da;}.cls-37{clip-path:url(#clip-path-5);}.cls-38{fill:url(#linear-gradient-5);}.cls-39{fill:#3b2193;opacity:0.12;}.cls-40{clip-path:url(#clip-path-6);}.cls-41{fill:url(#linear-gradient-6);}.cls-42{clip-path:url(#clip-path-7);}.cls-43{fill:url(#linear-gradient-7);}.cls-45{clip-path:url(#clip-path-8);}.cls-46{fill:url(#linear-gradient-9);}.cls-47{clip-path:url(#clip-path-9);}.cls-48{mask:url(#mask-2);}.cls-49{fill:url(#linear-gradient-10);}.cls-50{fill:#e5a485;}.cls-51,.cls-70{fill:#052954;}.cls-53{clip-path:url(#clip-path-10);}.cls-55{fill:#ff82b4;}.cls-56{fill:#da997d;}.cls-59{clip-path:url(#clip-path-11);}.cls-61{fill:#302c98;}.cls-62{fill:#002283;}.cls-63{fill:#c0cffa;}.cls-64{fill:#be8e69;}.cls-65{clip-path:url(#clip-path-12);}.cls-67{fill:#fbcbab;}.cls-68{fill:#acd5f4;}.cls-69{fill:#1d1d1b;}.cls-71{fill:#00b3e3;}.cls-72{fill:#d4efff;}.cls-73{fill:#86bbd8;}.cls-74{fill:#f6a505;}.cls-75{fill:#161711;}.cls-76{fill:#d8b095;}.cls-77{fill:#ffd147;}.cls-79{fill:#bcd0e2;}.cls-80{stroke:#01b3e3;stroke-linecap:round;stroke-linejoin:round;stroke-width:3px;}.cls-81{fill:#ffc700;}</style><linearGradient id="linear-gradient" x1="-390.59" y1="640.11" x2="-348.98" y2="696.38" gradientTransform="translate(708.57 -484.67)" gradientUnits="userSpaceOnUse"><stop offset="0" stop-color="#fff"/><stop offset="1"/></linearGradient><linearGradient id="linear-gradient-2" x1="-404.29" y1="663.45" x2="-404.29" y2="633.41" gradientTransform="translate(939.15 -321.42)" xlink:href="#linear-gradient"/><linearGradient id="Degradado_sin_nombre_8" x1="480" x2="480" y2="460" gradientUnits="userSpaceOnUse"><stop offset="0" stop-color="#06357a"/><stop offset="1" stop-color="#0359c9"/></linearGradient><clipPath id="clip-path"><rect class="cls-4" x="-1427" y="-85" width="1200" height="630"/></clipPath><clipPath id="clip-path-2"><rect class="cls-4" width="960" height="460"/></clipPath><linearGradient id="linear-gradient-3" x1="569.72" y1="125.61" x2="626.88" y2="125.61" gradientUnits="userSpaceOnUse"><stop offset="0" stop-color="#f8f8fb"/><stop offset="1" stop-color="#fdfdfd"/></linearGradient><clipPath id="clip-path-3"><rect class="cls-3" width="960" height="460"/></clipPath><linearGradient id="Degradado_sin_nombre_8-3" y1="-22" y2="482" xlink:href="#Degradado_sin_nombre_8"/><linearGradient id="linear-gradient-4" x1="296.84" y1="242.46" x2="660.37" y2="242.46" gradientUnits="userSpaceOnUse"><stop offset="0" stop-color="#8275ff"/><stop offset="1" stop-color="#ec8ed1"/></linearGradient><mask id="mask" x="296.81" y="139.78" width="87.22" height="92.01" maskUnits="userSpaceOnUse"><rect class="cls-1" x="296.81" y="139.78" width="87.22" height="92.01"/></mask><clipPath id="clip-path-5"><rect class="cls-4" x="438.86" y="353.17" width="79.5" height="28.57"/></clipPath><linearGradient id="linear-gradient-5" x1="478.61" y1="367.9" x2="478.6" y2="349.5" gradientUnits="userSpaceOnUse"><stop offset="0" stop-color="#ebebeb"/><stop offset="1" stop-color="#d6d6d6"/></linearGradient><clipPath id="clip-path-6"><path class="cls-8" d="M447.23,344.49l95.21,1.36h87.21l3.51-244.58a5.93,5.93,0,0,0-5.84-6L456.76,92.81a5.94,5.94,0,0,0-6,5.84Z"/></clipPath><linearGradient id="linear-gradient-6" x1="507.67" y1="373" x2="569.68" y2="80.19" gradientUnits="userSpaceOnUse"><stop offset="0" stop-color="#d6d6eb"/><stop offset="1" stop-color="#fcfcfd"/></linearGradient><clipPath id="clip-path-7"><path class="cls-8" d="M444.83,343.85H624.88V149.77L570.45,95.34H450.75a5.93,5.93,0,0,0-5.92,5.93Z"/></clipPath><linearGradient id="linear-gradient-7" x1="534.85" y1="334.06" x2="534.85" y2="137.03" xlink:href="#linear-gradient-3"/><clipPath id="clip-path-8"><path class="cls-9" d="M569.72,96.55v3.9l54.42,54.43,2.73-52.31a5.93,5.93,0,0,0-6-6.23Z"/></clipPath><linearGradient id="linear-gradient-9" x1="603.63" y1="173.3" x2="595.54" y2="128.27" gradientTransform="translate(1195.38 262.24) rotate(180)" xlink:href="#linear-gradient-3"/><clipPath id="clip-path-9"><rect class="cls-4" x="444.83" y="308.72" width="180.05" height="36.14"/></clipPath><mask id="mask-2" x="444.83" y="308.72" width="180.05" height="36.14" maskUnits="userSpaceOnUse"><rect class="cls-2" x="444.83" y="308.72" width="180.05" height="36.14"/></mask><linearGradient id="linear-gradient-10" x1="534.85" y1="342.03" x2="534.85" y2="311.99" gradientUnits="userSpaceOnUse"><stop offset="0" stop-color="#d2d2ec"/><stop offset="1" stop-color="#fdfdfd"/></linearGradient><clipPath id="clip-path-10"><path class="cls-10" d="M619.15,300.69l-2.74,2c-.46,2.44-3.7,49-2.43,66.54a73.33,73.33,0,0,0,10.35-.61c-.35-3.4,2.67-9.34,2.53-10.49s-1.45-1.31-1.52-1.79,2.24-3.95,1.95-4.95-1.52-.69-1.66-1.17,5.94-36.19,5.59-47Z"/></clipPath><clipPath id="clip-path-11"><path class="cls-11" d="M623.63,257.68c-5.38.52-11.25,2.2-17.09,14.35a24.1,24.1,0,0,1,6.79,4.73c.51-.68,1.62-2,2.85-3.47.88,2.67,3.45,6.78,3.69,9.22.29,2.87-2.89,17.6-3.46,20.2,1.69,1.09,7.06,2.38,12.51,2.27.77,0,1.54-.06,2.31-.13,3.41-.34,6.65-1.32,8.82-3.36-1.91-5.42-2.6-14.11-2.6-18.54s4.67-15.93-.62-22.09c-2-2.33-7.25-3.71-13.2-3.18"/></clipPath><clipPath id="clip-path-12"><path class="cls-5" d="M365.07,130.07c3.51-.68,6.86-2,9.16-4.18-3.43-14.65,0-16.17,0-22.74,0-3.1-1.48-4.09-1.49-6.34a28,28,0,0,0-.26-5A30,30,0,0,0,367,90.57c-.22,1.71-2.24,10.89-3.59,12.63a41.37,41.37,0,0,1-4.92-12.62c-2.71.79-7.36,2.25-9.27,4.85,0,0,1.23,21.07,1.23,34.39,2.52.82,8.81,1.39,14.67.25"/></clipPath></defs><g id="Capa_2" data-name="Capa 2"><rect class="cls-3" width="960" height="460"/><g class="cls-12"><path class="cls-13" d="M0-22H960V482H0Z"/></g><g class="cls-14"><g class="cls-15"><path class="cls-16" d="M1462.64,301c32.44,0,78.53,24.42,113.83,140.75,27.39,90.27,41.87,215.27,41.87,361.49,0,145.65-14.61,302.62-42.25,453.94-30.53,167.2-74.84,318.82-131.67,450.63-94.49,219.14-267.86,480.37-557.15,480.37-2.34,0-4.73,0-7.08-.05-143-2.09-328.86-45.64-552.6-129.43-195.8-73.34-414.52-175.82-632.5-296.37-200.68-111-392.57-233.16-540.32-344C-995,1306-1093,1210-1121.06,1148.14c-18.22-40.11-20.93-70.57-8.08-90.52,16.21-25.16,58.92-37.39,130.57-37.38,54.54,0,118.45,6.63,186.1,13.65,68.93,7.15,140.2,14.55,202.22,14.55,69.79,0,119-9.68,150.29-29.59,91.65-58.24,126.1-149.77,159.41-238.28,33.5-89,68.13-181,160.9-242.51,30-19.88,66.5-29.54,111.64-29.53,76.52,0,166.88,27.64,262.55,56.91C342,598.31,453.09,632.29,559.09,632.29c12,0,23.86-.45,35.25-1.33,227.11-17.64,337.5-94.81,444.26-169.44,51.41-35.94,104.59-73.11,169.81-102.13,72.95-32.45,154.51-51.48,249.33-58.19,1.66-.12,3.26-.17,4.9-.17Zm0-7.58c-1.81,0-3.6.07-5.44.2-429.55,30.37-416.53,295-863.45,329.76-11.45.89-23,1.31-34.66,1.31C359.36,624.72,135.47,501-28,501c-43.4,0-82.52,8.72-115.82,30.79C-332.08,656.52-283.68,897.86-464,1012.45c-33.54,21.31-85.57,28.41-146.23,28.41-120.94,0-276.29-28.19-388.32-28.2-111.24,0-179.71,27.78-129.39,138.61,119.71,263.6,1396,1035.48,2008,1044.46,2.39,0,4.83.05,7.2.05,786.8,0,884.83-1902.33,575.37-1902.33Z"/><path class="cls-17" d="M1477.52,332.46c90.81,0,151.82,199.7,151.82,496.93,0,310.57-65.15,643-174.29,889.25-64.17,144.78-142,258.48-231.32,338-100,88.93-213.79,134-338.34,134l-4.81,0c-142.39-1.57-330-45.21-557.48-129.7-200-74.28-423.37-177.9-645.84-299.64-206.7-113.11-403-237.07-552.87-349-153.3-114.56-252.15-212.45-278.34-275.65-16.94-40.88-18.56-72-4.83-92.58,17.2-25.74,59.84-38.25,130.38-38.24,60.22,0,131.9,8.63,207.79,17.76,76.05,9.16,154.7,18.63,221,18.63,63.9,0,109.24-9,138.65-27.35,89.51-56.41,117.86-144.2,147.87-237.14,29.27-90.68,59.54-184.45,151.22-251.82,35.94-26.41,83-39.25,143.74-39.25,84.57,0,183.48,24.34,288.2,50.09,111.51,27.43,226.81,55.78,332,55.78,7.75,0,15.45-.15,22.9-.46,228.41-9.49,340.82-74.2,449.54-136.78,105-60.45,204.18-117.54,401.32-122.74.58,0,1.12,0,1.69,0Zm0-7.11c-.64,0-1.23,0-1.87,0-404.81,10.67-405.24,241-851,259.52-7.47.31-15,.46-22.6.46-201.91,0-443.44-105.86-620.19-105.87-57.33,0-107.82,11.13-147.95,40.62C-352.34,657-289.35,898.25-464.74,1008.79c-31.09,19.46-78.7,26.25-134.85,26.25-130,0-305.81-36.38-428.81-36.39-110.44,0-178.27,29.32-132.12,140.66C-1048.34,1410,271.93,2191,880.5,2197.71c1.6,0,3.3,0,4.89,0,811.55,0,889.18-1872.39,592.13-1872.39Z"/><path class="cls-18" d="M1469.24,363.47c8.08,0,16.39.09,24.69.29,89.79,2.1,150,214.51,146.48,516.53-1.66,142-17.43,292.31-45.61,434.75-31.51,159.32-76.79,302.8-134.59,426.46-64.88,138.8-143.56,247.66-233.89,323.56-101.06,84.92-216.49,128-343.08,128H881c-141.82-1-331-44.76-562.35-130-204.27-75.24-432.21-180-659.16-302.93-449-243.23-797-504.41-846.32-635.14-15.93-42.23-16.46-73.18-1.63-94.62,18.21-26.34,61-39.14,130.93-39.14,65.72,0,148.66,11.29,228.88,22.2,82.6,11.24,168,22.86,237.85,22.86,59.06,0,101.21-8.34,128.88-25.51,87.31-54.18,111-142.11,136.11-235.21,25-92.74,50.86-188.64,141.71-261.91,42.53-34.31,102.7-51,184-51,94.05,0,201.91,21.47,316.1,44.2s232.05,46.17,335,46.17c1.58,0,3.17,0,4.75,0,228.62-1.61,342.94-53.16,453.49-103,98.71-44.52,192-86.56,360.12-86.56Zm0-6.66c-355.59,0-379.25,186.52-813.66,189.58l-4.7,0C449,546.41,191.7,456-.19,456c-75.16,0-140.27,13.86-188.12,52.45-184.4,148.72-106.37,390.67-277.15,496.64-29,18-73,24.52-125.37,24.52-137.7,0-333.33-45.06-466.73-45.06-110.1,0-177.8,30.69-135.53,142.76,104.74,277.7,1468.94,1067.9,2074,1072.34h2.32c835.39,0,893.85-1836,610.84-1842.6q-12.67-.3-24.84-.29Z"/><path class="cls-19" d="M1431.82,391.67c25.4,0,52.39,1.12,80.21,3.34,44.43,3.54,82.89,63.07,108.29,167.62,25.31,104.14,36,246.27,30.13,400.19-11.48,300.39-81.68,597.45-192.61,815-65.56,128.57-144.55,229.27-234.79,299.29-100.7,78.13-215.67,118-341.72,118.35h-2.11c-72.23,0-159.07-11.73-258.11-34.86-92.91-21.69-197-53.49-309.28-94.52-208.18-76-440.44-182-671.69-306.41-218-117.31-422.92-245-576.94-359.6-162.26-120.72-260.12-219.86-283-286.7-14.74-43.07-14.24-74.73,1.53-96.79,19.3-27,62.6-40.12,132.38-40.12,71.19,0,162,13.68,249.76,26.91,88.62,13.35,180.26,27.15,253,27.15,54.76,0,94.07-7.77,120.18-23.78,84.68-51.9,103.76-139.59,124-232.42,20.71-95.13,42.11-193.48,132.51-272.82C-156.68,457.83-80.2,436.6,27.35,436.6c105.41,0,228.46,20.1,347.45,39.52,106.93,17.46,217.51,35.52,311.54,38,15.32.4,30.56.6,45.3.6,197.94,0,310.43-36.55,409.68-68.81,85.77-27.87,166.79-54.2,290.5-54.2Zm0-6.2c-269.91,0-334.1,123-700.18,123-14.58,0-29.58-.19-45.14-.6-196.95-5.12-457.3-77.47-659.15-77.48-97.56,0-181.43,16.89-237.9,66.46-182.63,160.29-89.67,402.9-255.63,504.61-27.16,16.65-68,22.87-116.94,22.87-144.32,0-359.23-54.06-502.75-54.06-110.37,0-178.49,32-139.78,145.11,97.26,284.3,1502.06,1086.28,2104.87,1086.28h2.13c857.39-2.7,898.41-1791.54,631.18-1812.84-28.93-2.3-55.71-3.36-80.71-3.36Z"/><path class="cls-20" d="M65.71,402.43v5.74c119.74,0,254.75,18.63,385.3,36.64,95.73,13.2,186.15,25.68,266.07,30.3,41,2.37,80.69,3.57,118,3.57,150.37,0,247.69-19.28,333.55-36.29,70.15-13.9,136.42-27,220.17-27,44.15,0,90.39,3.56,141.37,10.88,22.62,3.26,43.58,21.88,62.28,55.35,18.6,33.29,34.09,79.65,46,137.8,24.41,118.79,31.51,274.76,20,439.17-9.36,133.76-31.14,269.75-63,393.26-35.91,139.37-84,263.11-143,367.78-66,117-144.73,208.46-234.15,271.75-99.39,70.35-212.62,106.2-336.56,106.56h-1.9c-71.87,0-159-11.84-258.94-35.18-93.84-21.92-199.26-54-313.34-95.43-212.55-77.14-449.43-184.2-685-309.61C-601.52,1638.43-810.9,1509.12-967,1393.59c-165.81-122.7-264.61-223.62-285.7-291.85-13.58-43.94-12-76.32,4.68-99,20.43-27.69,64.39-41.16,134.4-41.15,76.66,0,175.21,16.2,270.53,31.86,94.21,15.49,191.63,31.5,266.73,31.5,51,0,87.77-7.26,112.47-22.22,81.79-49.49,96.31-136.62,111.69-228.87C-336.69,680.64-319.08,575-228.84,489.4c57.63-54.66,154-81.23,294.56-81.23v-5.74Zm0,0c-124.85,0-232.56,20.26-298.5,82.81-181,171.65-73,415.08-234.11,512.57-25.54,15.46-63.64,21.39-109.49,21.39-150.08,0-383.84-63.36-537.26-63.37-111,0-179.93,33.19-144.57,147.6,90,291.24,1538.78,1100.22,2138.08,1100.22h1.92C1759,2201.11,1782.83,456.74,1531,420.56c-54.06-7.77-100.47-10.94-142.19-10.94-186.44,0-280.22,63.31-553.72,63.31-35.92,0-74.9-1.09-117.65-3.56-189.19-10.93-444.14-66.94-651.69-66.94Z"/><path class="cls-21" d="M115.12,377.31c139.9,0,297.73,19.51,437,36.72,70.12,8.66,136.35,16.84,195.76,22.1,83.14,7.35,158.7,10.93,231,10.93,82.36,0,147.79-4.7,205.51-8.85,47.58-3.41,92.52-6.64,139.06-6.64,73,0,142.3,8,224.86,25.89,46.11,10,85.43,90.1,107.88,219.76,23.24,134.17,26.15,303.41,8.21,476.53-13.37,129.07-37.48,252.92-71.65,368.09-38,128.22-87.49,241.41-147,336.44-66.23,105.82-144.65,188.44-233.09,245.53-97.88,63.2-209.08,95.68-330.52,96.54h-4.53c-138.85,0-338.55-45.61-577.52-131.92C83.47,1990.21-157.66,1882-397.21,1755.51-626.65,1634.36-840,1503.45-998,1386.88c-168.89-124.61-268.38-227.25-287.71-296.82-12.46-44.83-9.91-78,7.81-101.26,21.61-28.43,66.38-42.25,136.88-42.24,82.14,0,188.44,18.84,291.24,37.06,104,18.44,202.24,35.86,279.29,35.86,47.62,0,82.15-6.8,105.56-20.79,36.1-21.55,60-51.84,75.33-95.32,13.5-38.37,18.64-82.53,24.1-129.27,11.19-96,23.87-204.73,114.22-296.79,66-67.29,185.89-100,366.38-100Zm0-5.28C-41.67,372-179,396.1-255,473.61c-179.46,182.85-56.35,427.23-212.58,520.55-24.11,14.39-59.75,20-102.86,20-155.12,0-407.37-72.92-570.53-72.92-112,0-182,34.35-149.78,150.21C-1208.07,1389.12,280,2205.65,877.63,2205.65l4.57,0c897-6.33,904.4-1701.9,667.21-1753.34-91.75-19.9-161.22-26-226-26-103.12,0-194.33,15.5-344.57,15.5-64.21,0-139.2-2.83-230.53-10.91C568.8,415,324.56,372,115.12,372Z"/><path class="cls-22" d="M173.91,344.07c173.9,0,365.89,23.72,520.16,42.78,29.74,3.67,57.83,7.14,84.61,10.3,175,20.67,293.16,26.37,388.12,30.94,142.44,6.86,236.54,11.39,399.66,60.55,46.76,14.09,86.83,107.11,107.18,248.81,21.39,148.86,19.19,336.29-6,514.23-17.16,121-44.14,235.62-80.2,340.51-40.08,116.6-90.75,219-150.61,304.42-66.35,94.67-144.18,168.53-231.34,219.54-96,56.17-204.62,85.32-322.9,86.63q-3.48,0-7,0c-138.77,0-340.32-46.07-582.85-133.23C72,1990.26-173.41,1880.89-416.9,1753.32c-234.78-123-452.13-255.53-612-373.15-171.95-126.53-272.16-230.89-289.77-301.81-11.37-45.77-7.79-79.66,10.93-103.6,22.8-29.15,68.48-43.33,139.71-43.32,87.67,0,201.69,21.6,312,42.49,109.13,20.67,212.2,40.2,290.85,40.2,44.6,0,77.09-6.37,99.33-19.47C-390.41,950.19-384.95,869-378.62,775c6.66-98.89,14.2-211,104.91-309.76,39.77-43.32,101.53-75.37,183.57-95.26,71.89-17.44,158.26-25.92,264.05-25.92Zm0-4.82c-192.08,0-364.69,28.54-451.18,122.73C-455.32,655.9-317,901.32-468.34,990.49c-22.81,13.45-56.25,18.8-96.87,18.8-159.56,0-430-82.67-602.81-82.68-113.22,0-184.5,35.46-155.33,152.91,75.51,304,1602.73,1128.13,2198.92,1128.13,2.37,0,4.71,0,7,0C1799.48,2197.38,1791.09,551.29,1567.85,484c-272.65-82.17-351.18-40-788.61-91.67-168.53-19.9-398.24-53.1-605.33-53.1Z"/><path class="cls-23" d="M238.22,308.66c157.56,0,344.43,16.2,571.3,49.51,75.81,11.14,141.32,20.33,199.13,28.45,272.5,38.26,374.46,52.58,576,133.18,23.49,9.4,45.69,40.16,64.19,88.94s32.9,114.46,41.79,190.37c19.46,166.12,11.2,366.51-22.66,549.81-43.84,237.37-127.5,439.47-242,584.42-139.79,177.06-322.5,268.54-543,271.88-3.1.05-6.18.08-9.33.08-138.74,0-342.15-46.53-588.25-134.56-224.88-80.43-474.52-190.94-721.95-319.61-240.1-124.84-461.43-259-623.21-377.69-175-128.42-276-234.52-291.89-306.82-10.3-46.7-5.7-81.35,14-105.92,24-29.92,70.78-44.47,142.85-44.47,93.25,0,215,24.48,332.78,48.14,113.9,22.89,221.5,44.51,301.46,44.51,41.87,0,72.5-6,93.65-18.26,72.1-41.89,73.59-121.69,75.32-214.09,1.91-102,4.07-217.53,95.34-323.32,82.76-95.92,262.56-144.55,534.42-144.55Zm0-4.37c-228.49,0-441.14,34.12-537.73,146.06C-476.28,655.24-322.63,901.77-469,986.84c-21.65,12.57-53.13,17.66-91.46,17.66-163.51,0-451.83-92.63-634.24-92.64-114.63,0-187.42,36.57-161.16,155.7,68.41,310.4,1634.68,1142.1,2229.57,1142.1,3.17,0,6.27,0,9.39-.07,936.68-14.22,913.15-1609.89,703.24-1693.84-244.6-97.83-340.45-97.91-776.13-161.9-157.22-23.09-370.73-49.56-571.94-49.56Z"/><path class="cls-24" d="M302.93,271.39c167.79,0,363.69,17.43,537.47,47.81C1276,395.34,1389.53,440.71,1602.94,551c48.67,25.15,88.55,144,104.07,310.22,17.09,183,2,394.84-41.38,581.12-23.84,102.35-55.92,197.34-95.36,282.33-43.48,93.69-96,175.39-156.23,242.84-138.57,155.3-317.1,236.11-530.64,240.2-3.81.08-7.57.11-11.51.11-138.73,0-344-47-593.73-135.87-229-81.53-482.94-193.2-734.29-323-245.39-126.68-470.71-262.42-634.45-382.24-178.09-130.32-279.77-238.15-294.06-311.85-9.11-47-3.33-83.44,17.17-108.3,25.31-30.69,73.14-45.61,146.21-45.61,98.92,0,228.43,27.44,353.67,54,118.42,25.08,230.28,48.78,311.29,48.78,39.39,0,68.33-5.61,88.47-17.14,68.63-39.29,66.34-117.45,63.68-208-1.48-50.33-3.15-107.37,7.11-164.86,11.75-65.78,37.37-122.23,78.33-172.55,48.67-59.82,133.13-104.58,251-133,101-24.39,225.7-36.76,370.61-36.76Zm0-3.91c-263.64,0-518.87,41.23-624.68,171.25-175.59,215.76-6.54,463.45-148,544.45C-490.35,995-520,999.79-556.3,999.79c-167,0-473-102.74-665-102.75-116.23,0-190.66,37.65-167.22,158.57,61.41,316.74,1666.61,1156.07,2260.36,1156.07,3.94,0,7.75,0,11.6-.1,956.5-18.32,918.22-1562.35,721.25-1664.1-216.4-111.79-329.66-156.27-763.66-232.14-146.69-25.64-344.69-47.86-538.14-47.86Z"/><path class="cls-25" d="M363.74,232.68c173,0,358,17.33,507.57,47.54,193.65,39.13,339,81.5,457.51,133.35,108.59,47.53,186.89,99.05,277.56,158.72l14.89,9.8C1670.21,614.25,1710,748,1722.56,922.77c6.67,92.56,5.4,193.34-3.65,291.46-10.17,110.22-29.72,216.29-58.09,315.26-26.57,92.66-60.73,178.1-101.52,253.93-44.73,83.14-97.87,155.48-158,215-137,135.7-311.11,206.92-517.52,211.68-4.49.1-8.93.15-13.57.15-138.73,0-345.94-47.44-599.23-137.18-229.85-81.45-495-197.33-746.66-326.3-250.67-128.48-480-265.84-645.71-386.78-181.16-132.22-283.62-241.8-296.29-316.92-8.09-48-1.26-85.2,20.28-110.69,26.61-31.47,75.61-46.77,149.8-46.76,104.65,0,241.92,30.5,374.68,60,122.67,27.25,238.53,53,320.39,53,37.12,0,64.49-5.27,83.69-16.09,30-16.91,46.94-42.67,53.34-81.08,5.71-34.22,2.49-76-.92-120.25-7.94-103.06-17.81-231.32,75.13-352,52.44-68.08,147.87-119.58,283.65-153.07,115.27-28.43,261-43.46,421.34-43.46Zm0-3.45c-295.88,0-594,50.19-707.73,197.87-174.51,226.58,10,475.45-126.5,552.42-19.6,11-47.68,15.64-82,15.64-170.15,0-493.53-113-695.07-113-118,0-194.19,38.71-173.49,161.49,54.49,323.1,1698.64,1170.06,2291.3,1170.06,4.63,0,9.15-.06,13.65-.16,976.32-22.5,923.26-1513.41,739.27-1634.34C1434.66,455.3,1304.4,364.2,872,276.83,734.2,249,549.4,229.23,363.74,229.23Z"/><path class="cls-26" d="M418.54,192.89c173,0,349.28,17.63,483.7,48.36,403.92,92.34,558.49,222,708,347.33q14.73,12.34,29.48,24.66c48.71,40.51,87.84,189.22,97.38,370,5.21,98.65,1.53,203.91-10.65,304.41-13.85,114.4-38.25,222.58-72.53,321.52C1561,1877.5,1352,2200,884.25,2212.53c-5.11.14-10.19.21-15.52.21-138.79,0-347.93-47.9-604.82-138.51-234-82.53-503.53-199.59-759-329.65-255.92-130.26-489.23-269.23-657-391.32-184.24-134.11-287.48-245.45-298.55-322-7.08-48.94.79-87,23.4-113.11,27.92-32.25,78.15-47.93,153.55-47.93,110.47,0,255.54,33.66,395.83,66.21,126.67,29.4,246.32,57.16,328.83,57.16,35,0,60.95-5,79.27-15.11,61.51-34.13,52.72-104.78,41.6-194.23-13.22-106.22-29.66-238.42,64.35-367,55.67-76.13,161.33-134.46,314.05-173.38,130.83-33.34,292.76-51,468.3-51Zm0-3c-324.79,0-664.41,61-784.77,225.58-173.53,237.36,26.55,487.42-105,560.39-18.68,10.36-45.31,14.73-77.82,14.73-172.94,0-513.54-123.36-724.66-123.36-119.86,0-198,39.76-179.92,164.46,47.66,329.45,1730.57,1184,2322.34,1184,5.32,0,10.46-.07,15.6-.21,996.14-26.8,927.64-1462.9,757.28-1604.6-161.4-134.24-307.76-274.08-738.7-372.6-130.79-29.91-305.34-48.44-484.37-48.44Z"/><path class="cls-27" d="M467.15,152.31c174,0,339.51,17.75,466,50C1339.78,305.8,1504.5,481,1636.85,621.75q10.82,11.49,21.36,22.66c22.55,23.81,44,74.79,60.47,143.54,17.41,72.84,28.35,160.79,31.64,254.36,4.65,132-2.84,390.55-105.12,638.7-64.32,156.09-155.11,280.4-269.81,369.46-133,103.24-298.06,158.58-490.71,164.5-5.64.18-11.48.26-17.37.26-138.83,0-349.91-48.35-610.41-139.82-238.09-83.61-512.06-201.87-771.43-333-261.16-132-498.49-272.63-668.26-395.87-187.33-136-291.36-249.12-300.86-327.13-6.08-49.94,2.84-88.82,26.51-115.56,29.25-33,80.74-49.08,157.47-49.08,116.35,0,269.22,36.91,417.05,72.59,130.49,31.5,253.74,61.24,336.75,61.24,33.07,0,57.65-4.64,75.16-14.18,57.9-31.58,46.15-100,31.27-186.72-9.28-54.06-19.8-115.34-16.11-180.42,4.27-75.16,26.89-141.24,69.17-202,30-43.06,75.91-81.81,136.57-115.17,56.27-30.95,125.4-57.41,205.45-78.63,146-38.72,322.88-59.19,511.51-59.19Zm0-2.53c-350.71,0-729.85,73.34-855.62,254.07-172.64,248.09,43.06,499.33-83.46,568.35-17.85,9.73-43.1,13.87-73.94,13.87-175.45,0-533.11-133.81-753.8-133.83-121.88,0-201.93,40.79-186.51,167.49,40.9,335.82,1762.62,1198,2353.49,1198,5.94,0,11.73-.08,17.44-.26,1016-31.2,930.61-1410.86,775.3-1574.85-135.6-143.18-296.63-333.46-726.23-442.84-125.56-32-292.63-50-466.67-50Z"/><path class="cls-28" d="M510.39,111.16c172.55,0,333.71,18.52,453.78,52.15,186.37,52.2,340.43,131,471,241,110.38,93,180.95,188.84,237.66,265.87l4,5.41c38.16,51.82,81.11,206.55,85.25,423.8,2.09,109.83-6.27,218-24.83,321.56-21.34,119-55.69,228-102.08,323.81-67,138.49-158.71,248.53-272.47,327.06C1232.08,2162,1071.4,2211,885.11,2217.41c-6.26.22-12.51.32-19.1.32-138.93,0-352-48.81-616.1-141.14C7.67,1991.9-270.7,1872.46-533.92,1740.25c-266.39-133.79-507.72-276-679.54-400.42-132.78-96.15-293.17-231.85-303.21-332.26-5.09-51,4.88-90.67,29.65-118,30.6-33.81,83.4-50.24,161.5-50.24,122.33,0,283,40.23,438.42,79.13C-753,952-626.34,983.7-543,983.7c31.26,0,54.59-4.36,71.31-13.32,54.28-29.08,39.81-95.17,21.49-178.85-12.1-55.26-25.81-117.91-24.57-185.64,1.43-78.49,22.95-148,65.78-212.51,31.07-46.8,80-89.3,145.51-126.31,60.74-34.34,135.54-63.93,222.33-87.95,158.37-43.82,354.23-68,551.52-68Zm0-2.08c-374.27,0-790.91,87.05-921.09,283.14C-582.53,651-351.15,903.44-472.65,968.54c-17.07,9.14-41,13.07-70.33,13.07-177.7,0-552.26-144.37-782.53-144.4-124,0-206.1,41.82-193.23,170.56,34.2,342.19,1794.58,1212,2384.75,1212,6.55,0,12.91-.1,19.17-.32,1035.75-35.71,931.4-1357.61,793.31-1545.1C1567,523,1393.14,281.31,964.73,161.31,842.91,127.19,681,109.08,510.39,109.08Z"/><path class="cls-29" d="M549.28,69.57C721,69.57,879.39,89,995.18,124.35,1180.81,181,1341.23,275.3,1472,404.68c108.39,107.24,176.39,217.85,223.52,302.23,19.29,34.53,38.24,96.8,52,170.83,15.71,84.57,24.23,179.84,24.67,275.51.52,113.1-10.05,222.54-31.39,325.28-24.8,119.38-63.83,227.15-116,320.29-69,123.07-161,220.81-273.72,290.52-128.25,79.35-284.87,123.26-465.5,130.51-6.36.23-13,.34-19.71.34-138.79,0-353.71-49.25-621.51-142.42C-2.19,1992-285.11,1871.39-552.33,1738.16c-275.8-137.52-514.9-277.55-691.46-405-135.07-97.48-297.8-235.16-305.9-337.51-4.11-52,6.92-92.49,32.78-120.48,32-34.61,86.18-51.44,165.67-51.44,128.4,0,297,43.64,460,85.84,137.49,35.59,267.35,69.2,350.94,69.2,29.55,0,51.7-4.09,67.69-12.49,23.41-12.31,34-32.93,33.36-64.88-.6-28.89-10.09-64.52-21.08-105.76C-489.54,686-529.55,535.81-431.57,381.46-369.79,284.14-234.28,203-39.7,146.76,132.6,97,341.77,69.57,549.28,69.57Zm0-1.62c-396,0-848.38,101.8-982.22,312.65-171.08,269.5,76,523.06-40.43,584.28-16.33,8.58-39.11,12.31-66.93,12.31-179.71,0-571-155-810.94-155-126.15,0-210.42,42.86-200.07,173.66,27.6,348.78,1828.71,1226,2417.14,1226q10.14,0,19.77-.35c1055.48-42.38,929.5-1303.8,811.33-1515.35C1607.82,546.57,1423,253.19,995.65,122.8,876.41,86.42,717.92,68,549.28,68Z"/><path class="cls-30" d="M584.8,27.65c174.15,0,326.78,20,441.4,57.75,186.12,61.35,347,167.65,478.17,316,117.63,133,182,268.19,209.92,336.93,17,41.93,33.64,108.86,45.6,183.62,14.47,90.44,21.68,188.41,20.85,283.31C1779.2,1382,1749,1636.83,1613.81,1847.3c-150.6,234.43-395.47,360.6-727.83,375-6.94.29-14.2.43-21.59.43-139,0-355.9-49.71-627.33-143.75-250.64-86.85-537.94-208.65-809-343-281-139.28-523.95-280.88-702.59-409.51-95.17-68.54-169.66-131.85-221.41-188.18-55.08-60-84.29-111.94-86.8-154.52-3.14-53,8.94-94.34,35.92-123,33.37-35.4,89-52.61,169.93-52.61,134.55,0,319,49.25,481.69,92.69C-754.44,938.47-621.52,974-537.82,974c28,0,49-3.83,64.27-11.71,47-24.23,28.86-82.08,3.7-162.14-35.38-112.65-83.85-266.91,15.66-430.54C-390.73,265.23-247.4,177-39.7,114.43,53.7,86.3,156.56,64.45,266,49.5A2363.77,2363.77,0,0,1,584.8,27.65Zm0-1.17c-416.48,0-903.1,117.4-1040,342.49-170.41,280.19,92.48,534.87-18.91,592.25-15.64,8.06-37.3,11.57-63.73,11.57-181.51,0-589.45-165.74-839-165.74-128.42,0-214.89,43.87-207,176.81,21,355.11,1860.11,1240,2448.26,1240q11.13,0,21.64-.43c1075.28-46.54,924.87-1250.28,829.34-1485.6-68.42-168.57-262.32-513-688.8-653.56C909,45.54,752.58,26.48,584.8,26.48Z"/><path class="cls-31" d="M617.71-14.54c174.76,0,326.75,21.09,439.53,61a1012.2,1012.2,0,0,1,278.22,151.37c73.5,56.32,141.09,123.49,200.92,199.68,135.08,172,184.75,328.43,196.75,372.26,10.07,36.79,60.07,233,55,483.89-2.38,117.37-16.78,227.19-42.81,326.41-30.9,117.79-78.49,221.43-141.45,308-151.46,208.35-392.85,321.6-717.44,336.63-7.49.34-15.37.5-23.42.5-139.2,0-358.14-50.16-633.16-145.07-254.74-87.91-546.36-210.91-821.16-346.34-286.13-141-532.92-284.19-713.69-414.07-96.61-69.42-172-133.57-224.2-190.67-55.61-60.89-84.72-113.78-86.52-157.2-2.1-54,11.09-96.22,39.23-125.47,34.81-36.2,91.85-53.79,174.37-53.79,140.81,0,333.48,53,503.48,99.7,143.72,39.51,279.48,76.83,363.17,76.83,26.42,0,46.37-3.58,61-10.95,43.44-21.9,23.44-77.06-4.23-153.41-20.18-55.68-45.3-125-52.34-201-8.24-88.95,9.5-169.45,54.24-246.11,33.44-57.28,90.1-110.7,168.41-158.77C-235.68,154.27-145.66,115-40.83,82.11c195.94-61.42,436-96.65,658.54-96.65Zm0-.71c-436,0-955.66,133.64-1095.13,372.59C-647.21,648.21-368.49,904-474.8,957.56c-15,7.55-35.57,10.87-60.68,10.87-183.08,0-607.35-176.52-866.65-176.53-130.78,0-219.57,44.9-214.3,180,14.92,361.43,1891.39,1254,2479.43,1254,8.08,0,15.87-.17,23.45-.51,1095.09-50.7,918-1197.81,847.37-1455.86-49-178.93-250.57-573.15-676.34-723.79-116.52-41.22-272-61-439.77-61Z"/><path class="cls-32" d="M648.6-56.95c176,0,328,22.29,439.71,64.46,99.43,37.54,193.22,93,278.77,164.91,74.12,62.28,141.78,136.51,201.1,220.63,50,70.85,93.92,149.11,127.1,226.32,28.44,66.2,48.59,130.83,56.73,182q1.63,10.38,3.57,22.22c16.53,102.22,47.29,292.49,38.34,497.38-5,113.73-21.62,218.67-49.5,311.92-33.15,110.89-82.94,207.85-148,288.19a724.5,724.5,0,0,1-118.2,115.83c-46.34,36-98.39,67.43-154.7,93.32-59.43,27.33-125.25,49.29-195.64,65.27-74,16.8-155.07,27.46-241,31.69-8,.39-16.53.59-25.22.59-139.44,0-360.46-50.62-639.14-146.4-258.94-89-555-213.17-833.56-349.68-140.89-69-273.77-139.38-395-209.09-126.37-72.71-237.36-143.2-329.86-209.54-98-70.31-174.37-135.3-226.89-193.18-56.09-61.84-85-115.64-86-159.93-.62-28.15,2.78-53.34,10.1-74.86a138.89,138.89,0,0,1,32.13-53.13c18.6-19,43.82-33.24,75-42.31,28.81-8.39,63.72-12.64,103.81-12.64,147.13,0,348.2,56.77,525.6,106.84,146.69,41.41,285.24,80.52,368.85,80.52,24.63,0,44.11-3.44,57.9-10.23,18.43-9.07,25-25.65,20.51-52.16-4.09-24.46-17-55.89-32-92.29-23.28-56.6-52.25-127-62.39-205.86-5.58-43.3-5-83.92,1.83-124.18,7.75-45.81,23.9-90.82,48-133.79,34-60.62,92.94-117.61,175.15-169.39,76.4-48.12,171.09-90.72,281.44-126.64C165.61-18,417.63-56.95,648.6-56.95Zm0-.25C193.86-57.2-358,93.21-499.66,345.71-668.88,647.27-374.3,904.07-475.52,953.9c-14.36,7.06-34,10.2-57.79,10.2-184.49,0-625.39-187.33-894.45-187.36-133.21,0-224.25,45.9-221.24,183.2C-1641,1327.74,273.64,2228,861.65,2228q13.07,0,25.23-.6c1114.9-54.86,909.8-1146.86,865.37-1426.11-30.37-190.91-238.64-633.48-663.85-794-116-43.8-271.28-64.48-439.8-64.48Z"/></g></g><path class="cls-33" d="M657.08,131.75H300.14a11.57,11.57,0,0,0-11.53,11.53V341.64a11.57,11.57,0,0,0,11.53,11.53H657.08a11.57,11.57,0,0,0,11.53-11.53V143.28a11.57,11.57,0,0,0-11.53-11.53"/><path class="cls-34" d="M657.63,140h-358a2.75,2.75,0,0,0-2.74,2.73V342.19a2.75,2.75,0,0,0,2.74,2.74H657.63a2.74,2.74,0,0,0,2.74-2.74V142.72a2.74,2.74,0,0,0-2.74-2.73"/><g class="cls-35"><path class="cls-36" d="M297.91,139.78h80.25a65,65,0,0,1-81.35,88.11v-87a1.11,1.11,0,0,1,1.1-1.1"/></g><path class="cls-33" d="M544.56,389.48H412.65v-.2c0-6,3.85-10.89,8.56-10.89H536c4.71,0,8.55,4.89,8.55,10.89Z"/><g class="cls-37"><rect class="cls-38" x="438.86" y="353.17" width="79.5" height="28.57"/></g><rect class="cls-39" x="430.16" y="114.58" width="111.86" height="230"/><g class="cls-40"><rect class="cls-41" x="447.23" y="92.76" width="185.98" height="253.09"/></g><g class="cls-42"><rect class="cls-43" x="444.83" y="95.34" width="180.05" height="248.51"/></g><path class="cls-44" d="M569.72,96.55v3.9l54.42,54.43,2.73-52.31a5.93,5.93,0,0,0-6-6.23Z"/><g class="cls-45"><rect class="cls-46" x="569.72" y="96.33" width="57.24" height="58.54"/></g><g class="cls-47"><g class="cls-48"><rect class="cls-49" x="444.83" y="308.72" width="180.05" height="36.14"/></g></g><path class="cls-50" d="M642,277.57c0,2.36.09,19.18.38,25.44.12,2.1,3.18,6.64-.58,10.68-.86.67-4-.91-3.32-11-.15-6.31-2.52-17.68-1.13-25l3-.7Z"/><path class="cls-50" d="M613.69,358.89c.46,8.24,1.37,12.66,1.68,22.28-1.25.82-4.12,5.55-4.85,6a.24.24,0,0,0,0,.08,1.53,1.53,0,0,0,1.39.77c2-.1,2.67-3.26,4.28-5.36a4.79,4.79,0,0,1,1.29-1.17l1.43-.39c.27-10.17,1.81-16.8,1.21-22.69Z"/><path class="cls-51" d="M618.19,389.58c.09,0,.74.07.93-.25,0-.85.57-4.21.57-6.42,0-1-.49-1.31-.58-2a4.39,4.39,0,0,0-2.9,1.75c-1.61,2.1-2.3,5.26-4.28,5.36a1.45,1.45,0,0,1-1.41-.85c-.53.43-3.22.49-3,1.26.09.31,2.17,1.79,5.56,1.27,1.71-.36,1.64-3.22,5-4.87Z"/><path class="cls-50" d="M633.81,358.89c.46,8.24,1.36,12.66,1.67,22.28-1.24.82-4.11,5.55-4.85,6l0,.08A1.51,1.51,0,0,0,632,388c2-.1,2.68-3.26,4.28-5.36a4.94,4.94,0,0,1,1.29-1.17l1.44-.39c.26-10.17,1.81-16.8,1.2-22.69Z"/><path class="cls-51" d="M638.3,389.58c.09,0,.74.07.94-.25,0-.85.57-4.21.57-6.42,0-1-.5-1.31-.58-2a4.41,4.41,0,0,0-2.91,1.75c-1.6,2.1-2.29,5.26-4.28,5.36a1.47,1.47,0,0,1-1.41-.85c-.52.43-3.22.49-3,1.26.1.31,2.18,1.79,5.56,1.27,1.72-.36,1.65-3.22,5.05-4.87Z"/><path class="cls-51" d="M630.84,300.69l-2,2.58c-.19,2.43,2.5,40.81,5.38,65.09a63.1,63.1,0,0,0,9.49-.27c-.25-1.76,2.15-6.12,1.81-6.85s-1.39.11-1.52-.37,2.06-6,1.66-7-1.36-.71-1.54-1a96.15,96.15,0,0,1-.7-11.13c-.06-12.42.07-31.91-3.42-40.3Z"/><path class="cls-52" d="M619.15,300.69l-2.74,2c-.46,2.44-3.7,49-2.43,66.54a73.33,73.33,0,0,0,10.35-.61c-.35-3.4,2.67-9.34,2.53-10.49s-1.45-1.31-1.52-1.79,2.24-3.95,1.95-4.95-1.52-.69-1.66-1.17,5.94-36.19,5.59-47Z"/><g class="cls-53"><rect class="cls-54" x="612.71" y="300.69" width="18.86" height="68.75"/></g><path class="cls-55" d="M637.38,277.7a22,22,0,0,1,6.13.11c-.07-8.2-2.17-15.83-7.15-17.43Z"/><path class="cls-50" d="M593.4,264.7c.23,1.47,3.2,9,4.79,12.07s3.76,6.52,6.31,5.8,7-6.4,8.29-8.49a25,25,0,0,0-5.25-3.33c-.4.53-2.34,3.5-3.17,5.06-2.35-5.87-6.93-8.83-7.91-12,1.2-4.3.64-4.86.13-5s-.55,2.15-1.38,1.8c-.3-.12-.53-.63-.68-1.3a13.38,13.38,0,0,1-.33-2c0-.55,0-.82-.46-.87-1.42-.1-1-.72-1.08,1.07-2.35,1-2.67,2.47-2.38,3.6a8.37,8.37,0,0,0,3.12,3.63"/><path class="cls-56" d="M604.37,275.81c-2.35-5.87-6.93-8.83-7.91-12,.29,2.16,4.65,11.92,6.79,14.45a19.53,19.53,0,0,1,1.12-2.41"/><path class="cls-57" d="M638.51,276.34c-.49,0-.91.06-1.2.1l.07,1.26a6.47,6.47,0,0,1,.89-.11,22.16,22.16,0,0,1,5.24.22c0-.42,0-.83,0-1.24a24.69,24.69,0,0,0-5-.23"/><path class="cls-50" d="M622.34,256.51a19.14,19.14,0,0,0,.84-3.86c0-2-2.3-4.63-3.33-5.38a5.54,5.54,0,0,0-.72.9c-2.17,3.33-1.57,7.73,3.21,8.34"/><path class="cls-58" d="M623.63,257.68c-5.38.52-11.25,2.2-17.09,14.35a24.1,24.1,0,0,1,6.79,4.73c.51-.68,1.62-2,2.85-3.47.88,2.67,3.45,6.78,3.69,9.22.29,2.87-2.89,17.6-3.46,20.2,1.69,1.09,7.06,2.38,12.51,2.27.77,0,1.54-.06,2.31-.13,3.41-.34,6.65-1.32,8.82-3.36-1.91-5.42-2.6-14.11-2.6-18.54s4.67-15.93-.62-22.09c-2-2.33-7.25-3.71-13.2-3.18"/><g class="cls-59"><rect class="cls-60" x="606.54" y="257.15" width="35.58" height="47.94"/></g><path class="cls-57" d="M616.18,273.29h0c.88,2.67,3.45,6.78,3.69,9.22.29,2.87-2.89,17.6-3.46,20.2A12.53,12.53,0,0,0,620,304c-.86-3.63,1.93-17.73,1.72-21.6-.24-4.26-3.36-7.25-3.76-8.63,3.06-2.82,4-7.88,3.1-9.54.54,2-2.39,6-4.85,9.05"/><path class="cls-57" d="M614.27,275.59c-2.68-2.93-4.9-4.27-7.11-4.81-.21.4-.41.82-.62,1.25a24.1,24.1,0,0,1,6.79,4.73c.22-.29.54-.69.94-1.17"/><path class="cls-52" d="M622.59,261.91c.79,1.77,6.43,5.79,7.79,8.42s.46,4.46,2.38,5.53c1.5.84,4,0,5.88-.2a4.12,4.12,0,0,1,1.23,0c1.89.39,2.46,2.37,5.78,2.67,4.78.43,8.05-1.27,9.37-4.12,2-4.32,0-10.77-4-12.63-2.52-1.33-4.54-1-6.66-3-2.88-2.67-1.45-6.7-3.76-8.78s-5.17-.83-8-2.8-3.44-4.7-7.28-4.83-6.75,3.29-6.21,6a5.54,5.54,0,0,1,.72-.9c1,.75,3.3,3.35,3.33,5.38a19.14,19.14,0,0,1-.84,3.86c-.11.44-.2.9-.27,1.36a6.94,6.94,0,0,0,.52,4"/><path class="cls-61" d="M604.1,266.16c-.3.4-.9.86-1.17.76s-6.75-4.25-6.32-4.82c.13-.2,1,.32,1.18.45s0,.41.14.54,4.81,3.82,5.38,3.47a1.47,1.47,0,0,0,.67-.79Z"/><path class="cls-62" d="M583.68,250.28c0,.05.06.31.31.52a1.76,1.76,0,0,1,.13-.2,1.55,1.55,0,0,1,.15-.18.67.67,0,0,0-.59-.14"/><path class="cls-63" d="M584.12,250.6s-.17.24-.15.3a17.38,17.38,0,0,0,1.82,2,5.55,5.55,0,0,1,.46-.78,6.38,6.38,0,0,1,.6-.67,15.4,15.4,0,0,0-2.5-1.12c-.06,0-.2.17-.23.22"/><path class="cls-63" d="M604.57,264.6a4.23,4.23,0,0,1,.76.92.9.9,0,0,1-.17.59.92.92,0,0,1-.51.34,4.53,4.53,0,0,1-1.11-.45l.44-.76Z"/><path class="cls-52" d="M586.25,252.17a4.47,4.47,0,0,1,.69-.74c4.27,2.75,7.43,4.94,10,6.85,1,.72,7.55,5.64,7.7,6.28a1.72,1.72,0,0,1-.4.88c-.16.21-.46.6-.72.65-.66.06-7.3-4.77-8.28-5.49-2.59-1.91-5.61-4.29-9.51-7.54a4.67,4.67,0,0,1,.5-.89"/><path class="cls-63" d="M596.09,259.43c-.61.85-1,1.58-.9,1.66s.68-.52,1.31-1.36,1-1.59.9-1.67-.67.52-1.31,1.37"/><path class="cls-50" d="M595.13,260.5c-.22-1.11-1.35-2.3-1.16-3.65s.44-2.12,0-2.18c-1.14-.07-1.55,1.48-1.69,3a2.37,2.37,0,0,0-1.12.69c-.15.06,1,1.3.88,1.37l1.26,1.44.82,0Z"/><path class="cls-64" d="M372,100.72c3.68-1,23.08-12.18,26.43-37.52,2.07-3.58,2.67-12.21.62-12.7-1.06-.2-2.66,3.52-3.17,7.78-1.08-.11-.36-3.06-1.47-3.1-.67,0-.82,3.94.66,7.39C394,69.77,387,87.7,372.24,92.05l-3.09,2.67Z"/><path class="cls-64" d="M381.6,173.76c-1.42,3.37-4.07,9.9-5,12a1.76,1.76,0,0,0-.43.13,1.33,1.33,0,0,0,0,1c.24.51,4.6,4.92,6.08,4.5a22.83,22.83,0,0,0-1.77-2.6c2-2.67,6.4-9.53,7.89-12.2-.95-.39-3.84-1.58-6.8-2.78"/><path class="cls-51" d="M382.28,191.34c-1.48.42-5.84-4-6.08-4.5a1.33,1.33,0,0,1,0-1,1.13,1.13,0,0,0-.21.12c-.4.27-1.87,2.48-1.66,3.48s7.89,7,9.63,5.94c.33-.24-.57-2.19-1.68-4.06"/><path class="cls-51" d="M360.31,147.73c4.35.71,17.43.48,26.13.48.76-.92-1.94-2.07-2-2.71-.07-.8-1.2-1-1.12-1.56s31.14-7.58-1.64-13.49c-6.88-.33-13.24-.38-16.62-.38-5.86,1.14-12.15.57-14.67-.25-.54,2.23-2.17,15.45,9.91,17.91"/><path class="cls-57" d="M365.07,130.07c3.51-.68,6.86-2,9.16-4.18-3.43-14.65,0-16.17,0-22.74,0-3.1-1.48-4.09-1.49-6.34a28,28,0,0,0-.26-5A30,30,0,0,0,367,90.57c-.22,1.71-2.24,10.89-3.59,12.63a41.37,41.37,0,0,1-4.92-12.62c-2.71.79-7.36,2.25-9.27,4.85,0,0,1.23,21.07,1.23,34.39,2.52.82,8.81,1.39,14.67.25"/><g class="cls-65"><rect class="cls-66" x="349.17" y="90.57" width="25.1" height="40.64"/></g><path class="cls-52" d="M360.83,89.55c-.91,1-2.11,0-2.95.43s-.63,2.08-2.76,2c-1.09,0-1.2-1.23-2.65-1.31s-2.74,1-4.34-.16-.23-4.73-1.24-6.23-3.83-2.33-3.43-5.25,5-5.87,5-7.74c0-.58-.25-2.63.67-3.7s5.24.13,6.23-1.1.8-2.81,2.87-3.16c3-.49,4.37,2.82,6.64,3.17,1.45.22,3.25-.15,4.45.42s.21,4.09.89,5.3,2.33,1.71,2.31,3.23-1.2,3.16-1.09,4.23.91.9.84,2.13c-.07,1-2.33,3.13-2.43,4.27-.07.71.74,1.23.3,2.35s-2.56.73-3.28,1.4-1.33,1-3,.47Z"/><path class="cls-64" d="M416.43,179.94c1.68,3.24,4.47,10,5.49,12a1.72,1.72,0,0,0-.19.41,1.35,1.35,0,0,0,.76.63c.55.14,6.72-.4,7.35-1.8a22.88,22.88,0,0,0-3.14-.31c-.76-3.25-3.24-11-4.35-13.85-.9.48-3.12,1.39-5.92,2.9"/><path class="cls-51" d="M429.84,191.2c-.63,1.4-6.8,1.94-7.35,1.8a1.35,1.35,0,0,1-.76-.63,2,2,0,0,0,0,.24c0,.49.72,3,1.62,3.5s10.43-1.6,10.72-3.62c0-.4-2-1-4.19-1.29"/><path class="cls-51" d="M389.33,147.59c5.24.87,11,4.87,8.24,11a5.58,5.58,0,0,1,3,2.61c3.42,6.51,7.6,18.44,8.73,22l14.15-4.54c-1.87-6.16-10.4-37.63-13.95-42.9-.59-.87-1.94-1.61-3.83-2.24-16.94-4.38-18.34,13.75-16.32,14.08"/><path class="cls-52" d="M374.76,171.1c1.34.46,4.12,1.56,6.84,2.66,3,1.2,5.85,2.39,6.8,2.78l.31.14c1.82-3.73,5.4-10.36,8.86-18.1A122.53,122.53,0,0,0,404.63,139a38.88,38.88,0,0,0,1-5.5c.67-6.34-1.12-10.52-6.53-12.68-6.53-2.61-19.11,5.38-24.89,5.06-2.3,2.21-5.65,3.5-9.16,4.18,3.38,0,9.74.05,16.62.38,9.36,3.49,1.73,13,1.64,13.49s1.05.76,1.12,1.56a4.3,4.3,0,0,1-1.28,2.44c-1.45,1.75-3.62,3.65-3.62,4.36,0,1.08,1.2.55,1.51,1.8s-2.6,10.84-6.3,17"/><path class="cls-64" d="M363.36,103.2c1.35-1.74,3.37-10.92,3.59-12.63-.73-.13-1.41-.23-2-.3V88.9a4.54,4.54,0,0,1-2,.46,3.91,3.91,0,0,1-2.7-1V90.1c-.44.09-1.09.26-1.85.48a41.37,41.37,0,0,0,4.92,12.62"/><path class="cls-64" d="M363,89.36a4.5,4.5,0,0,0,4.5-4.5V80.11a2.19,2.19,0,0,0-2.08-2c-1.26-.06-2.52,1.75-3.35,1.56s-.41-1.32-1.07-1.54-2.24,2-1.93,7.61a5.38,5.38,0,0,1-.18-.53,4.55,4.55,0,0,0,1.41,3.17,3.91,3.91,0,0,0,2.7,1"/><path class="cls-64" d="M357.09,82.71c-1.11.38.13,3.55,1.88,3.22a4.91,4.91,0,0,1-.09-.77c-.35-1.08-.86-2.77-1.79-2.45"/><path class="cls-64" d="M351.81,94.5c2.16.7,2.85,4.44,1.9,10.58A85.61,85.61,0,0,1,350,121c1.1,2,27.79,8.16,27.78,9.27s-3.82.35-9,.49c-8.74.24-21.07,0-23.79-4.34-1.82-2.91-2.12-9.1-.64-16.73.57-2.93,3-16.67,7.49-15.21"/><path class="cls-54" d="M383.1,369.84s2.78,2.58,9.12,4.2c1.4.35,2.9-.12,2.9,2.18h-7.69l-6.4-1.11v1.11h-3.45s-1-5.65,1.05-6.38Z"/><path class="cls-67" d="M382.42,365.78l.68,4.06h0a3.89,3.89,0,0,1-4.23.14l-.24-.14.35-4.06Z"/><rect class="cls-68" x="331.87" y="317.73" width="1.69" height="66.33" rx="0.84"/><path class="cls-68" d="M364.59,351.11l0-.36c0-.45-.08-.89-.1-1.33H304.73v.51c0,.39,0,.78,0,1.18Z"/><rect class="cls-68" x="299.55" y="349.42" width="66.33" height="1.69" rx="0.53" transform="translate(-150.23 337.86) rotate(-45)"/><rect class="cls-68" x="331.87" y="317.1" width="1.69" height="66.33" rx="0.53" transform="translate(-150.23 337.83) rotate(-45)"/><rect class="cls-68" x="331.87" y="317.1" width="1.69" height="66.33" rx="0.84" transform="translate(766.59 562.72) rotate(159.62)"/><rect class="cls-68" x="331.87" y="317.1" width="1.69" height="66.33" rx="0.84" transform="translate(142.09 -93.63) rotate(20.29)"/><path class="cls-68" d="M362.64,362.51l-56.89-25c-.08.58-.18,1.15-.28,1.72L362,364.05a.85.85,0,0,0,1.12-.43A.84.84,0,0,0,362.64,362.51Z"/><path class="cls-68" d="M361.93,336.81l-58,24.9a16.66,16.66,0,0,0,.17,1.76l58.42-25.06A6.5,6.5,0,0,1,361.93,336.81Z"/><ellipse class="cls-68" cx="334.32" cy="350.02" rx="5.75" ry="6.9"/><path class="cls-69" d="M333.34,312c-17.83,0-32.29,17.41-32.29,38.87s14.46,38.87,32.29,38.87,32.29-17.4,32.29-38.87S351.17,312,333.34,312Zm0,72.24c-15.31,0-27.72-14.94-27.72-33.37s12.41-33.37,27.72-33.37,27.72,14.94,27.72,33.37S348.65,384.21,333.34,384.21Z"/><path class="cls-70" d="M333.34,312c-17.83,0-32.29,17.41-32.29,38.87s14.46,38.87,32.29,38.87,32.29-17.4,32.29-38.87S351.17,312,333.34,312Zm0,72.24c-15.31,0-27.72-14.94-27.72-33.37s12.41-33.37,27.72-33.37,27.72,14.94,27.72,33.37S348.65,384.21,333.34,384.21Z"/><path class="cls-68" d="M333.34,317.61c-15.31,0-27.72,14.88-27.72,33.23s12.41,33.23,27.72,33.23,27.72-14.88,27.72-33.23S348.65,317.61,333.34,317.61Zm0,65c-14.63,0-26.49-14.22-26.49-31.76s11.86-31.75,26.49-31.75,26.49,14.22,26.49,31.75S348,382.6,333.34,382.6Z"/><ellipse class="cls-70" cx="332.71" cy="350.02" rx="5.75" ry="6.9"/><path class="cls-68" d="M330.48,350a2.27,2.27,0,1,0,2.23-2.68A2.49,2.49,0,0,0,330.48,350Z"/><ellipse class="cls-71" cx="369.58" cy="384.21" rx="5.72" ry="5.97"/><path class="cls-54" d="M369.64,376.12a8.7,8.7,0,1,0,8.33,8.69A8.52,8.52,0,0,0,369.64,376.12Zm0,13.95a5.26,5.26,0,1,1,5-5.26A5.14,5.14,0,0,1,369.64,390.07Z"/><path class="cls-68" d="M371.52,336.71H329.84v-3.77h37.91V313.61A13.67,13.67,0,0,0,354.1,300H331.22V296.2H354.1a17.44,17.44,0,0,1,17.42,17.41Z"/><path class="cls-68" d="M369.64,386.91h0a2,2,0,0,1-1.88-2V335.22h3.76V384.9A2,2,0,0,1,369.64,386.91Z"/><path class="cls-72" d="M305,276.5h0A23.49,23.49,0,0,1,328.52,300v33a0,0,0,0,1,0,0H305a0,0,0,0,1,0,0V276.5A0,0,0,0,1,305,276.5Z"/><rect class="cls-68" x="302.96" y="272.55" width="4.06" height="78.34" rx="2.03"/><rect class="cls-73" x="303.94" y="323.72" width="50.18" height="11.11" rx="5.55"/><path class="cls-74" d="M337.55,279c4,13.2,17.41,33.45,17.41,33.45l-10.6-4.34-7.49-17.3S333.55,265.76,337.55,279Z"/><path class="cls-70" d="M323.53,308.06h0a22,22,0,0,0,21.24,19.54l25.56,1.85s-.66,8.27,6.52,38.41a21.81,21.81,0,0,0,6.29-.63s1.76-34.52-3.14-47.7c-3.92-10.56-29.68-11.47-29.68-11.47Z"/><path class="cls-68" d="M396.33,379.88H361l-18-22.66,3.69-2.09,16.69,21h33a2.07,2.07,0,0,1,2.22,1.88h0A2.07,2.07,0,0,1,396.33,379.88Z"/><path class="cls-75" d="M376.64,369.84s2.79,2.58,9.12,4.2c1.4.35,2.9-.12,2.9,2.18H381l-6.4-1.11v1.11h-3.45s-1-5.65,1.05-6.38Z"/><path class="cls-67" d="M376,365.78l.67,4.06h0a3.89,3.89,0,0,1-4.23.14l-.24-.14.35-4.06Z"/><path class="cls-54" d="M317.58,308.06h0a22,22,0,0,0,21.24,19.54l25.56,1.85s-.67,8.27,6.52,38.41a21.76,21.76,0,0,0,6.28-.63s1.77-34.52-3.13-47.7c-3.93-10.56-29.69-11.47-29.69-11.47Z"/><rect class="cls-68" x="287.79" y="272.54" width="19.23" height="3.96" rx="1.98"/><rect class="cls-54" x="278.61" y="270.67" width="21.46" height="7.08" rx="3.54"/><path class="cls-67" d="M350.31,303.77l5.35-.25c2.73-.4,5.35,3.25,6.42,6.15a.62.62,0,0,1-.67.82,79.87,79.87,0,0,1-10.32-2.42Z"/><polygon class="cls-76" points="338.67 258.13 335.9 265.31 329.9 260.96 333.95 252.5 338.67 258.13"/><path class="cls-67" d="M340.93,259.32a4.08,4.08,0,0,0,2.34-.06c3.48-3.33,2.63-14.42,2.63-14.42L342,242.15l-6.13,2.24-1.78,7a5.82,5.82,0,0,0,1.41,5.34h0A11.46,11.46,0,0,0,340.93,259.32Z"/><path class="cls-54" d="M337,246.73a2.39,2.39,0,0,1,3-1.19,19.39,19.39,0,0,0,2.87.88c2.41.5,6.89.46,7.65-3.2s-4-3.35-4-3.35l-6.32.44a11.63,11.63,0,0,1-5.45-1c-1.52-.66-2.86.75-3.19,1.69-.71,2.06,0,5.59.65,7.86A11.45,11.45,0,0,0,334,252.5h0Z"/><path class="cls-67" d="M333.42,248.3a1.86,1.86,0,0,1,2.2.67c.58.73.53,1.61-.1,2a1.83,1.83,0,0,1-2.2-.66C332.74,249.55,332.78,248.66,333.42,248.3Z"/><path class="cls-77" d="M337.22,263.3s.76-1.18-6-4.7c-10.24,10.25-13.6,49.46-13.6,49.46h26.78C345.27,285.68,337.22,263.3,337.22,263.3Z"/><path class="cls-77" d="M334.32,276.11a53.81,53.81,0,0,0-7.92,9.25,3.51,3.51,0,0,0,.31,4.14c5.58,6.43,25.46,12.6,25.46,12.6l-1.29,7.25s-28.2-5.55-38.19-15.57C302.43,283.5,328.94,262,328.94,262"/><path class="cls-74" d="M326.74,285.57a3.07,3.07,0,0,0,.28,3.67c2.54,2.93,9.33,6.06,15.25,8.33,0,.37,0,.39,0,.82-6.22-2.33-13.08-5.43-15.85-8.63a3.88,3.88,0,0,1-.36-4.62,54.91,54.91,0,0,1,8-9.33l.53.59A53.68,53.68,0,0,0,326.74,285.57Z"/><path class="cls-74" d="M318.57,297.81c10.83,5.84,26.7,10,32.37,11.21a6.29,6.29,0,0,1-.17.77c-5.45-1.11-21.18-5.15-32.31-11.07A6.66,6.66,0,0,1,318.57,297.81Z"/><path class="cls-68" d="M346.72,336.71H305v-3.77H343V313.61A13.67,13.67,0,0,0,329.3,300H306.42V296.2H329.3a17.44,17.44,0,0,1,17.42,17.41Z"/><ellipse class="cls-71" cx="345.1" cy="384.21" rx="5.72" ry="5.97"/><path class="cls-54" d="M345.16,376.12a8.7,8.7,0,1,0,8.33,8.69A8.52,8.52,0,0,0,345.16,376.12Zm0,13.95a5.26,5.26,0,1,1,5-5.26A5.15,5.15,0,0,1,345.16,390.07Z"/><path class="cls-68" d="M344.84,386.91h0a2,2,0,0,1-1.88-2V335.22h3.76V384.9A2,2,0,0,1,344.84,386.91Z"/><rect class="cls-68" x="303.98" y="317.76" width="1.69" height="66.33" rx="0.84"/><path class="cls-68" d="M336.7,351.15l0-.36c-.05-.45-.08-.89-.1-1.33H276.83c0,.17,0,.34,0,.5,0,.39,0,.79,0,1.19Z"/><rect class="cls-68" x="303.98" y="317.14" width="1.69" height="66.33" rx="0.84" transform="translate(336.98 -112.94) rotate(45)"/><rect class="cls-68" x="303.98" y="317.14" width="1.69" height="66.33" rx="0.84" transform="translate(768.07 382.47) rotate(135)"/><rect class="cls-68" x="303.98" y="317.14" width="1.69" height="66.33" rx="0.84" transform="translate(712.58 572.48) rotate(159.61)"/><rect class="cls-68" x="271.65" y="349.46" width="66.33" height="1.69" rx="0.53" transform="translate(-129.45 514.74) rotate(-69.71)"/><path class="cls-68" d="M334.75,362.54l-56.89-25c-.08.57-.18,1.15-.28,1.72l56.49,24.84a.85.85,0,0,0,.68-1.55Z"/><path class="cls-68" d="M334,336.85l-58,24.9a14.77,14.77,0,0,0,.17,1.76l58.41-25.07A6.83,6.83,0,0,1,334,336.85Z"/><ellipse class="cls-68" cx="306.43" cy="350.05" rx="5.75" ry="6.9"/><path class="cls-69" d="M305.45,312c-17.83,0-32.29,17.4-32.29,38.87s14.46,38.87,32.29,38.87,32.29-17.4,32.29-38.87S323.28,312,305.45,312Zm0,72.24c-15.31,0-27.72-14.94-27.72-33.37s12.41-33.37,27.72-33.37,27.72,14.94,27.72,33.37S320.76,384.25,305.45,384.25Z"/><path class="cls-54" d="M305.45,312c-17.83,0-32.29,17.4-32.29,38.87s14.46,38.87,32.29,38.87,32.29-17.4,32.29-38.87S323.28,312,305.45,312Zm0,72.24c-15.31,0-27.72-14.94-27.72-33.37s12.41-33.37,27.72-33.37,27.72,14.94,27.72,33.37S320.76,384.25,305.45,384.25Z"/><path class="cls-68" d="M305.45,317.65c-15.31,0-27.72,14.88-27.72,33.23s12.41,33.23,27.72,33.23,27.72-14.88,27.72-33.23S320.76,317.65,305.45,317.65Zm0,65c-14.63,0-26.49-14.21-26.49-31.75s11.86-31.76,26.49-31.76,26.49,14.22,26.49,31.76S320.08,382.63,305.45,382.63Z"/><ellipse class="cls-54" cx="304.82" cy="350.05" rx="5.75" ry="6.9"/><path class="cls-68" d="M302.59,350.05a2.27,2.27,0,1,0,2.23-2.68A2.49,2.49,0,0,0,302.59,350.05Z"/><rect class="cls-54" x="454.71" y="106.45" width="160" height="50" rx="5"/><path class="cls-78" d="M475.84,127.45l-.88-2.89h-4.43l-.88,2.89h-2.77l4.28-12.19h3.15l4.3,12.19Zm-1.5-5c-.81-2.61-1.27-4.09-1.37-4.44s-.18-.61-.22-.81c-.18.71-.71,2.46-1.57,5.25Z"/><path class="cls-78" d="M483.66,127.62q-4.34,0-4.33-4.76a5.12,5.12,0,0,1,1.17-3.62,4.45,4.45,0,0,1,3.38-1.24,6.43,6.43,0,0,1,2.89.63l-.75,2a8.87,8.87,0,0,0-1.11-.4,3.62,3.62,0,0,0-1-.15c-1.31,0-2,.93-2,2.8s.66,2.73,2,2.73a4.56,4.56,0,0,0,1.36-.2,4.75,4.75,0,0,0,1.24-.61v2.17a4.07,4.07,0,0,1-1.24.54A6.93,6.93,0,0,1,483.66,127.62Z"/><path class="cls-78" d="M492.26,127.62q-4.33,0-4.33-4.76a5.08,5.08,0,0,1,1.18-3.62,4.42,4.42,0,0,1,3.38-1.24,6.41,6.41,0,0,1,2.88.63l-.74,2a10.18,10.18,0,0,0-1.11-.4,3.72,3.72,0,0,0-1-.15c-1.32,0-2,.93-2,2.8s.66,2.73,2,2.73a4.54,4.54,0,0,0,1.35-.2,4.75,4.75,0,0,0,1.24-.61v2.17a4,4,0,0,1-1.24.54A6.87,6.87,0,0,1,492.26,127.62Z"/><path class="cls-78" d="M501.3,127.62a4.82,4.82,0,0,1-3.51-1.24,4.69,4.69,0,0,1-1.26-3.5,5.14,5.14,0,0,1,1.17-3.61,4.14,4.14,0,0,1,3.22-1.27,4.09,4.09,0,0,1,3.07,1.12,4.22,4.22,0,0,1,1.09,3.09v1.23h-6a2.42,2.42,0,0,0,.64,1.69,2.23,2.23,0,0,0,1.67.6,7.38,7.38,0,0,0,1.59-.17,7.75,7.75,0,0,0,1.56-.56v2a5.68,5.68,0,0,1-1.42.49A8.73,8.73,0,0,1,501.3,127.62Zm-.36-7.82a1.59,1.59,0,0,0-1.26.51,2.36,2.36,0,0,0-.53,1.45h3.56a2.13,2.13,0,0,0-.49-1.45A1.66,1.66,0,0,0,500.94,119.8Z"/><path class="cls-78" d="M513.71,124.69a2.54,2.54,0,0,1-1,2.18,4.87,4.87,0,0,1-3,.75,9.44,9.44,0,0,1-1.73-.14,7,7,0,0,1-1.34-.4V125a8.22,8.22,0,0,0,1.59.56,6.4,6.4,0,0,0,1.56.22c.92,0,1.38-.26,1.38-.79a.66.66,0,0,0-.19-.49,2.8,2.8,0,0,0-.63-.42c-.29-.16-.69-.34-1.19-.55a7.73,7.73,0,0,1-1.57-.83,2.31,2.31,0,0,1-.73-.88,2.75,2.75,0,0,1-.23-1.21,2.21,2.21,0,0,1,1-1.92,4.67,4.67,0,0,1,2.72-.67,7.7,7.7,0,0,1,3.26.73l-.77,1.82c-.46-.2-.9-.36-1.3-.49a4,4,0,0,0-1.24-.19c-.74,0-1.12.2-1.12.61a.73.73,0,0,0,.36.59,10.84,10.84,0,0,0,1.58.74,7,7,0,0,1,1.6.82,2.32,2.32,0,0,1,.75.88A2.67,2.67,0,0,1,513.71,124.69Z"/><path class="cls-78" d="M522.22,124.69a2.56,2.56,0,0,1-1,2.18,4.89,4.89,0,0,1-3,.75,9.52,9.52,0,0,1-1.73-.14,6.86,6.86,0,0,1-1.33-.4V125a8.22,8.22,0,0,0,1.59.56,6.39,6.39,0,0,0,1.55.22c.92,0,1.38-.26,1.38-.79a.69.69,0,0,0-.18-.49,2.8,2.8,0,0,0-.63-.42c-.3-.16-.7-.34-1.2-.55a8,8,0,0,1-1.57-.83,2.41,2.41,0,0,1-.73-.88,2.9,2.9,0,0,1-.23-1.21,2.21,2.21,0,0,1,1-1.92,4.69,4.69,0,0,1,2.72-.67,7.66,7.66,0,0,1,3.26.73l-.76,1.82c-.47-.2-.9-.36-1.31-.49a4,4,0,0,0-1.23-.19c-.75,0-1.12.2-1.12.61a.73.73,0,0,0,.36.59,10.84,10.84,0,0,0,1.58.74,6.88,6.88,0,0,1,1.59.82,2.32,2.32,0,0,1,.75.88A2.67,2.67,0,0,1,522.22,124.69Z"/><path class="cls-78" d="M524.06,115.77c0-.82.46-1.24,1.37-1.24s1.38.42,1.38,1.24a1.21,1.21,0,0,1-.34.92,1.46,1.46,0,0,1-1,.33C524.52,117,524.06,116.6,524.06,115.77Zm2.63,11.68h-2.53v-9.28h2.53Z"/><path class="cls-78" d="M534.37,118a3,3,0,0,1,2.58,1.28,5.85,5.85,0,0,1,.93,3.51,5.76,5.76,0,0,1-1,3.56,3.34,3.34,0,0,1-5.18.08h-.17l-.43,1h-1.93V114.53h2.53v3c0,.38,0,1-.1,1.83h.1A2.92,2.92,0,0,1,534.37,118Zm-.81,2a1.6,1.6,0,0,0-1.37.58,3.27,3.27,0,0,0-.45,1.9v.28a3.87,3.87,0,0,0,.45,2.14,1.57,1.57,0,0,0,1.4.65,1.4,1.4,0,0,0,1.24-.72,3.88,3.88,0,0,0,.46-2.09,3.66,3.66,0,0,0-.46-2.05A1.45,1.45,0,0,0,533.56,120Z"/><path class="cls-78" d="M539.8,115.77c0-.82.46-1.24,1.38-1.24s1.38.42,1.38,1.24a1.22,1.22,0,0,1-.35.92,1.43,1.43,0,0,1-1,.33C540.26,117,539.8,116.6,539.8,115.77Zm2.64,11.68h-2.53v-9.28h2.53Z"/><path class="cls-78" d="M547.48,127.45h-2.54V114.53h2.54Z"/><path class="cls-78" d="M549.88,115.77c0-.82.46-1.24,1.38-1.24s1.38.42,1.38,1.24a1.25,1.25,0,0,1-.34.92,1.46,1.46,0,0,1-1,.33C550.34,117,549.88,116.6,549.88,115.77Zm2.64,11.68H550v-9.28h2.53Z"/><path class="cls-78" d="M559,125.6a5.61,5.61,0,0,0,1.59-.29v1.88a5.69,5.69,0,0,1-2.32.43,2.87,2.87,0,0,1-2.22-.77,3.36,3.36,0,0,1-.69-2.31v-4.47h-1.21V119l1.4-.85.73-2h1.61v2h2.6v1.9h-2.6v4.47a1,1,0,0,0,.31.8A1.2,1.2,0,0,0,559,125.6Z"/><path class="cls-78" d="M561.51,118.17h2.77l1.75,5.22a6.87,6.87,0,0,1,.31,1.61h0a6.88,6.88,0,0,1,.36-1.61l1.72-5.22h2.71l-3.93,10.47a4.42,4.42,0,0,1-1.54,2.17,3.86,3.86,0,0,1-2.33.72,5.54,5.54,0,0,1-1.29-.14v-2a4,4,0,0,0,1,.11,1.74,1.74,0,0,0,1.17-.41,2.64,2.64,0,0,0,.79-1.24l.15-.46Z"/><path class="cls-78" d="M582.05,120.07h-2.19v7.38h-2.53v-7.38h-1.39v-1.22l1.39-.68v-.68a3.05,3.05,0,0,1,.78-2.32,3.61,3.61,0,0,1,2.5-.73,6.5,6.5,0,0,1,2.33.39l-.64,1.86a4.75,4.75,0,0,0-1.42-.24.92.92,0,0,0-.78.32,1.33,1.33,0,0,0-.24.82v.58h2.19Z"/><path class="cls-78" d="M592,122.79a5,5,0,0,1-1.2,3.55,4.32,4.32,0,0,1-3.32,1.28,4.67,4.67,0,0,1-2.36-.59,3.93,3.93,0,0,1-1.57-1.68,5.58,5.58,0,0,1-.55-2.56,5,5,0,0,1,1.19-3.53,4.36,4.36,0,0,1,3.34-1.26,4.63,4.63,0,0,1,2.35.58,3.82,3.82,0,0,1,1.57,1.66A5.57,5.57,0,0,1,592,122.79Zm-6.42,0a3.83,3.83,0,0,0,.46,2.09,1.88,1.88,0,0,0,2.93,0,4,4,0,0,0,.44-2.09,3.79,3.79,0,0,0-.45-2.06,1.91,1.91,0,0,0-2.93,0A3.83,3.83,0,0,0,585.56,122.79Z"/><path class="cls-78" d="M599.16,118a4.14,4.14,0,0,1,.86.07l-.19,2.37a3.25,3.25,0,0,0-.75-.08,2.71,2.71,0,0,0-1.89.62,2.27,2.27,0,0,0-.67,1.75v4.72H594v-9.28h1.92l.38,1.56h.12a3.54,3.54,0,0,1,1.17-1.26A2.84,2.84,0,0,1,599.16,118Z"/><path class="cls-78" d="M484.93,146.45H482l-1.65-6.38c-.06-.22-.16-.69-.31-1.4s-.23-1.19-.25-1.43c0,.29-.12.77-.25,1.44s-.24,1.13-.31,1.41l-1.63,6.36h-2.93l-3.09-12.14h2.53l1.55,6.63c.27,1.22.47,2.28.59,3.18,0-.32.11-.81.23-1.47a15.44,15.44,0,0,1,.34-1.54l1.76-6.8H481l1.76,6.8c.08.31.18.77.29,1.4s.21,1.16.27,1.61c.06-.43.14-1,.27-1.62s.23-1.16.33-1.56l1.54-6.63H488Z"/><path class="cls-78" d="M493.25,146.62a4.82,4.82,0,0,1-3.51-1.24,4.69,4.69,0,0,1-1.26-3.5,5.14,5.14,0,0,1,1.17-3.61,4.14,4.14,0,0,1,3.22-1.27,4.08,4.08,0,0,1,3.07,1.12,4.22,4.22,0,0,1,1.09,3.09v1.23h-6a2.42,2.42,0,0,0,.64,1.69,2.23,2.23,0,0,0,1.67.6,7.38,7.38,0,0,0,1.59-.17,7.75,7.75,0,0,0,1.56-.56v2a5.68,5.68,0,0,1-1.42.49A8.73,8.73,0,0,1,493.25,146.62Zm-.36-7.82a1.59,1.59,0,0,0-1.26.51,2.3,2.3,0,0,0-.52,1.45h3.55a2.13,2.13,0,0,0-.49-1.45A1.66,1.66,0,0,0,492.89,138.8Z"/><path class="cls-78" d="M504.25,137a3,3,0,0,1,2.58,1.28,5.85,5.85,0,0,1,.93,3.51,5.76,5.76,0,0,1-1,3.56,3.34,3.34,0,0,1-5.18.08h-.17l-.43,1h-1.93V133.53h2.53v3c0,.38,0,1-.1,1.83h.1A2.92,2.92,0,0,1,504.25,137Zm-.81,2a1.6,1.6,0,0,0-1.37.58,3.27,3.27,0,0,0-.45,1.9v.28a3.87,3.87,0,0,0,.45,2.14,1.57,1.57,0,0,0,1.4.65,1.4,1.4,0,0,0,1.24-.72,3.88,3.88,0,0,0,.46-2.09,3.66,3.66,0,0,0-.46-2A1.45,1.45,0,0,0,503.44,139Z"/><path class="cls-78" d="M516.36,143.69a2.56,2.56,0,0,1-1,2.18,4.89,4.89,0,0,1-3,.75,9.33,9.33,0,0,1-1.72-.14,6.76,6.76,0,0,1-1.34-.4V144a8.22,8.22,0,0,0,1.59.56,6.39,6.39,0,0,0,1.55.22c.92,0,1.38-.26,1.38-.79a.69.69,0,0,0-.18-.49,2.8,2.8,0,0,0-.63-.42c-.3-.16-.7-.34-1.2-.55a8,8,0,0,1-1.57-.83,2.41,2.41,0,0,1-.73-.88,2.9,2.9,0,0,1-.23-1.21,2.21,2.21,0,0,1,1-1.92A4.69,4.69,0,0,1,513,137a7.63,7.63,0,0,1,3.26.73l-.76,1.82c-.47-.2-.9-.36-1.3-.49a4.06,4.06,0,0,0-1.24-.19c-.75,0-1.12.2-1.12.61a.73.73,0,0,0,.36.59,10.84,10.84,0,0,0,1.58.74,6.68,6.68,0,0,1,1.59.82,2.32,2.32,0,0,1,.75.88A2.67,2.67,0,0,1,516.36,143.69Z"/><path class="cls-78" d="M518.2,134.77c0-.82.46-1.24,1.37-1.24s1.38.42,1.38,1.24a1.21,1.21,0,0,1-.34.92,1.46,1.46,0,0,1-1,.33C518.66,136,518.2,135.6,518.2,134.77Zm2.64,11.68h-2.53v-9.28h2.53Z"/><path class="cls-78" d="M527.28,144.6a5.61,5.61,0,0,0,1.59-.29v1.88a5.69,5.69,0,0,1-2.32.43,2.85,2.85,0,0,1-2.21-.77,3.36,3.36,0,0,1-.7-2.31v-4.47h-1.21V138l1.4-.85.73-2h1.62v2h2.59v1.9h-2.59v4.47a1,1,0,0,0,.3.8A1.2,1.2,0,0,0,527.28,144.6Z"/><path class="cls-78" d="M534.83,146.62a4.83,4.83,0,0,1-3.51-1.24,4.69,4.69,0,0,1-1.26-3.5,5.14,5.14,0,0,1,1.17-3.61,4.14,4.14,0,0,1,3.22-1.27,4.08,4.08,0,0,1,3.07,1.12,4.22,4.22,0,0,1,1.09,3.09v1.23h-6a2.46,2.46,0,0,0,.64,1.69,2.25,2.25,0,0,0,1.67.6,7.38,7.38,0,0,0,1.59-.17,7.75,7.75,0,0,0,1.56-.56v2a5.68,5.68,0,0,1-1.42.49A8.73,8.73,0,0,1,534.83,146.62Zm-.36-7.82a1.59,1.59,0,0,0-1.26.51,2.3,2.3,0,0,0-.52,1.45h3.55a2.08,2.08,0,0,0-.49-1.45A1.66,1.66,0,0,0,534.47,138.8Z"/><path class="cls-78" d="M547.24,143.69a2.56,2.56,0,0,1-1,2.18,4.91,4.91,0,0,1-3,.75,9.44,9.44,0,0,1-1.73-.14,6.86,6.86,0,0,1-1.33-.4V144a8.22,8.22,0,0,0,1.59.56,6.27,6.27,0,0,0,1.55.22c.92,0,1.38-.26,1.38-.79a.69.69,0,0,0-.18-.49,3.06,3.06,0,0,0-.63-.42c-.3-.16-.7-.34-1.2-.55a7.73,7.73,0,0,1-1.57-.83,2.31,2.31,0,0,1-.73-.88,2.75,2.75,0,0,1-.23-1.21,2.21,2.21,0,0,1,1-1.92,4.67,4.67,0,0,1,2.72-.67,7.7,7.7,0,0,1,3.26.73l-.77,1.82a13.43,13.43,0,0,0-1.3-.49,4,4,0,0,0-1.24-.19c-.74,0-1.12.2-1.12.61a.73.73,0,0,0,.36.59,11.13,11.13,0,0,0,1.59.74,7.1,7.1,0,0,1,1.59.82,2.32,2.32,0,0,1,.75.88A2.67,2.67,0,0,1,547.24,143.69Z"/><path class="cls-78" d="M553,141.79a12.78,12.78,0,0,1,.65-4.11,10.12,10.12,0,0,1,1.85-3.37h2.08a12.13,12.13,0,0,0-1.77,3.52,13.18,13.18,0,0,0-.6,3.95,12.71,12.71,0,0,0,.61,3.93,12,12,0,0,0,1.74,3.43h-2.06a9.89,9.89,0,0,1-1.86-3.3A12.37,12.37,0,0,1,553,141.79Z"/><path class="cls-78" d="M564.54,146.45l-.49-1.26H564a3.76,3.76,0,0,1-1.32,1.11,4.19,4.19,0,0,1-1.76.32,2.86,2.86,0,0,1-2.11-.77,2.93,2.93,0,0,1-.77-2.17,2.45,2.45,0,0,1,1-2.18,6,6,0,0,1,3.11-.78l1.61-.05v-.4a1.26,1.26,0,0,0-1.44-1.42,6.56,6.56,0,0,0-2.61.68l-.84-1.71a7.53,7.53,0,0,1,3.55-.84,4.43,4.43,0,0,1,2.86.81,3,3,0,0,1,1,2.48v6.18Zm-.75-4.3-1,0a3.26,3.26,0,0,0-1.65.4,1.26,1.26,0,0,0-.54,1.11c0,.72.41,1.07,1.23,1.07a1.93,1.93,0,0,0,1.41-.5,1.79,1.79,0,0,0,.52-1.35Z"/><path class="cls-78" d="M573.83,146.45h-2.56v-7l0-1.16,0-1.26c-.42.43-.72.71-.88.84l-1.4,1.12-1.23-1.54,3.91-3.12h2.1Z"/><path class="cls-78" d="M582.65,146.45h-2.57v-7l0-1.16,0-1.26a11.84,11.84,0,0,1-.89.84L577.87,139l-1.24-1.54,3.91-3.12h2.11Z"/><path class="cls-78" d="M584.83,137.17h2.77l1.75,5.22a7.42,7.42,0,0,1,.31,1.61h.05a6.88,6.88,0,0,1,.36-1.61l1.71-5.22h2.72l-3.93,10.47a4.48,4.48,0,0,1-1.54,2.17,3.86,3.86,0,0,1-2.33.72,5.54,5.54,0,0,1-1.29-.14v-2a3.93,3.93,0,0,0,1,.11,1.76,1.76,0,0,0,1.17-.41,2.55,2.55,0,0,0,.78-1.24l.15-.46Z"/><path class="cls-78" d="M599.41,141.79a12.49,12.49,0,0,1-.64,4.07,9.7,9.7,0,0,1-1.86,3.28h-2a12.23,12.23,0,0,0,1.73-3.42,12.73,12.73,0,0,0,.61-3.94,13.17,13.17,0,0,0-.59-3.95,12.13,12.13,0,0,0-1.77-3.52h2.07a10,10,0,0,1,1.86,3.38A12.81,12.81,0,0,1,599.41,141.79Z"/><circle class="cls-71" cx="651.98" cy="110.74" r="30" transform="translate(24.81 320.49) rotate(-28.13)"/><path class="cls-78" d="M655.94,102.48a22.1,22.1,0,0,0-4.08-5.18,2,2,0,0,1-.1-2.81l.08-.09a2.35,2.35,0,0,1,3.29,0,26.14,26.14,0,0,1,4.6,5.74Z"/><path class="cls-78" d="M657.78,127.59a2.34,2.34,0,0,1-3.26.35l-.1-.07a2,2,0,0,1-.35-2.79,20,20,0,0,0,4.45-14.22c0-.06,0-.11,0-.17l4.21-2.68a24.61,24.61,0,0,1,.35,2.58A24.12,24.12,0,0,1,657.78,127.59Z"/><path class="cls-78" d="M649.65,106.44a14.45,14.45,0,0,0-2.79-3.89,2,2,0,0,1-.08-2.8v0a2.37,2.37,0,0,1,3.33,0,18.69,18.69,0,0,1,3.29,4.38Z"/><path class="cls-78" d="M655.53,112.58A17.3,17.3,0,0,1,652,122.91a2.34,2.34,0,0,1-3.29.37h0a2,2,0,0,1-.36-2.79,13.77,13.77,0,0,0,2.31-4.78Z"/><path class="cls-78" d="M647,108.12l-4,2.51a7,7,0,0,0-1.37-2.67,2.09,2.09,0,0,1,0-2.83h0a2.39,2.39,0,0,1,3.48.11A11.42,11.42,0,0,1,647,108.12Z"/><path class="cls-78" d="M669.64,100l-1.29-1.76a1.06,1.06,0,0,0-1.41-.26L633.81,118.9a.91.91,0,0,0-.27,1.34l1.35,1.78a1.11,1.11,0,0,0,1.46.25l33-20.92A.91.91,0,0,0,669.64,100Z"/><circle class="cls-71" cx="705.44" cy="293.78" r="40" transform="translate(-55.18 367.33) rotate(-28.13)"/><path class="cls-78" d="M729.84,298.83a1.3,1.3,0,0,1-1.3,1.33l-6.1,0a1.35,1.35,0,0,1-1.31-1.36h0a1.33,1.33,0,0,1,1.31-1.34l6.1,0a1.34,1.34,0,0,1,1.3,1.36Z"/><path class="cls-78" d="M726.38,290a1.39,1.39,0,0,1-.72,1.81L723,293.17a1.34,1.34,0,0,1-1.86-.48v0a1.5,1.5,0,0,1,.67-1.92l2.65-1.37a1.44,1.44,0,0,1,1.91.59Z"/><path class="cls-78" d="M725.51,308a1.43,1.43,0,0,0-.72-1.83l-2.65-1.4a1.33,1.33,0,0,0-1.86.46l0,0a1.52,1.52,0,0,0,.68,1.93l2.65,1.4a1.43,1.43,0,0,0,1.91-.56Z"/><path class="cls-78" d="M706.21,270.79a13,13,0,0,0-13.14,12.43l0,0v.35c0,.14,0,.29,0,.43a13.65,13.65,0,0,0,.2,2.33l0,.22,1.4,20.1h0a12.59,12.59,0,0,0,.64,3.56c1.22,3.82,4.35,6.53,8,6.52a7.45,7.45,0,0,0,5-2,9.82,9.82,0,0,0,3.06-5,11.88,11.88,0,0,0,.27-2.46,11.36,11.36,0,0,1,.19-1.83c.51-2.74,1.95-5.32,3-7.84,1.77-4.26,4.41-8.51,4.41-13.3A13.47,13.47,0,0,0,706.21,270.79Zm5.42,16.52a1.22,1.22,0,0,1-1.43-.95c0-.22-1.22-5.27-6-5.34a4.22,4.22,0,0,0-4,2.74,6.57,6.57,0,0,0,.76,6.6l.77.84c2.6,2.84,6.53,7.12,6.16,11.62a8,8,0,0,1-3.46,5.71,1.25,1.25,0,0,1-.73.24,1.22,1.22,0,0,1-1-.49,1.25,1.25,0,0,1,.25-1.73,5.64,5.64,0,0,0,2.51-3.95c.28-3.41-3.21-7.2-5.53-9.72l-.78-.86a9.08,9.08,0,0,1-1.2-9.28,6.53,6.53,0,0,1,6.26-4.19c5.37.08,7.8,4.81,8.33,7.3A1.22,1.22,0,0,1,711.63,287.31Z"/><circle class="cls-71" cx="254.56" cy="194.87" r="40" transform="translate(-61.81 143.05) rotate(-28.13)"/><path class="cls-78" d="M260.26,194.92a5.36,5.36,0,0,1-5.47,5.29,5.46,5.46,0,0,1-5.48-5.38,5.35,5.35,0,0,1,5.48-5.29A5.47,5.47,0,0,1,260.26,194.92Z"/><path class="cls-78" d="M254.79,183.15a27.73,27.73,0,0,0-23.23,11.54,28.26,28.26,0,0,0,23.23,11.91,27.29,27.29,0,0,0,22.77-11.55A27.81,27.81,0,0,0,254.79,183.15Zm0,21.08a9.58,9.58,0,0,1-9.64-9.43,9.39,9.39,0,0,1,9.64-9.28,9.57,9.57,0,0,1,9.56,9.43A9.39,9.39,0,0,1,254.79,204.23Z"/><path class="cls-78" d="M260.26,194.92a5.36,5.36,0,0,1-5.47,5.29,5.46,5.46,0,0,1-5.48-5.38,5.35,5.35,0,0,1,5.48-5.29A5.47,5.47,0,0,1,260.26,194.92Z"/><path class="cls-79" d="M489.94,203.62H459V172.7h30.92Zm-26.51-4.42h22.09V177.11H463.43Z"/><polyline class="cls-80" points="496.35 173.57 477.3 193.9 469.85 184.96"/><path class="cls-54" d="M516.07,193.41h-2.59L512,187.78c0-.2-.14-.62-.27-1.25s-.21-1.05-.23-1.26c0,.26-.1.69-.21,1.27s-.21,1-.28,1.25l-1.44,5.62H507l-2.74-10.72h2.24l1.37,5.85c.24,1.08.41,2,.52,2.81,0-.28.1-.71.2-1.3s.21-1,.3-1.36l1.56-6h2.15l1.56,6c.07.27.16.68.26,1.24s.18,1,.23,1.42c.05-.38.13-.86.24-1.43s.2-1,.29-1.38l1.37-5.85h2.23Z"/><path class="cls-54" d="M527,185.09a2.46,2.46,0,0,1-.61,1.7,3.08,3.08,0,0,1-1.7,1v.05a3.34,3.34,0,0,1,2,.79,2.18,2.18,0,0,1,.67,1.69,2.86,2.86,0,0,1-1.12,2.4,5.15,5.15,0,0,1-3.21.87,7.88,7.88,0,0,1-3.09-.58v-1.93a6.71,6.71,0,0,0,1.37.51,5.85,5.85,0,0,0,1.48.2,2.93,2.93,0,0,0,1.66-.38,1.42,1.42,0,0,0,.53-1.23,1.1,1.1,0,0,0-.61-1.07,4.6,4.6,0,0,0-2-.31h-.81V187h.82a3.84,3.84,0,0,0,1.83-.33,1.17,1.17,0,0,0,.57-1.12c0-.81-.51-1.21-1.52-1.21a3.79,3.79,0,0,0-1.08.17,5.27,5.27,0,0,0-1.21.61l-1-1.56a5.85,5.85,0,0,1,3.5-1.06,4.51,4.51,0,0,1,2.63.68A2.16,2.16,0,0,1,527,185.09Z"/><path class="cls-54" d="M533.82,184.43a2.32,2.32,0,0,0-2,1,4.48,4.48,0,0,0-.7,2.69c0,2.39.89,3.58,2.69,3.58a8.37,8.37,0,0,0,2.73-.56V193a7.71,7.71,0,0,1-2.95.55,4.52,4.52,0,0,1-3.58-1.42,6.06,6.06,0,0,1-1.23-4.08,6.75,6.75,0,0,1,.6-2.93,4.49,4.49,0,0,1,1.75-1.93,5.25,5.25,0,0,1,2.68-.67,7.31,7.31,0,0,1,3.14.76l-.74,1.85a11.43,11.43,0,0,0-1.21-.5A3.6,3.6,0,0,0,533.82,184.43Z"/><path class="cls-79" d="M489.94,243.38H459V212.46h30.92ZM463.43,239h22.09V216.87H463.43Z"/><polyline class="cls-80" points="496.35 213.34 477.3 233.66 469.85 224.72"/><path class="cls-54" d="M512.91,233.17l-.78-2.55h-3.91l-.78,2.55H505l3.79-10.77h2.78l3.8,10.77Zm-1.32-4.46c-.72-2.31-1.13-3.62-1.22-3.92s-.15-.55-.19-.72q-.24.93-1.39,4.64Z"/><path class="cls-54" d="M525.79,227.71a5.26,5.26,0,0,1-1.51,4,6.14,6.14,0,0,1-4.35,1.41h-3V222.45h3.37a5.69,5.69,0,0,1,4.08,1.38A5.15,5.15,0,0,1,525.79,227.71Zm-2.36.06q0-3.47-3.06-3.46h-1.21v7h1Q523.43,231.29,523.43,227.77Z"/><path class="cls-54" d="M534.31,233.17l-.78-2.55h-3.9l-.78,2.55H526.4l3.78-10.77H533l3.8,10.77ZM533,228.71c-.72-2.31-1.12-3.62-1.21-3.92s-.16-.55-.2-.72q-.24.93-1.38,4.64Z"/><path class="cls-79" d="M489.94,283.14H459V252.22h30.92Zm-26.51-4.41h22.09V256.64H463.43Z"/><polyline class="cls-80" points="496.35 253.1 477.3 273.42 469.85 264.49"/><path class="cls-54" d="M516.05,272.27h-2.59L512,266.64c-.05-.2-.14-.61-.27-1.24a10.79,10.79,0,0,1-.22-1.27c0,.27-.11.69-.22,1.27s-.21,1-.28,1.25l-1.44,5.62H507l-2.74-10.72h2.24l1.37,5.85c.24,1.08.41,2,.52,2.81,0-.28.1-.71.2-1.29s.21-1,.3-1.36l1.56-6h2.15l1.56,6c.07.27.16.68.26,1.23s.18,1,.23,1.42c.05-.38.13-.85.24-1.42s.2-1,.29-1.39l1.37-5.85h2.23Z"/><path class="cls-54" d="M524.58,263.29a2.31,2.31,0,0,0-2,1,4.5,4.5,0,0,0-.71,2.69q0,3.58,2.69,3.59a8.42,8.42,0,0,0,2.74-.57v1.91a7.53,7.53,0,0,1-3,.55,4.49,4.49,0,0,1-3.58-1.42,6,6,0,0,1-1.24-4.07,6.55,6.55,0,0,1,.61-2.93,4.38,4.38,0,0,1,1.75-1.93,5.14,5.14,0,0,1,2.67-.67,7.26,7.26,0,0,1,3.14.75L527,264a11.43,11.43,0,0,0-1.21-.5A3.7,3.7,0,0,0,524.58,263.29Z"/><path class="cls-54" d="M536.53,272.27l-.77-2.55h-3.91l-.78,2.55h-2.45l3.78-10.76h2.78l3.8,10.76Zm-1.32-4.46c-.72-2.31-1.12-3.62-1.21-3.92a6.63,6.63,0,0,1-.19-.72c-.17.63-.63,2.17-1.39,4.64Z"/><path class="cls-54" d="M544.19,266.25h4.25v5.56a11.43,11.43,0,0,1-2,.47,12.62,12.62,0,0,1-1.86.14,4.73,4.73,0,0,1-3.71-1.43,5.93,5.93,0,0,1-1.28-4.09,5.41,5.41,0,0,1,1.49-4,5.62,5.62,0,0,1,4.11-1.45,8,8,0,0,1,3.19.66l-.76,1.82a5.29,5.29,0,0,0-2.44-.59,3,3,0,0,0-2.36,1,3.8,3.8,0,0,0-.89,2.66,4.33,4.33,0,0,0,.71,2.67,2.49,2.49,0,0,0,2.08.92,7.21,7.21,0,0,0,1.45-.15v-2.24h-2Z"/><path class="cls-79" d="M489.94,323.14H459V292.22h30.92Zm-26.51-4.41h22.09V296.64H463.43Z"/><polyline class="cls-80" points="496.35 293.1 477.3 313.42 469.85 304.49"/><path class="cls-54" d="M511.93,301.3a2.77,2.77,0,0,1-1,2.28,4.54,4.54,0,0,1-2.91.84,6.83,6.83,0,0,1-3-.65v-2.11a12.46,12.46,0,0,0,1.84.68,5.1,5.1,0,0,0,1.37.2,2,2,0,0,0,1.15-.28,1,1,0,0,0,.4-.86.94.94,0,0,0-.18-.56,2,2,0,0,0-.51-.47,13.68,13.68,0,0,0-1.39-.72,6.8,6.8,0,0,1-1.48-.89,3.52,3.52,0,0,1-.78-1,3.11,3.11,0,0,1,.67-3.56,4,4,0,0,1,2.67-.81,6.35,6.35,0,0,1,1.59.19,11.69,11.69,0,0,1,1.59.56l-.73,1.77a10.12,10.12,0,0,0-1.42-.49,4.33,4.33,0,0,0-1.11-.14,1.46,1.46,0,0,0-1,.3,1,1,0,0,0-.34.78.93.93,0,0,0,.14.53,1.51,1.51,0,0,0,.44.43,12.78,12.78,0,0,0,1.44.75,5.67,5.67,0,0,1,2.06,1.44A2.86,2.86,0,0,1,511.93,301.3Z"/><path class="cls-54" d="M517.52,304.42a4.21,4.21,0,0,1-3.09-1.09,4.12,4.12,0,0,1-1.12-3.1,4.57,4.57,0,0,1,1-3.19,3.68,3.68,0,0,1,2.85-1.12,3.63,3.63,0,0,1,2.71,1,3.77,3.77,0,0,1,1,2.74v1.08h-5.29a2.14,2.14,0,0,0,.56,1.49,2,2,0,0,0,1.48.53,6.26,6.26,0,0,0,1.4-.15,7.18,7.18,0,0,0,1.38-.49v1.73a5.3,5.3,0,0,1-1.25.44A8.38,8.38,0,0,1,517.52,304.42Zm-.31-6.91a1.43,1.43,0,0,0-1.12.45,2.09,2.09,0,0,0-.46,1.28h3.14a1.91,1.91,0,0,0-.43-1.28A1.48,1.48,0,0,0,517.21,297.51Z"/><path class="cls-54" d="M526.07,304.42q-3.83,0-3.83-4.2a4.51,4.51,0,0,1,1-3.2,3.94,3.94,0,0,1,3-1.1,5.69,5.69,0,0,1,2.55.56l-.66,1.73c-.35-.14-.68-.26-1-.35a3.19,3.19,0,0,0-.91-.14c-1.16,0-1.75.83-1.75,2.48s.59,2.41,1.75,2.41a4.19,4.19,0,0,0,1.2-.17,4.86,4.86,0,0,0,1.1-.54v1.91a3.76,3.76,0,0,1-1.1.48A6.11,6.11,0,0,1,526.07,304.42Z"/><path class="cls-54" d="M534.14,302.64a4.88,4.88,0,0,0,1.41-.26v1.67a5,5,0,0,1-2,.37,2.53,2.53,0,0,1-2-.68,3,3,0,0,1-.61-2v-4h-1.07v-.94l1.23-.75.65-1.73h1.43v1.74h2.29v1.68h-2.29v4a.87.87,0,0,0,.27.7A1,1,0,0,0,534.14,302.64Z"/><path class="cls-54" d="M537,294c0-.72.4-1.09,1.22-1.09s1.21.37,1.21,1.09a1.06,1.06,0,0,1-.3.81,1.25,1.25,0,0,1-.91.29C537.42,295.05,537,294.69,537,294Zm2.33,10.32h-2.24v-8.2h2.24Z"/><path class="cls-54" d="M549.05,300.16a4.42,4.42,0,0,1-1,3.13,3.86,3.86,0,0,1-2.94,1.13,4.08,4.08,0,0,1-2.09-.52,3.41,3.41,0,0,1-1.38-1.48,4.92,4.92,0,0,1-.49-2.26,4.4,4.4,0,0,1,1-3.13,3.86,3.86,0,0,1,3-1.11,4.14,4.14,0,0,1,2.08.51,3.49,3.49,0,0,1,1.39,1.48A5,5,0,0,1,549.05,300.16Zm-5.67,0a3.51,3.51,0,0,0,.4,1.84,1.45,1.45,0,0,0,1.31.62,1.39,1.39,0,0,0,1.28-.62,4.41,4.41,0,0,0,0-3.67,1.45,1.45,0,0,0-1.3-.61,1.43,1.43,0,0,0-1.29.61A3.4,3.4,0,0,0,543.38,300.16Z"/><path class="cls-54" d="M558.4,304.27h-2.24v-4.79a2.31,2.31,0,0,0-.31-1.33,1.17,1.17,0,0,0-1-.44,1.5,1.5,0,0,0-1.35.63,3.85,3.85,0,0,0-.42,2.08v3.85h-2.24v-8.2h1.71l.3,1.05H553a2.44,2.44,0,0,1,1-.9,3.51,3.51,0,0,1,1.49-.3,2.89,2.89,0,0,1,2.17.77,3.13,3.13,0,0,1,.74,2.24Z"/><path class="cls-54" d="M567.94,297.42a3.41,3.41,0,0,1,2.47.88,3.13,3.13,0,0,1,.92,2.39,3.49,3.49,0,0,1-1.1,2.76,4.66,4.66,0,0,1-3.17,1,6.13,6.13,0,0,1-2.89-.58v-2a5.59,5.59,0,0,0,1.35.5,6,6,0,0,0,1.46.2c1.38,0,2.07-.57,2.07-1.7s-.72-1.62-2.15-1.62a5.51,5.51,0,0,0-.86.07,5.93,5.93,0,0,0-.76.17l-.9-.49.4-5.46h5.82v1.92h-3.83l-.2,2.11.26-.05A5,5,0,0,1,567.94,297.42Z"/><path class="cls-54" d="M580.27,298.91a7.52,7.52,0,0,1-.92,4.16,3.21,3.21,0,0,1-2.84,1.35,3.15,3.15,0,0,1-2.8-1.39,7.45,7.45,0,0,1-.94-4.12,7.53,7.53,0,0,1,.92-4.18,3.56,3.56,0,0,1,5.63.06A7.4,7.4,0,0,1,580.27,298.91Zm-5.25,0a8.54,8.54,0,0,0,.34,2.83,1.18,1.18,0,0,0,1.15.85,1.19,1.19,0,0,0,1.15-.86,8.28,8.28,0,0,0,.35-2.82,8,8,0,0,0-.36-2.83,1.19,1.19,0,0,0-2.28,0A8.27,8.27,0,0,0,575,298.91Z"/><path class="cls-54" d="M585.39,293.41a4,4,0,0,1,2.48.7,2.24,2.24,0,0,1,1,1.89,2.48,2.48,0,0,1-.46,1.46,3.87,3.87,0,0,1-1.46,1.15,5.15,5.15,0,0,1,1.72,1.35,2.49,2.49,0,0,1,.53,1.53,2.58,2.58,0,0,1-1,2.13,4.33,4.33,0,0,1-2.72.8,4.52,4.52,0,0,1-2.76-.75,2.49,2.49,0,0,1-1-2.12,2.8,2.8,0,0,1,.49-1.63,4,4,0,0,1,1.57-1.25,3.88,3.88,0,0,1-1.32-1.24A2.72,2.72,0,0,1,582,296a2.24,2.24,0,0,1,.95-1.86A4.1,4.1,0,0,1,585.39,293.41Zm-1.67,8a1.19,1.19,0,0,0,.44,1,1.83,1.83,0,0,0,1.2.35,1.89,1.89,0,0,0,1.26-.36,1.2,1.2,0,0,0,.42-1,1.35,1.35,0,0,0-.41-.92,5.55,5.55,0,0,0-1.35-.91C584.24,300.08,583.72,300.69,583.72,301.42Zm1.66-6.35a1.41,1.41,0,0,0-.94.3,1,1,0,0,0-.35.79,1.21,1.21,0,0,0,.28.79,3.11,3.11,0,0,0,1,.71,2.87,2.87,0,0,0,1-.68,1.27,1.27,0,0,0,.28-.82,1,1,0,0,0-.36-.8A1.5,1.5,0,0,0,585.38,295.07Z"/><path class="cls-54" d="M511.93,316.32a2.77,2.77,0,0,1-1,2.28,4.54,4.54,0,0,1-2.91.84,6.7,6.7,0,0,1-3-.65v-2.11a11.41,11.41,0,0,0,1.84.68,5.1,5.1,0,0,0,1.37.2,2,2,0,0,0,1.15-.28,1,1,0,0,0,.4-.85,1,1,0,0,0-.18-.57,2,2,0,0,0-.51-.47,13.68,13.68,0,0,0-1.39-.72,6.8,6.8,0,0,1-1.48-.89,3.52,3.52,0,0,1-.78-1,3.11,3.11,0,0,1,.67-3.56,4,4,0,0,1,2.67-.81,6.35,6.35,0,0,1,1.59.19,11.69,11.69,0,0,1,1.59.56l-.73,1.77a10.12,10.12,0,0,0-1.42-.49,4.82,4.82,0,0,0-1.11-.14,1.46,1.46,0,0,0-1,.3,1,1,0,0,0-.34.78.91.91,0,0,0,.14.53,1.51,1.51,0,0,0,.44.43,12.78,12.78,0,0,0,1.44.75,5.67,5.67,0,0,1,2.06,1.44A2.86,2.86,0,0,1,511.93,316.32Z"/><path class="cls-54" d="M517,317.66a4.94,4.94,0,0,0,1.41-.26v1.67a5.06,5.06,0,0,1-2.06.37,2.52,2.52,0,0,1-2-.68,2.93,2.93,0,0,1-.61-2v-4h-1.07v-.94l1.23-.75.64-1.73H516v1.74h2.3v1.68H516v4a.87.87,0,0,0,.27.7A1.08,1.08,0,0,0,517,317.66Z"/><path class="cls-54" d="M525.35,319.29l-.43-1.11h-.06a3.45,3.45,0,0,1-1.16,1,3.83,3.83,0,0,1-1.56.27,2.51,2.51,0,0,1-1.86-.67,2.61,2.61,0,0,1-.68-1.93,2.17,2.17,0,0,1,.91-1.92,5.4,5.4,0,0,1,2.76-.69l1.42,0v-.36a1.12,1.12,0,0,0-1.28-1.25,5.73,5.73,0,0,0-2.3.6l-.75-1.51a6.61,6.61,0,0,1,3.14-.74,3.89,3.89,0,0,1,2.53.71,2.65,2.65,0,0,1,.88,2.19v5.46Zm-.66-3.8-.86,0a2.76,2.76,0,0,0-1.46.36,1.11,1.11,0,0,0-.47,1c0,.63.36.94,1.08.94a1.74,1.74,0,0,0,1.25-.44,1.58,1.58,0,0,0,.46-1.19Z"/><path class="cls-54" d="M536.66,319.29h-2.23V314.5a2.31,2.31,0,0,0-.32-1.33,1.15,1.15,0,0,0-1-.44,1.51,1.51,0,0,0-1.36.63,3.85,3.85,0,0,0-.42,2.08v3.85H529.1v-8.2h1.71l.3,1.05h.12a2.44,2.44,0,0,1,1-.9,3.57,3.57,0,0,1,1.49-.3,2.87,2.87,0,0,1,2.17.77,3.09,3.09,0,0,1,.74,2.24Z"/><path class="cls-54" d="M541.52,319.44a2.64,2.64,0,0,1-2.26-1.12,6.27,6.27,0,0,1,0-6.25,2.73,2.73,0,0,1,2.31-1.13,2.69,2.69,0,0,1,2.37,1.2H544a9.31,9.31,0,0,1-.17-1.63v-2.63h2.24v11.41h-1.71l-.43-1.06h-.1A2.55,2.55,0,0,1,541.52,319.44Zm.79-1.78a1.54,1.54,0,0,0,1.26-.5,2.92,2.92,0,0,0,.43-1.69v-.25a3.36,3.36,0,0,0-.4-1.89,1.53,1.53,0,0,0-1.33-.57,1.31,1.31,0,0,0-1.16.63,3.38,3.38,0,0,0-.41,1.85,3.27,3.27,0,0,0,.41,1.81A1.36,1.36,0,0,0,542.31,317.66Z"/><path class="cls-54" d="M553.53,319.29l-.44-1.11H553a3.36,3.36,0,0,1-1.16,1,3.83,3.83,0,0,1-1.56.27,2.54,2.54,0,0,1-1.86-.67,2.6,2.6,0,0,1-.67-1.93,2.15,2.15,0,0,1,.91-1.92,5.39,5.39,0,0,1,2.75-.69l1.43,0v-.36a1.12,1.12,0,0,0-1.28-1.25,5.73,5.73,0,0,0-2.31.6l-.74-1.51a6.58,6.58,0,0,1,3.14-.74,3.91,3.91,0,0,1,2.53.71,2.68,2.68,0,0,1,.88,2.19v5.46Zm-.66-3.8-.87,0a2.72,2.72,0,0,0-1.45.36,1.09,1.09,0,0,0-.48,1c0,.63.36.94,1.09.94a1.7,1.7,0,0,0,1.24-.44,1.59,1.59,0,0,0,.47-1.19Z"/><path class="cls-54" d="M561.85,310.94a3.22,3.22,0,0,1,.76.07l-.17,2.09a2.52,2.52,0,0,0-.66-.07,2.37,2.37,0,0,0-1.67.55,2,2,0,0,0-.6,1.54v4.17h-2.23v-8.2H559l.33,1.38h.11a3.05,3.05,0,0,1,1-1.11A2.53,2.53,0,0,1,561.85,310.94Z"/><path class="cls-54" d="M566.65,319.44a2.65,2.65,0,0,1-2.27-1.12,6.27,6.27,0,0,1,0-6.25,2.73,2.73,0,0,1,2.31-1.13,2.69,2.69,0,0,1,2.37,1.2h.07a9.31,9.31,0,0,1-.17-1.63v-2.63h2.24v11.41H569.5l-.43-1.06H569A2.55,2.55,0,0,1,566.65,319.44Zm.78-1.78a1.54,1.54,0,0,0,1.26-.5,2.92,2.92,0,0,0,.43-1.69v-.25a3.36,3.36,0,0,0-.4-1.89,1.53,1.53,0,0,0-1.33-.57,1.33,1.33,0,0,0-1.16.63,3.38,3.38,0,0,0-.41,1.85,3.27,3.27,0,0,0,.41,1.81A1.36,1.36,0,0,0,567.43,317.66Z"/><path class="cls-54" d="M579.32,316.86a2.24,2.24,0,0,1-.88,1.92,4.32,4.32,0,0,1-2.62.66,8.4,8.4,0,0,1-1.53-.12,5.58,5.58,0,0,1-1.18-.36v-1.85a8.3,8.3,0,0,0,1.41.5,5.73,5.73,0,0,0,1.37.19c.82,0,1.22-.23,1.22-.7a.57.57,0,0,0-.16-.43,2.32,2.32,0,0,0-.56-.37c-.26-.14-.61-.3-1-.49a6.57,6.57,0,0,1-1.39-.73,2.16,2.16,0,0,1-.65-.78,2.62,2.62,0,0,1-.2-1.07,1.94,1.94,0,0,1,.85-1.69,4.09,4.09,0,0,1,2.4-.6,6.65,6.65,0,0,1,2.88.65l-.67,1.61a10.56,10.56,0,0,0-1.16-.43,3.36,3.36,0,0,0-1.09-.17c-.66,0-1,.18-1,.53a.63.63,0,0,0,.32.52,8.25,8.25,0,0,0,1.4.66,6.88,6.88,0,0,1,1.41.72,2.09,2.09,0,0,1,.87,1.83Z"/><path class="cls-72" d="M344.46,308.44a1,1,0,0,0,0,2.07l32.14.21a1,1,0,0,0,1-.76h0l5.8-27.07a1,1,0,1,0-2-.54l-7,25.82Z"/><path class="cls-81" d="M552.85,387h36.32a1.26,1.26,0,0,1,1.26,1.26h0v1.25H551.6v-1.25A1.25,1.25,0,0,1,552.85,387Z"/><path class="cls-81" d="M582.93,383.89a3,3,0,0,0-2.91-2.65H562a3,3,0,0,0-2.92,2.65Z"/><rect class="cls-81" x="559.05" y="384.84" width="23.92" height="3.38"/><circle class="cls-81" cx="549.82" cy="353.03" r="1.66"/><path class="cls-81" d="M573.62,345.25h-5.21a1,1,0,0,1-1-1h0a1,1,0,0,1,1-1h5.21a1,1,0,0,1,1,1h0A1,1,0,0,1,573.62,345.25Z"/><path class="cls-81" d="M593.79,353a1.67,1.67,0,1,1-1.66-1.66A1.66,1.66,0,0,1,593.79,353Z"/><path class="cls-81" d="M540.92,371.37a9.06,9.06,0,0,0,17.8,0Z"/><rect class="cls-81" x="539.37" y="368.83" width="20.9" height="1.56" rx="0.39"/><rect class="cls-81" x="549.26" y="353.02" width="1.11" height="15.81"/><rect class="cls-81" x="537.33" y="360.6" width="17.8" height="1.11" transform="translate(-4.71 715.09) rotate(-66.19)"/><rect class="cls-81" x="552.86" y="352.27" width="1.11" height="17.8" transform="translate(-98.72 254.27) rotate(-23.82)"/><path class="cls-81" d="M583.27,371.37a9,9,0,0,0,17.79,0Z"/><rect class="cls-81" x="581.68" y="368.83" width="20.9" height="1.56" rx="0.39"/><rect class="cls-81" x="591.58" y="353.02" width="1.11" height="15.81"/><rect class="cls-81" x="579.63" y="360.61" width="17.8" height="1.11" transform="translate(20.52 753.8) rotate(-66.19)"/><rect class="cls-81" x="595.18" y="352.27" width="1.11" height="17.8" transform="translate(-95.12 271.36) rotate(-23.82)"/><path class="cls-81" d="M571,347.52a3.53,3.53,0,1,0,3.52,3.52h0A3.52,3.52,0,0,0,571,347.52Zm0,5.25a1.74,1.74,0,1,1,1.74-1.74h0A1.74,1.74,0,0,1,571,352.77Z"/><path class="cls-81" d="M591.75,352.49a13,13,0,0,1-4.92,1.6,8.52,8.52,0,0,1-4.72-1.23c-1.53-.84-3.05-1.94-4.94-2.8A12.3,12.3,0,0,0,571.6,349a2.18,2.18,0,0,1,1.48,2.71,2.16,2.16,0,0,1-1,1.28,8.15,8.15,0,0,1,3.86.3c1.58.46,3.21,1.35,5.06,2.05l.7.27.74.22a9.63,9.63,0,0,0,1.51.31,9.2,9.2,0,0,0,1.57.1,10.07,10.07,0,0,0,1.55-.17,14.38,14.38,0,0,0,5.32-2.5Z"/><path class="cls-81" d="M568.83,351a2.18,2.18,0,0,1,1.54-2.08,12.28,12.28,0,0,0-5.69,1.11c-1.89.83-3.41,2-4.94,2.8a8.52,8.52,0,0,1-4.72,1.23,13,13,0,0,1-4.92-1.6l-.65,1a14.61,14.61,0,0,0,5.32,2.5,10.06,10.06,0,0,0,1.55.16,8.17,8.17,0,0,0,1.56-.09,8.85,8.85,0,0,0,1.53-.32l.73-.21.7-.27c1.85-.71,3.48-1.59,5.06-2.06A8.23,8.23,0,0,1,570,353,2.2,2.2,0,0,1,568.83,351Z"/><path class="cls-81" d="M571,346.32a4.69,4.69,0,0,1,2.57.77v-1.93h-5.15v1.93A4.73,4.73,0,0,1,571,346.32Z"/><path class="cls-81" d="M571,355.75a4.73,4.73,0,0,1-2.58-.77v27h5.15V355A4.69,4.69,0,0,1,571,355.75Z"/><path class="cls-81" d="M573.58,342.43v-.31a2.58,2.58,0,1,0-5.15,0v.31Z"/><g class="cls-82"><g class="cls-15"><path class="cls-16" d="M401.3,327.28c40.55,0,98.16,33.44,142.29,192.76,34.24,123.63,52.34,294.83,52.34,495.09,0,199.48-18.26,414.46-52.81,621.71-38.18,229-93.56,436.63-164.6,617.16-118.11,300.13-334.81,657.9-696.43,657.9-2.92,0-5.92,0-8.86-.07-178.68-2.87-411.07-62.51-690.74-177.27-244.75-100.43-518.15-240.79-790.63-405.9-250.85-152-490.71-319.32-675.4-471.13-187.21-153.9-309.66-285.32-344.78-370.08-22.78-54.93-26.17-96.65-10.1-124,20.25-34.45,73.64-51.2,163.21-51.19,68.17,0,148.05,9.09,232.63,18.7,86.15,9.8,175.24,19.92,252.77,19.92,87.24,0,148.69-13.25,187.86-40.52,114.56-79.76,157.62-205.12,199.27-326.34,41.87-121.89,85.16-247.92,201.12-332.13,37.48-27.22,83.13-40.45,139.55-40.45,95.65,0,208.6,37.86,328.19,77.95,134.3,45,273.19,91.56,405.68,91.56,15,0,29.83-.62,44.07-1.83C-400.19,755-262.2,649.3-128.76,547.08-64.48,497.86,2,447,83.51,407.21c91.19-44.44,193.14-70.51,311.66-79.69,2.07-.17,4.07-.24,6.13-.24Zm0-10.38c-2.26,0-4.5.09-6.79.27C-142.44,358.77-126.17,721.25-684.81,768.8c-14.32,1.22-28.79,1.79-43.33,1.79-249.66,0-529.52-169.49-733.87-169.51-54.25,0-103.15,11.94-144.78,42.18C-1842.1,814.14-1781.6,1144.68-2007,1301.62c-41.92,29.18-107,38.91-182.78,38.91-151.17,0-345.37-38.62-485.4-38.63-139.05,0-224.64,38.06-161.73,189.84,149.63,361,1745,1418.15,2510,1430.46,3,.05,6,.07,9,.07,983.5,0,1106-2605.37,719.21-2605.37Z"/><path class="cls-17" d="M419.9,370.33c113.52,0,189.78,273.5,189.78,680.57,0,425.36-81.45,880.65-217.87,1217.89-80.2,198.29-177.49,354-289.15,462.86C-22.28,2853.44-164.58,2915.2-320.26,2915.2c-2,0-4.06,0-6,0-178-2.14-412.43-61.91-696.84-177.62-250.06-101.74-529.22-243.65-807.31-410.38-258.37-154.92-503.81-324.68-691.08-478-191.62-156.89-315.19-291-347.93-377.52-21.17-56-23.2-98.64-6-126.79,21.5-35.25,74.81-52.38,163-52.38,75.27,0,164.87,11.82,259.74,24.34,95.06,12.53,193.37,25.5,276.27,25.5,79.86,0,136.54-12.25,173.3-37.45,111.89-77.26,147.33-197.49,184.83-324.78,36.6-124.19,74.44-252.61,189-344.88,44.92-36.18,103.69-53.76,179.67-53.75,105.71,0,229.35,33.32,360.25,68.6,139.38,37.55,283.51,76.39,415,76.39,9.68,0,19.31-.21,28.62-.64,285.52-13,426-101.62,561.92-187.33,131.26-82.78,255.23-161,501.66-168.09.72,0,1.4,0,2.11,0Zm0-9.74c-.79,0-1.54,0-2.34,0C-88.45,375.24-89,690.69-646.17,716.06c-9.33.42-18.77.63-28.25.63-252.38,0-554.3-145-775.23-145-71.66,0-134.77,15.25-184.94,55.64-232.84,187.49-154.09,517.88-373.33,669.28-38.87,26.64-98.38,36-168.57,36-162.47,0-382.26-49.83-536-49.84-138,0-222.83,40.16-165.15,192.64,140.23,370.73,1790.56,1440.36,2551.27,1449.55,2,0,4.13,0,6.12,0,1014.44,0,1111.48-2564.35,740.16-2564.35Z"/><path class="cls-18" d="M409.55,412.79c10.1,0,20.48.13,30.86.4C552.65,416.07,627.94,707,623.52,1120.62c-2.08,194.44-21.79,400.33-57,595.41-39.4,218.2-96,414.7-168.24,584.06-81.1,190.1-179.46,339.2-292.37,443.14-126.32,116.31-270.61,175.28-428.85,175.28h-2.83c-177.28-1.42-413.79-61.31-702.94-178C-1284.07,2637.46-1569,2494-1852.67,2325.62c-561.24-333.11-996.27-690.81-1057.91-869.86-19.9-57.83-20.57-100.23-2-129.59,22.76-36.07,76.3-53.6,163.66-53.6,82.15,0,185.83,15.46,286.1,30.41,103.25,15.39,210,31.31,297.32,31.31,73.81,0,126.51-11.43,161.09-35,109.14-74.2,138.77-194.63,170.15-322.13,31.25-127,63.57-258.36,177.13-358.71,53.16-47,128.38-69.81,229.93-69.81,117.57,0,252.39,29.4,395.13,60.52S-742,672.46-613.4,672.46q3,0,5.94,0c285.78-2.21,428.67-72.81,566.86-141.09,123.39-61,239.94-118.55,450.15-118.55Zm0-9.12c-444.49,0-474.06,255.45-1017.07,259.65l-5.88,0c-252.4,0-574-123.76-813.83-123.77-94,0-175.35,19-235.16,71.84-230.49,203.68-133,535.05-346.44,680.19-36.24,24.64-91.24,33.57-156.7,33.57-172.13,0-416.67-61.72-583.42-61.72-137.63,0-222.25,42-169.41,195.53,130.92,380.33,1836.17,1462.56,2592.52,1468.64h2.89c1044.24,0,1117.32-2514.47,763.55-2523.55q-15.84-.42-31.05-.41Z"/><path class="cls-19" d="M362.78,451.42c31.75,0,65.48,1.54,100.26,4.58,55.53,4.84,103.61,86.37,135.36,229.56,31.64,142.63,45,337.28,37.66,548.09-14.34,411.4-102.1,818.24-240.76,1116.2-81.95,176.09-180.69,314-293.48,409.9-125.88,107-269.6,161.55-427.16,162.09H-328c-90.29,0-198.84-16.06-322.65-47.74-116.12-29.71-246.19-73.26-386.59-129.45-260.22-104.15-550.56-249.26-839.61-419.65-272.54-160.66-528.66-335.57-721.18-492.5-202.83-165.33-325.14-301.11-353.73-392.65-18.42-59-17.79-102.34,1.92-132.56,24.12-37,78.25-55,165.48-55,89,0,202.46,18.73,312.2,36.85,110.77,18.29,225.32,37.2,316.23,37.2,68.45,0,117.59-10.66,150.23-32.58,105.84-71.07,129.7-191.17,155-318.32,25.88-130.27,52.64-265,165.64-373.63C-1622.85,542-1527.25,513-1392.81,513c131.76,0,285.57,27.52,434.31,54.12,133.67,23.91,271.89,48.64,389.42,52,19.16.54,38.21.82,56.63.82,247.42,0,388-50.07,512.1-94.24,107.22-38.18,208.49-74.23,363.13-74.23Zm0-8.49c-337.4,0-417.63,168.47-875.23,168.47-18.22,0-37-.27-56.43-.82-246.18-7-571.63-106.1-823.93-106.12-122,0-226.79,23.14-297.38,91-228.28,219.52-112.09,551.79-319.53,691.1-34,22.8-85,31.32-146.18,31.32-180.4,0-449-74-628.43-74-138,0-223.12,43.79-174.74,198.74C-2837.48,1832-1081.48,2930.34-328,2930.34h2.66c1071.73-3.69,1123-2453.63,789-2482.8-36.17-3.16-69.63-4.6-100.88-4.6Z"/><path class="cls-21" d="M-1283.11,431.75c174.89,0,372.17,26.72,546.23,50.28,87.65,11.87,170.44,23.08,244.71,30.28,103.92,10.07,198.37,15,288.75,15,102.94,0,184.73-6.44,256.89-12.12,59.47-4.68,115.64-9.1,173.81-9.1,91.19,0,177.88,10.93,281.08,35.46,57.64,13.69,106.79,123.39,134.86,301,29,183.77,32.68,415.54,10.26,652.64-16.72,176.78-46.85,346.4-89.57,504.13C516.36,2174.87,454.55,2329.89,380.22,2460,297.42,2605,199.39,2718.11,88.84,2796.31c-122.34,86.55-261.35,131-413.14,132.21l-5.66,0c-173.56,0-423.19-62.47-721.9-180.67-270.8-107.15-572.22-255.35-871.65-428.59-286.8-165.92-553.5-345.21-751-504.85-211.11-170.67-335.47-311.24-359.63-406.52-15.58-61.4-12.39-106.77,9.76-138.69,27-38.93,83-57.86,171.1-57.85,102.67,0,235.55,25.81,364.05,50.77,130,25.25,252.8,49.1,349.11,49.1,59.53,0,102.69-9.31,132-28.47,45.11-29.52,75-71,94.15-130.55,16.87-52.55,23.31-113,30.12-177,14-131.43,29.85-280.39,142.78-406.47,82.56-92.16,232.36-137,458-137Zm0-7.23c-196,0-367.58,33-462.68,139.12-224.32,250.42-70.43,585.12-265.73,712.92-30.13,19.72-74.68,27.44-128.57,27.44-193.9,0-509.21-99.86-713.16-99.87-140,0-227.47,47-187.23,205.72C-2937.09,1817.49-1077,2935.78-330,2935.78l5.71,0c1121.3-8.68,1130.5-2330.87,834-2401.32-114.69-27.25-201.52-35.62-282.48-35.62-128.9,0-242.9,21.22-430.7,21.22-80.27,0-174-3.87-288.17-14.94C-716,483.35-1021.3,424.52-1283.1,424.52Z"/><path class="cls-22" d="M-1209.61,386.23c217.37,0,457.36,32.48,650.19,58.58,37.18,5,72.3,9.78,105.77,14.11C-234.92,487.23-87.2,495,31.5,501.29c178.05,9.4,295.67,15.61,499.57,82.94,58.45,19.29,108.54,146.68,134,340.75,26.74,203.89,24,460.58-7.53,704.27-21.44,165.8-55.17,322.7-100.24,466.36-50.1,159.69-113.44,300-188.27,416.93-82.93,129.64-180.22,230.8-289.17,300.66-120,76.93-255.77,116.85-403.62,118.66-2.91,0-5.81,0-8.76,0-173.47,0-425.4-63.1-728.56-182.47-275.93-108.65-582.66-258.43-887-433.15-293.47-168.47-565.15-350-765-511.06-214.95-173.28-340.2-316.22-362.22-413.35-14.21-62.69-9.74-109.1,13.67-141.88,28.5-39.93,85.6-59.34,174.64-59.34,109.58,0,252.11,29.59,389.94,58.2,136.41,28.31,265.26,55.05,363.57,55.05,55.75,0,96.36-8.72,124.15-26.66,94.35-60.9,101.18-172.09,109.09-300.83,8.32-135.44,17.75-288.94,131.13-424.23,49.72-59.33,126.92-103.22,229.46-130.47,89.86-23.88,197.83-35.49,330.06-35.49Zm0-6.61c-240.11,0-455.87,39.09-564,168.09-222.57,265.59-49.65,601.71-238.83,723.83-28.52,18.42-70.32,25.75-121.09,25.75-199.45,0-537.5-113.22-753.51-113.24-141.53,0-230.63,48.56-194.17,209.42,94.4,416.39,2003.42,1545.05,2748.65,1545.05,3,0,5.89,0,8.82-.05C822.35,2924.46,811.86,670,532.81,577.89,192,465.36,93.83,523.12-452.95,452.36c-210.66-27.27-497.81-72.74-756.67-72.74Z"/><path class="cls-23" d="M-1129.23,337.73c197,0,430.55,22.18,714.14,67.81,94.75,15.25,176.64,27.84,248.9,39,340.63,52.4,468.08,72,720,182.41,29.36,12.87,57.11,55,80.24,121.8,23.06,66.61,41.12,156.77,52.23,260.72,24.33,227.51,14,502-28.32,753-54.8,325.1-159.38,601.88-302.44,800.41C180.81,2805.33-47.57,2930.61-323.27,2935.2c-3.87.06-7.71.1-11.66.1-173.42,0-427.68-63.73-735.31-184.28-281.09-110.16-593.15-261.52-902.44-437.73-300.12-171-576.78-354.69-779-517.27-218.78-175.89-344.95-321.19-364.87-420.21-12.86-64-7.12-111.41,17.57-145.07,30.06-41,88.46-60.9,178.55-60.9,116.57,0,268.78,33.52,416,65.92,142.39,31.35,276.88,61,376.83,61,52.33,0,90.63-8.18,117.07-25,90.12-57.36,92-166.65,94.15-293.2,2.38-139.65,5.08-297.93,119.17-442.81,103.45-131.36,328.2-198,668-198Zm0-6c-285.61,0-551.42,46.73-672.15,200-221,280.6-28.9,618.25-211.94,734.75-27,17.21-66.41,24.19-114.32,24.19-204.39,0-564.79-126.86-792.8-126.88-143.29,0-234.27,50.09-201.45,213.25,85.51,425.1,2043.35,1564.18,2787,1564.18,4,0,7.85,0,11.75-.1,1170.85-19.47,1141.43-2204.85,879-2319.83-305.74-134-425.56-134.1-970.16-221.73-196.53-31.62-463.41-67.88-714.93-67.88Z"/><path class="cls-24" d="M-1048.34,286.69c209.74,0,454.62,23.86,671.84,65.47C168,456.45,309.91,518.58,576.67,669.56c60.85,34.44,110.7,197.24,130.1,424.87,21.36,250.68,2.5,540.76-51.73,795.88-29.8,140.18-69.91,270.27-119.21,386.67-54.35,128.31-120.05,240.2-195.28,332.58-173.21,212.69-396.38,323.38-663.3,329-4.76.1-9.47.15-14.39.15-173.41,0-430-64.35-742.16-186.09-286.28-111.66-603.67-264.6-917.86-442.31-306.74-173.48-588.39-359.4-793.06-523.49-222.61-178.48-349.72-326.17-367.58-427.1-11.39-64.37-4.17-114.28,21.46-148.32,31.64-42,91.43-62.47,182.77-62.46,123.64,0,285.53,37.58,442.08,73.91,148,34.36,287.85,66.81,389.12,66.81,49.23,0,85.41-7.68,110.58-23.47,85.79-53.8,82.92-160.86,79.6-284.82-1.85-68.92-3.94-147,8.89-225.78,14.69-90.09,46.71-167.4,97.91-236.32C-1764.55,437.33-1659,376-1511.6,337c126.26-33.4,282.12-50.34,463.26-50.34Zm0-5.36c-329.55,0-648.58,56.47-780.85,234.54-219.48,295.49-8.17,634.73-185,745.66-25.72,16.12-62.85,22.75-108.15,22.75-208.78,0-591.23-140.71-831.2-140.72-145.29,0-238.33,51.56-209,217.16,76.76,433.8,2083.27,1583.33,2825.46,1583.33,4.92,0,9.67-.06,14.48-.15C873,2918.82,825.12,804.16,578.91,664.8c-270.5-153.09-412.07-214-954.57-317.92-183.36-35.12-430.87-65.55-672.68-65.55Z"/><path class="cls-25" d="M-972.33,233.67c216.3,0,447.56,23.73,634.46,65.11C-95.8,352.37,85.93,410.4,234,481.42c135.75,65.09,233.62,135.65,347,217.37l18.62,13.42c61.17,44,110.86,227.2,126.61,466.59,8.33,126.76,6.76,264.79-4.56,399.17-12.72,151-37.15,296.22-72.62,431.76-33.21,126.91-75.9,243.92-126.9,347.79-55.9,113.86-122.33,212.93-197.44,294.44-171.25,185.86-388.9,283.4-646.9,289.91-5.61.15-11.17.22-17,.22-173.42,0-432.43-65-749-187.89C-1375.54,2642.66-1707,2484-2021.54,2307.31c-313.34-176-600-364.08-807.14-529.72-226.46-181.07-354.53-331.16-370.37-434-10.11-65.68-1.58-116.69,25.35-151.59,33.26-43.1,94.51-64,187.25-64,130.81,0,302.4,41.77,468.34,82.17,153.34,37.33,298.18,72.59,400.5,72.59,46.39,0,80.61-7.21,104.62-22,37.48-23.15,58.66-58.43,66.66-111,7.14-46.87,3.11-104.1-1.15-164.69-9.92-141.15-22.26-316.81,93.92-482.08C-1788,409.59-1668.72,339.05-1499,293.19c144.08-38.94,326.2-59.52,526.67-59.52Zm0-4.73c-369.84,0-742.46,68.74-884.65,271-218.15,310.31,12.52,651.16-158.13,756.56-24.5,15.13-59.61,21.43-102.5,21.43-212.69,0-616.92-154.75-868.84-154.77-147.48,0-242.74,53-216.86,221.17C-3135.2,1786.86-1080,2946.82-339.19,2946.82c5.79,0,11.44-.08,17.07-.22C898.28,2915.79,832,873.89,602,708.26,366.33,538.56,203.5,413.79-337,294.14c-172.23-38.13-403.23-65.2-635.31-65.2Z"/><path class="cls-26" d="M-903.83,179.18c216.23,0,436.61,24.14,604.62,66.22,504.91,126.47,698.12,304,885,475.7q18.4,16.92,36.86,33.77c60.87,55.48,109.8,259.15,121.72,506.81,6.51,135.1,1.91,279.26-13.31,416.91-17.32,156.68-47.82,304.83-90.66,440.34C524.21,2486.36,263,2928-321.69,2945.21c-6.39.19-12.73.28-19.4.28-173.48,0-434.91-65.6-756-189.7-292.46-113-629.42-273.36-948.8-451.47-319.9-178.4-611.54-368.74-821.21-535.94-230.3-183.67-359.34-336.16-373.18-441-8.85-67,1-119.15,29.25-154.91,34.9-44.17,97.69-65.64,191.94-65.64,138.09,0,319.42,46.1,494.78,90.67,158.35,40.26,307.91,78.28,411,78.28,43.77,0,76.19-6.77,99.09-20.69,76.89-46.74,65.91-143.5,52-266-16.52-145.48-37.08-326.53,80.44-502.64,69.58-104.26,201.65-184.16,392.55-237.46,163.54-45.66,366-69.8,585.38-69.8Zm0-4.11c-406,0-830.5,83.49-980.95,309C-2101.7,809.09-1851.6,1151.56-2016,1251.5c-23.35,14.19-56.65,20.17-97.28,20.17-216.17,0-641.92-169-905.82-169-149.82,0-247.45,54.46-224.9,225.24C-3184.44,1779.17-1080.8,2949.6-341.09,2949.6c6.65,0,13.08-.1,19.5-.29C923.58,2912.61,838,945.77,625,751.71,423.26,567.85,240.31,376.34-298.37,241.4c-163.48-41-381.67-66.33-605.46-66.33Z"/><path class="cls-27" d="M-843.06,123.6c217.5,0,424.38,24.3,582.55,68.43C247.73,333.82,453.62,573.74,619.06,766.52q13.53,15.75,26.7,31c28.19,32.62,55,102.43,75.59,196.59,21.76,99.76,35.44,220.22,39.55,348.36,5.81,180.81-3.54,534.89-131.39,874.75-80.42,213.77-193.89,384-337.28,506C126,2864.64-80.34,2940.44-321.15,2948.55c-7.05.24-14.34.35-21.71.35-173.54,0-437.39-66.22-763-191.5-297.62-114.5-640.08-276.46-964.29-456.05-326.46-180.83-623.12-373.37-835.33-542.17-234.15-186.25-364.2-341.17-376.07-448-7.61-68.4,3.54-121.65,33.14-158.26,36.56-45.24,100.93-67.22,196.83-67.22,145.45,0,336.53,50.55,521.32,99.41,163.11,43.14,317.17,83.88,420.93,83.88,41.34,0,72.07-6.35,94-19.43,72.37-43.25,57.68-137,39.08-255.72-11.6-74.05-24.74-158-20.13-247.09,5.34-103,33.62-193.44,86.47-276.65,37.45-59,94.89-112,170.7-157.73,70.35-42.39,156.75-78.62,256.82-107.69,182.5-53,403.6-81.06,639.39-81.06Zm0-3.47c-438.38,0-912.32,100.44-1069.52,348-215.8,339.78,53.82,683.88-104.33,778.4-22.31,13.33-53.87,19-92.43,19-219.31,0-666.39-183.26-942.24-183.29-152.36,0-252.43,55.86-233.14,229.39,51.12,459.93,2203.27,1640.79,2941.86,1640.79,7.42,0,14.67-.11,21.8-.36C948.87,2909.29,842.2,1019.76,648.06,795.16c-169.5-196.09-370.78-456.69-907.79-606.5-156.95-43.79-365.78-68.53-583.33-68.53Z"/><path class="cls-28" d="M-789,67.24c215.7,0,417.15,25.37,567.24,71.43,233,71.49,425.53,179.47,588.74,330.1C504.94,596.11,593.16,727.4,664,832.9l5,7.41c47.7,71,101.4,282.87,106.56,580.42,2.61,150.42-7.82,298.59-31,440.4-26.68,163-69.61,312.18-127.61,443.48C533.15,2494.28,418.57,2645,276.37,2752.54,113.1,2876-87.75,2943.09-320.61,2951.89c-7.82.3-15.63.44-23.88.44-173.66,0-440-66.85-770.12-193.31-302.8-116-650.76-279.57-979.79-460.63-333-183.24-634.65-378-849.43-548.41-166-131.68-366.45-317.52-379-455-6.37-69.79,6.1-124.17,37-161.65,38.25-46.3,104.26-68.81,201.88-68.8,152.91,0,353.77,55.1,548,108.37,167.62,46,325.94,89.38,430.15,89.38,39.07,0,68.23-6,89.14-18.24,67.84-39.82,49.76-130.34,26.86-244.93-15.13-75.69-32.27-161.49-30.72-254.26,1.8-107.5,28.69-202.7,82.23-291,38.83-64.08,100-122.29,181.88-173,75.92-47,169.43-87.55,277.92-120.44,198-60,442.79-93.08,689.39-93.08Zm0-2.85c-467.82,0-988.63,119.22-1151.36,387.78-214.78,354.45,74.44,700.15-77.43,789.3-21.34,12.53-51.29,17.91-87.91,17.91-222.12,0-690.33-197.72-978.17-197.76-155,0-257.62,57.27-241.53,233.59,42.75,468.64,2243.22,1660,2980.93,1660,8.19,0,16.14-.15,24-.44C974.17,2905.83,843.72,1095.4,671.12,838.62c-139.33-207.28-356.69-538.35-892.2-702.7C-373.36,89.19-575.7,64.39-789,64.39Z"/><path class="cls-29" d="M-740.4,10.28c214.68,0,412.63,26.65,557.37,75C49,162.88,249.54,292.05,413,469.23,548.48,616.11,633.48,767.6,692.39,883.16c24.11,47.29,47.79,132.57,65,234,19.62,115.81,30.28,246.29,30.83,377.33.65,154.89-12.56,304.77-39.24,445.48-31,163.5-79.79,311.09-145,438.66C517.77,2547.15,402.66,2681,261.8,2776.49c-160.32,108.67-356.09,168.8-581.87,178.74-8,.31-16.24.47-24.64.47-173.49,0-442.14-67.45-776.89-195.06-308.14-117.47-661.79-282.65-995.81-465.12-344.75-188.34-643.63-380.12-864.32-554.62-168.85-133.5-372.26-322.07-382.38-462.24-5.14-71.16,8.65-126.67,41-165,40-47.4,107.71-70.44,207.08-70.44,160.5,0,371.22,59.77,575,117.56,171.86,48.74,334.19,94.78,438.67,94.78,37,0,64.62-5.6,84.61-17.12,29.27-16.86,42.52-45.09,41.7-88.85-.74-39.57-12.6-88.36-26.34-144.85-36.52-150.2-86.53-355.91,35.94-567.29C-1889.24,304.14-1719.85,193-1476.63,116-1261.25,47.83-999.78,10.28-740.39,10.28Zm0-2.22c-495,0-1060.48,139.42-1227.78,428.19-213.85,369.1,95,716.37-50.53,800.21-20.41,11.76-48.9,16.86-83.67,16.86C-2327,1253.32-2816.16,1041-3116,1041c-157.68,0-263,58.69-250.08,237.84,34.49,477.68,2285.88,1679.1,3021.42,1679.1,8.45,0,16.67-.16,24.72-.48,1319.34-58,1161.86-1785.64,1014.15-2075.37C582.77,663.56,351.77,261.76-182.44,83.18c-149-49.82-347.16-75.12-558-75.12Z"/><path class="cls-30" d="M-696-47.13c217.69,0,408.48,27.35,551.75,79.09C88.4,116,289.49,261.57,453.46,464.68,600.5,646.82,681,832,715.86,926.13c21.28,57.42,42,149.08,57,251.48,18.09,123.86,27.1,258,26.07,388C797,1807.69,759.24,2156.75,590.26,2445,402,2766.07,95.93,2938.86-319.52,2958.56c-8.67.39-17.75.58-27,.58-173.73,0-444.88-68.07-784.16-196.87-313.31-118.94-672.42-285.76-1011.2-469.73-351.25-190.74-654.94-384.68-878.24-560.85-119-93.86-212.08-180.56-276.76-257.71-68.85-82.11-105.36-153.32-108.51-211.62-3.92-72.55,11.19-129.21,44.9-168.41,41.72-48.48,111.19-72.05,212.42-72.05,168.18,0,398.72,67.44,602.11,126.95,175.9,51.45,342,100.06,446.67,100.06,35,0,61.22-5.25,80.34-16,58.79-33.18,36.08-112.41,4.63-222.07-44.23-154.27-104.81-365.55,19.58-589.65,79.32-142.9,258.48-263.73,518.1-349.43,116.76-38.53,245.33-68.46,382.14-88.93A2701,2701,0,0,1-696-47.13Zm0-1.61c-520.6,0-1128.87,160.8-1300,469.06-213,383.75,115.61,732.54-23.63,811.13-19.55,11-46.63,15.86-79.67,15.86-226.88,0-736.81-227-1048.78-227-160.53,0-268.62,60.1-258.78,242.15,26.28,486.36,2325.14,1698.29,3060.33,1698.29q13.9,0,27.05-.58C1024.64,2896.42,836.62,1247.83,717.22,925.53,631.69,694.67,389.32,223-143.79,30.44-290.74-22.63-486.27-48.74-696-48.74Z"/><path class="cls-31" d="M-654.86-104.91c218.44,0,408.43,28.88,549.42,83.53C18.83,26.79,135.83,96.54,242.32,185.93c91.87,77.12,176.37,169.13,251.15,273.48C662.33,695,724.41,909.2,739.41,969.24,752,1019.62,814.5,1288.35,808.15,1632c-3,160.76-21,311.16-53.51,447.05-38.62,161.32-98.11,303.26-176.81,421.87-189.34,285.34-491.06,440.45-896.8,461-9.37.46-19.22.69-29.28.69-174,0-447.68-68.71-791.46-198.69-318.41-120.4-682.95-288.85-1026.44-474.33-357.67-193.12-666.15-389.22-892.11-567.1-120.77-95.07-215-182.93-280.25-261.14-69.52-83.39-105.91-155.83-108.15-215.29-2.63-74,13.86-131.79,49-171.84,43.52-49.58,114.82-73.67,218-73.67,176,0,416.85,72.55,629.34,136.55,179.66,54.11,349.36,105.22,454,105.22,33,0,58-4.9,76.24-15,54.3-30,29.31-105.53-5.28-210.1-25.23-76.26-56.62-171.17-65.42-275.26-10.31-121.82,11.87-232.07,67.8-337.05,41.8-78.46,112.62-151.62,210.51-217.46,90.9-61.15,203.43-115,334.46-160,244.92-84.13,545-132.37,823.18-132.37Zm0-1c-545,0-1194.57,183-1368.92,510.29-212.23,398.37,136.17,748.65,3.27,822-18.73,10.35-44.46,14.89-75.84,14.89-228.85,0-759.19-241.76-1083.31-241.77-163.47,0-274.47,61.49-267.88,246.52,18.65,495,2364.23,1717.49,3099.28,1717.49,10.1,0,19.85-.23,29.33-.7C1049.93,2893.44,828.6,1322.4,740.27,969,679,723.92,427.06,184-105.15-22.3c-145.64-56.45-340-83.59-549.71-83.59Z"/><path class="cls-32" d="M-616.25-163c220,0,410,30.53,549.63,88.29C57.67-23.3,174.92,52.69,281.85,151.14c92.65,85.3,177.22,187,251.38,302.16,62.46,97,117.4,204.22,158.87,310,35.56,90.67,60.73,179.18,70.91,249.22q2.06,14.21,4.46,30.42c20.66,140,59.12,400.6,47.93,681.2-6.21,155.76-27,299.49-61.87,427.21C712.09,2303.18,649.85,2436,568.53,2546a950.63,950.63,0,0,1-147.74,158.64,974.81,974.81,0,0,1-193.37,127.81c-74.29,37.43-156.57,67.5-244.56,89.39-92.48,23-193.84,37.61-301.27,43.4-10,.54-20.66.81-31.52.81-174.31,0-450.58-69.33-798.93-200.5-323.67-121.87-693.71-292-1041.95-478.91-176.11-94.54-342.21-190.89-493.69-286.37-158-99.57-296.7-196.13-412.33-287-122.54-96.29-218-185.3-283.6-264.57-70.12-84.69-106.3-158.38-107.51-219-.77-38.55,3.48-73,12.62-102.53,8.76-28.25,22.28-52.72,40.17-72.76,23.25-26,54.77-45.53,93.69-57.94,36-11.5,79.65-17.32,129.76-17.32,183.92,0,435.25,77.75,657,146.33,183.36,56.71,356.55,110.27,461.07,110.27,30.79,0,55.13-4.71,72.36-14,23-12.43,31.2-35.14,25.65-71.45-5.12-33.49-21.28-76.54-40-126.4-29.1-77.51-65.32-174-78-281.94-7-59.3-6.21-114.93,2.3-170.06,9.68-62.74,29.87-124.39,60-183.24,42.53-83,116.19-161.08,219-232,95.49-65.89,213.85-124.24,351.8-173.44C-1220-109.7-905-163-616.25-163Zm0-.34c-568.43,0-1258.21,206-1435.33,551.82-211.52,413,156.7,764.7,30.18,833-17.95,9.67-42.44,14-72.23,14-230.62,0-781.75-256.57-1118.07-256.61-166.51,0-280.31,62.86-276.55,250.91,10.05,503.73,2403.3,1736.7,3138.32,1736.7q16.31,0,31.53-.82C1075.22,2890.45,818.85,1394.89,763.32,1012.44,725.35,751,465,144.84-66.51-75c-145-60-339.09-88.31-549.74-88.31Z"/></g></g></g></svg>