<?xml version="1.0" encoding="UTF-8" standalone="no"?>
<svg
   version="1.0"
   width="432.22"
   height="457.568"
   viewBox="0 0 324.165 343.176"
   preserveAspectRatio="xMidYMid meet"
   id="svg842"
   sodipodi:docname="chill-logo-final.svg"
   inkscape:version="1.1 (c4e8f9e, 2021-05-24)"
   xmlns:inkscape="http://www.inkscape.org/namespaces/inkscape"
   xmlns:sodipodi="http://sodipodi.sourceforge.net/DTD/sodipodi-0.dtd"
   xmlns="http://www.w3.org/2000/svg"
   xmlns:svg="http://www.w3.org/2000/svg">
  <defs
     id="defs838" />
  <sodipodi:namedview
     id="namedview836"
     pagecolor="#ffffff"
     bordercolor="#111111"
     borderopacity="1"
     inkscape:pageshadow="0"
     inkscape:pageopacity="0"
     inkscape:pagecheckerboard="1"
     showgrid="false"
     inkscape:zoom="0.86422585"
     inkscape:cx="210.01455"
     inkscape:cy="252.24888"
     inkscape:window-width="1440"
     inkscape:window-height="900"
     inkscape:window-x="0"
     inkscape:window-y="0"
     inkscape:window-maximized="0"
     inkscape:current-layer="g1029" />
  <g
     transform="matrix(.1 0 0 -.1 -187.925 434.075)"
     fill="#000"
     stroke="none"
     id="g840">
    <path
       d="m 1892,4328 c -17,-17 -17,-3389 0,-3406 9,-9 115,-12 414,-12 353,0 405,2 418,16 13,13 16,43 16,170 0,88 -4,164 -10,175 -10,18 -24,19 -240,19 h -230 v 1335 1335 h 224 c 191,0 227,2 240,16 24,23 24,325 0,348 -13,14 -65,16 -418,16 -299,0 -405,-3 -414,-12 z"
       id="letter-c" fill="#2b2c35" />
    <path
       d="m 2853,4332 c -10,-6 -13,-174 -15,-763 l -3,-754 -47,-3 -48,-3 v 506 c 0,330 -4,513 -10,526 -10,18 -23,19 -178,19 -117,0 -172,-4 -180,-12 -17,-17 -17,-2429 0,-2446 8,-8 63,-12 180,-12 155,0 168,1 178,19 6,13 10,196 10,526 v 506 l 48,-3 47,-3 3,-749 c 1,-533 5,-753 13,-763 15,-18 329,-19 347,-1 17,17 17,3389 0,3406 -14,14 -324,17 -345,4 z"
       id="letter-h" fill="#2b2c35" />
    <path
       d="m 3320,4321 c -16,-30 -14,-3383 2,-3399 8,-8 61,-12 174,-12 134,0 165,3 178,16 14,14 16,182 16,1699 0,1517 -2,1685 -16,1699 -13,13 -44,16 -179,16 -152,0 -165,-1 -175,-19 z"
       id="letter-i" fill="#2b2c35" />
    <path
       d="m 3802,4328 c -17,-17 -17,-3389 0,-3406 9,-9 167,-12 649,-12 566,0 639,2 653,16 13,13 16,43 16,170 0,88 -4,164 -10,175 -10,18 -26,19 -480,19 h -470 v 1513 c 0,1163 -3,1516 -12,1525 -17,17 -329,17 -346,0 z"
       id="letter-l1" fill="#2b2c35" />
    <path
       d="m 4276,4324 c -14,-14 -16,-160 -16,-1463 0,-1112 3,-1450 12,-1459 17,-17 819,-17 836,0 8,8 12,61 12,174 0,134 -3,165 -16,178 -13,14 -49,16 -240,16 h -224 v 1273 c 0,977 -3,1276 -12,1285 -8,8 -61,12 -174,12 -134,0 -165,-3 -178,-16 z"
       id="letter-l2" fill="#2b2c35" />
    <g
       id="g1029">
      <g
         id="exclamation">
        <g
           id="g1037">
          <path
             d="m 4752,4328 c -17,-17 -17,-1959 0,-1976 8,-8 61,-12 174,-12 134,0 165,3 178,16 14,14 16,117 16,984 0,867 -2,970 -16,984 -13,13 -44,16 -178,16 -113,0 -166,-4 -174,-12 z"
             id="exclamation1" fill="#2b2c35" />
          <path
             d="m 4751,2226 c -8,-9 -11,-66 -9,-182 l 3,-169 174,-3 c 119,-2 178,1 187,9 19,15 20,329 2,347 -18,18 -342,17 -357,-2 z"
             id="exclamation2" fill="#2b2c35" />
        </g>
      </g>
    </g>
  </g>
</svg>
