<svg viewBox="-576,-250,1152,500" xmlns="http://www.w3.org/2000/svg" xmlns:xlink="http://www.w3.org/1999/xlink"><path fill="rgb(66, 136, 181)" d="M0.7502377222457792,-248.99886976321827A249,249,0,0,1,95.03560361797464,-230.1504595801781L63.702531855183175,-154.91364509054512A167.5,167.5,0,0,0,0.7502377222457881,-167.49831982249887Z"><title>&lt;5: 19,912,018</title></path><path fill="rgb(77, 163, 177)" d="M96.42075982545511,-229.57359838335483A249,249,0,0,1,178.23254455971468,-173.87972872008203L119.72377904900331,-117.14293290773216A167.5,167.5,0,0,0,65.08768806266366,-154.33678389372182Z"><title>5-9: 20,501,982</title></path><path fill="rgb(101, 186, 170)" d="M179.27710400106184,-172.8025462225382A249,249,0,0,1,232.73876293610454,-88.50801221907393L156.473762039021,-59.767983012276936A167.5,167.5,0,0,0,120.76833849035046,-116.06575041018834Z"><title>10-14: 20,679,786</title></path><path fill="rgb(131, 204, 165)" d="M233.2678846184752,-87.10392646500925A249,249,0,0,1,248.56026858731735,14.791648988556645L167.21860443832892,9.7050672175764A167.5,167.5,0,0,0,157.0028837213917,-58.36389725821226Z"><title>15-19: 21,354,481</title></path><path fill="rgb(162, 217, 163)" d="M248.46662147635544,16.289199247523143A249,249,0,0,1,217.70951072797283,120.84522720648378L146.5701959089112,81.07667772684938A167.5,167.5,0,0,0,167.12495732736704,11.202617476542898Z"><title>20-24: 22,604,232</title></path><path fill="rgb(191, 229, 160)" d="M216.9773471781484,122.15494591515017A249,249,0,0,1,147.6017782430462,200.53606922319636L99.48801286658669,134.75305301126903A167.5,167.5,0,0,0,145.83803235908678,82.38639643551573Z"><title>25-29: 21,698,010</title></path><path fill="rgb(216, 239, 159)" d="M146.39067229882394,201.42187335018593A249,249,0,0,1,53.1254924047895,243.2666891638653L35.97689687669528,163.59068705498987A167.5,167.5,0,0,0,98.27690692236445,135.63885713825857Z"><title>30-34: 21,183,639</title></path><path fill="rgb(235, 247, 166)" d="M51.658608012394836,243.58240539542618A249,249,0,0,1,-44.212297374548385,245.04340995191953L-29.49951265374471,164.8818630207445A167.5,167.5,0,0,0,34.510012484300596,163.90640328655076Z"><title>35-39: 19,855,782</title></path><path fill="rgb(247, 250, 175)" d="M-45.68812094690674,244.77253850123958A249,249,0,0,1,-138.62068681301344,206.8460905782085L-93.04476576330276,139.28001135860134A167.5,167.5,0,0,0,-30.975336226103096,164.61099157006456Z"><title>40-44: 20,796,128</title></path><path fill="rgb(253, 245, 172)" d="M-139.8646200481061,206.0070097321907A249,249,0,0,1,-211.33246630981557,131.67987197522126L-142.03138383107466,88.78815240238946A167.5,167.5,0,0,0,-94.2886989983955,138.4409305125835Z"><title>45-49: 21,370,368</title></path><path fill="rgb(254, 232, 154)" d="M-212.12212934936395,130.40399625890197A249,249,0,0,1,-247.45446856140185,27.69992759907843L-166.43283899234982,18.8775026141319A167.5,167.5,0,0,0,-142.8210468706231,87.51227668607007Z"><title>50-54: 22,525,490</title></path><path fill="rgb(254, 213, 133)" d="M-247.6168948525178,26.20826937432439A249,249,0,0,1,-237.54782959269545,-74.64602237091889L-159.86967421335348,-49.97936841253824A167.5,167.5,0,0,0,-166.59526528346578,17.38584438937776Z"><title>55-59: 21,001,947</title></path><path fill="rgb(253, 191, 112)" d="M-237.09370126363214,-76.07612517151199A249,249,0,0,1,-195.20231232797465,-154.58673054894405L-131.4631032579077,-103.79644734672135A167.5,167.5,0,0,0,-159.41554588429014,-51.40947121313144Z"><title>60-64: 18,415,681</title></path><path fill="rgb(251, 165, 95)" d="M-194.26723185527675,-155.7602087417969A249,249,0,0,1,-142.91900066802322,-203.89987554693008L-96.34127238488995,-137.02047013224134A167.5,167.5,0,0,0,-130.52802278520974,-104.96992553957425Z"><title>65-69: 14,547,446</title></path><path fill="rgb(247, 136, 81)" d="M-141.68770952164536,-204.7574002826512A249,249,0,0,1,-96.7771383997005,-229.42359399844912L-65.32727244720874,-154.23552598091064A167.5,167.5,0,0,0,-95.10998123851212,-137.87799486796243Z"><title>70-74: 10,587,721</title></path><path fill="rgb(239, 109, 74)" d="M-95.39287964486836,-230.00260544841586A249,249,0,0,1,-59.89549249749943,-241.68891157535958L-40.52945252190463,-162.52265527696338A167.5,167.5,0,0,0,-63.94301369237664,-154.81453743087738Z"><title>75-79: 7,730,129</title></path><path fill="rgb(227, 84, 73)" d="M-58.43799284020304,-242.04545232829386A249,249,0,0,1,-30.85014932940038,-247.08150130342355L-20.996257579695754,-166.17884091438077A167.5,167.5,0,0,0,-39.071952864608285,-162.87919602989766Z"><title>80-84: 5,811,429</title></path><path fill="rgb(209, 60, 75)" d="M-29.360681400704284,-247.26291753452708A249,249,0,0,1,-0.7502377222464732,-248.99886976321824L-0.7502377222462178,-167.49831982249887A167.5,167.5,0,0,0,-19.5067896509997,-166.36025714548427Z"><title>≥85: 5,938,752</title></path><g font-family="sans-serif" font-size="12" text-anchor="middle"><text transform="translate(40.823143738247055,-204.20953316465523)"><tspan y="-0.4em" font-weight="bold">&lt;5</tspan><tspan x="0" y="0.7em" fill-opacity="0.7">19,912,018</tspan></text><text transform="translate(117.19004822329308,-172.14689976128597)"><tspan y="-0.4em" font-weight="bold">5-9</tspan><tspan x="0" y="0.7em" fill-opacity="0.7">20,501,982</tspan></text><text transform="translate(175.86269442314384,-111.53642996901027)"><tspan y="-0.4em" font-weight="bold">10-14</tspan><tspan x="0" y="0.7em" fill-opacity="0.7">20,679,786</tspan></text><text transform="translate(205.94360876268573,-30.90780661583456)"><tspan y="-0.4em" font-weight="bold">15-19</tspan><tspan x="0" y="0.7em" fill-opacity="0.7">21,354,481</tspan></text><text transform="translate(199.785104476807,58.7705243229233)"><tspan y="-0.4em" font-weight="bold">20-24</tspan><tspan x="0" y="0.7em" fill-opacity="0.7">22,604,232</tspan></text><text transform="translate(155.9405936928768,138.02388829008228)"><tspan y="-0.4em" font-weight="bold">25-29</tspan><tspan x="0" y="0.7em" fill-opacity="0.7">21,698,010</tspan></text><text transform="translate(85.24744267180614,190.0024631890785)"><tspan y="-0.4em" font-weight="bold">30-34</tspan><tspan x="0" y="0.7em" fill-opacity="0.7">21,183,639</tspan></text><text transform="translate(3.1732137547886743,208.2258226408685)"><tspan y="-0.4em" font-weight="bold">35-39</tspan><tspan x="0" y="0.7em" fill-opacity="0.7">19,855,782</tspan></text><text transform="translate(-78.68778097418982,192.811554698773)"><tspan y="-0.4em" font-weight="bold">40-44</tspan><tspan x="0" y="0.7em" fill-opacity="0.7">20,796,128</tspan></text><text transform="translate(-150.11404621549457,144.3393072894988)"><tspan y="-0.4em" font-weight="bold">45-49</tspan><tspan x="0" y="0.7em" fill-opacity="0.7">21,370,368</tspan></text><text transform="translate(-196.92283266958356,67.74555685347337)"><tspan y="-0.4em" font-weight="bold">50-54</tspan><tspan x="0" y="0.7em" fill-opacity="0.7">22,525,490</tspan></text><text transform="translate(-207.21982110258242,-20.68836006583737)"><tspan y="-0.4em" font-weight="bold">55-59</tspan><tspan x="0" y="0.7em" fill-opacity="0.7">21,001,947</tspan></text><text transform="translate(-183.73146994441856,-98.03473594631248)"><tspan y="-0.4em" font-weight="bold">60-64</tspan><tspan x="0" y="0.7em" fill-opacity="0.7">18,415,681</tspan></text><text transform="translate(-142.4318424841485,-151.92508925970955)"><tspan y="-0.4em" font-weight="bold">65-69</tspan><tspan x="0" y="0.7em" fill-opacity="0.7">14,547,446</tspan></text><text transform="translate(-100.25153233266387,-182.53134734875775)"><tspan y="-0.4em" font-weight="bold">70-74</tspan></text><text transform="translate(-65.12097966813467,-197.80627014091942)"><tspan y="-0.4em" font-weight="bold">75-79</tspan></text><text transform="translate(-37.39720529441551,-204.86461757992117)"><tspan y="-0.4em" font-weight="bold">80-84</tspan></text><text transform="translate(-12.612472277305393,-207.86771765489274)"><tspan y="-0.4em" font-weight="bold">≥85</tspan></text></g></svg>