<?xml version="1.0" encoding="UTF-8" standalone="no"?>
<!-- Created with Inkscape (http://www.inkscape.org/) -->

<svg
   version="1.1"
   id="svg3047"
   width="338.66666"
   height="61.333332"
   viewBox="0 0 338.66666 61.333332"
   sodipodi:docname="jukebox-logo.svg"
   inkscape:version="1.1 (c4e8f9e, 2021-05-24)"
   xmlns:inkscape="http://www.inkscape.org/namespaces/inkscape"
   xmlns:sodipodi="http://sodipodi.sourceforge.net/DTD/sodipodi-0.dtd"
   xmlns="http://www.w3.org/2000/svg"
   xmlns:svg="http://www.w3.org/2000/svg">
  <defs
     id="defs3051" />
  <sodipodi:namedview
     id="namedview3049"
     pagecolor="#ffffff"
     bordercolor="#111111"
     borderopacity="1"
     inkscape:pageshadow="0"
     inkscape:pageopacity="0"
     inkscape:pagecheckerboard="1"
     showgrid="false"
     inkscape:zoom="1.8715527"
     inkscape:cx="182.46881"
     inkscape:cy="26.448627"
     inkscape:window-width="1440"
     inkscape:window-height="803"
     inkscape:window-x="0"
     inkscape:window-y="25"
     inkscape:window-maximized="0"
     inkscape:current-layer="layer3" />
  <g
     inkscape:groupmode="layer"
     inkscape:label="Image"
     id="g3053"
     style="display:inline">
    <g
       id="g3212"
       style="fill:#580f78;fill-opacity:0;stroke:none;stroke-opacity:1">
      <g
         id="g3991"
         style="fill:#580f78;fill-opacity:0;stroke:none;stroke-opacity:1">
        <g
           id="g4260"
           style="fill:#580f78;fill-opacity:0;stroke:none;stroke-opacity:1">
          <g
             id="g6264"
             style="fill:#580f78;fill-opacity:0;stroke:none;stroke-opacity:1">
            <g
               id="g7481"
               style="fill:#580f78;fill-opacity:0;stroke:none;stroke-opacity:1">
              <g
                 id="g15546">
                <g
                   id="g16780">
                  <path
                     style="fill:#ff9f58;fill-opacity:0;stroke:#580f78;stroke-width:1;stroke-opacity:1"
                     d="m 281.71186,51.666666 c 6.4718,-10.802874 12.28813,-21.2172 12.28813,-22.002287 0,-0.472678 -3,-6.135806 -6.66666,-12.584729 -3.66667,-6.448922 -6.66667,-12.0300388 -6.66667,-12.4024816 0,-0.3724426 3.88567,-0.6771685 8.63481,-0.6771685 8.62798,0 8.63684,0.00395 11.19144,4.9833746 l 2.55663,4.9833745 2.94025,-4.9833745 c 2.90902,-4.9303895 3.03102,-4.9833746 11.47524,-4.9833746 4.69423,0 8.53496,0.310408 8.53496,0.6897957 0,0.3793876 -3,6.0115874 -6.66666,12.5160004 -3.66667,6.504413 -6.66667,12.161858 -6.66667,12.572102 0,0.689488 6.13588,11.619285 12.28813,21.888768 l 2.59603,4.333333 h -9.13888 c -9.07684,0 -9.15593,-0.03168 -11.65204,-4.666667 -1.38224,-2.566666 -2.9242,-4.666666 -3.42657,-4.666666 -0.50238,0 -2.04434,2.1 -3.42658,4.666666 -2.4961,4.634989 -2.5752,4.666667 -11.65204,4.666667 h -9.13888 z"
                     id="x" />
                  <path
                     style="fill:#ff9f58;fill-opacity:0;stroke:#580f78;stroke-width:1;stroke-opacity:1"
                     d="M 177.33333,29.999999 V 3.9999999 l 11,0.031809 c 14.2402,0.041179 20.95148,1.6662341 24.66667,5.9727401 3.33541,3.866283 3.99538,11.104443 1.39252,15.272289 -1.31892,2.111931 -1.17898,3.047496 0.77965,5.211755 3.46101,3.824366 4.24509,12.192339 1.61837,17.271841 -3.47937,6.728369 -8.01398,8.239565 -24.72433,8.239565 h -14.73288 z"
                     id="b" />
                  <path
                     style="fill:#ff9f58;fill-opacity:0;stroke:#580f78;stroke-width:1;stroke-opacity:1"
                     d="M 140,29.999999 V 3.9999999 h 15.33333 15.33333 v 6.6666661 6.666667 h -7.33333 C 156.4,17.333333 156,17.515152 156,20.666666 c 0,3.151515 0.4,3.333333 7.33333,3.333333 h 7.33333 v 6 6 h -7.33333 c -7.25925,0 -7.33333,0.0404 -7.33333,4 0,3.959596 0.0741,4 7.33333,4 h 7.33333 v 6 6 H 155.33333 140 Z"
                     id="e" />
                  <path
                     style="fill:#ff9f58;fill-opacity:0;stroke:#580f78;stroke-width:1;stroke-opacity:1"
                     d="M 86.666665,29.999999 V 3.9999999 h 8 7.999995 v 5.9999999 c 0,3.3000002 0.45,6.0048812 1,6.0108482 0.55,0.006 3.4,-2.729636 6.33334,-6.0791151 l 5.33333,-6.0899627 9.68496,0.4124481 9.68496,0.4124483 -9.4243,11.7021934 -9.4243,11.702194 9.40601,13.343456 c 5.1733,7.338901 9.406,13.622914 9.406,13.964473 0,0.341558 -4.35,0.59825 -9.66666,0.570425 l -9.66667,-0.05059 -5.05665,-7.282744 c -2.78116,-4.005508 -5.63116,-7.282743 -6.33334,-7.282743 -0.70217,0 -1.27668,3.3 -1.27668,7.333334 v 7.333333 h -7.999995 -8 z"
                     id="k" />
                  <path
                     style="fill:#ff9f58;fill-opacity:0;stroke:#580f78;stroke-width:1;stroke-opacity:1"
                     d="m 1.3333333,50.666666 c 0,-4.952382 0.2666667,-5.333334 3.7333333,-5.333334 2.0533333,0 4.4533332,-0.72 5.3333334,-1.6 1.09526,-1.09526 1.6,-7.614814 1.6,-20.666666 V 3.9999999 h 8.666666 8.666667 l -0.0075,19.6666661 c -0.0041,10.816667 -0.630343,21.909606 -1.391673,24.650977 -0.761331,2.741371 -2.51854,5.59137 -3.904909,6.333333 -1.386338,0.741963 -7.060086,1.349023 -12.608296,1.349023 H 1.3333333 Z"
                     id="j" />
                  <path
                     style="fill:#ff9f58;fill-opacity:0;stroke:#580f78;stroke-width:1;stroke-opacity:1"
                     d="M 238.19354,55.906739 C 210.14546,40.58637 221.78059,4.086798 248.55413,3.8231855 c 9.68334,0.074167 17.18863,3.8332552 23.26664,11.2264025 3.33778,4.152194 4.15414,6.541269 4.59362,13.443207 0.41632,6.538142 -0.0575,9.548308 -2.14354,13.617079 -3.34343,6.521374 -7.55187,10.502014 -13.9129,13.159821 -5.43037,2.268957 -17.24234,2.608453 -22.16441,0.637044 z"
                     id="o"
                     sodipodi:nodetypes="cccsssc" />
                  <path
                     style="fill:#ff9f58;fill-opacity:0;stroke:#580f78;stroke-width:1;stroke-opacity:1"
                     d="M 45.692926,55.356549 C 43.324035,54.326727 40.176278,51.500212 38.69791,49.075406 36.313814,45.165031 36.009405,42.368179 36.004983,24.333333 l -0.005,-20.3333331 h 8 8 V 22.619754 c 0,17.255148 0.195435,18.724349 2.666667,20.046912 3.080802,1.648796 7.203407,-9.35e-4 8.509801,-3.405343 0.452942,-1.18035 0.823532,-9.597018 0.823532,-18.703706 V 3.9999999 h 8.117144 8.117142 l -0.45046,20.9999991 c -0.502347,23.418009 -1.422711,26.276367 -9.730064,30.218462 -5.498594,2.609255 -18.506805,2.682991 -24.360819,0.138088 z"
                     id="u" />
                </g>
              </g>
            </g>
          </g>
        </g>
      </g>
    </g>
    <path
       style="fill:none;stroke:#000000;stroke-width:1px;stroke-linecap:butt;stroke-linejoin:miter;stroke-opacity:1"
       d="m 249.42332,11.166365 c -9.84964,-0.0849 -22.14658,8.161802 -21.25211,20.531705 0.69901,9.666895 11.92977,19.881911 21.61232,19.451088 9.33607,-0.415406 19.26071,-11.187942 19.09088,-20.531704 -0.16663,-9.167817 -10.2821,-19.372052 -19.45109,-19.451089 z"
       id="6"
       sodipodi:nodetypes="sssss" />
  </g>
  <g
     inkscape:groupmode="layer"
     id="layer3"
     inkscape:label="Line"
     style="display:inline">
    <path
       style="display:inline;fill:none;fill-opacity:0;stroke:#000000;stroke-width:1px;stroke-linecap:butt;stroke-linejoin:miter;stroke-opacity:1"
       d="m 5.8881719,51.638112 c 0,0 11.8308311,1.861507 14.9621471,-4.257394 C 20.583115,33.849662 20.295824,9.3853523 20.295824,9.3853523"
       id="1"
       sodipodi:nodetypes="ccc" />
    <path
       style="display:inline;fill:none;fill-opacity:0;stroke:#000000;stroke-width:1px;stroke-linecap:butt;stroke-linejoin:miter;stroke-opacity:1"
       d="m 43.457435,9.1507185 c 0,0 -1.089377,25.8124425 1.82689,35.0777545 0,0 2.009607,8.448385 12.673581,8.180696 10.65942,-0.03611 12.561731,-9.534481 12.561731,-9.534481 C 72.539292,31.06163 72.56177,9.0566744 72.56177,9.0566744"
       id="2"
       sodipodi:nodetypes="cccsc" />
    <path
       style="display:inline;fill:none;fill-opacity:0;stroke:#000000;stroke-width:1px;stroke-linecap:butt;stroke-linejoin:miter;stroke-opacity:1"
       d="M 95.095081,9.5712581 95.403831,51.149627 95.197998,38.799616 121.13302,9.3654246 104.97509,28.405024 l 17.49585,23.46502"
       id="3" />
    <path
       style="display:inline;fill:none;fill-opacity:0;stroke:#000000;stroke-width:1px;stroke-linecap:butt;stroke-linejoin:miter;stroke-opacity:1"
       d="m 166.31347,10.806259 -20.01043,0.102917 -0.10291,39.725867 20.38979,-0.101339 -20.45765,0.128476 0.0856,-20.727384 19.64724,0.03891"
       id="4"
       sodipodi:nodetypes="ccccccc" />
    <path
       style="display:inline;fill:none;fill-opacity:0;stroke:#000000;stroke-width:1px;stroke-linecap:butt;stroke-linejoin:miter;stroke-opacity:1"
       d="m 182.08436,8.6734886 c 0.2316,15.7752204 1.29825,32.8114934 1.21343,43.6562304 10.66372,-0.462237 28.28092,1.993001 30.82983,-11.349998 -0.0842,-4.580946 -5.2688,-8.313658 -7.60422,-11.549077 v 0 c 0,0 4.65041,-6.02396 5.26927,-7.933403 0.68115,-4.383894 -0.76294,-7.960411 -5.08383,-10.233425 C 196.6896,8.1362783 190.44601,7.684229 182.08436,8.6734886"
       id="5"
       sodipodi:nodetypes="cccccccc" />
    <path
       style="display:inline;fill:none;stroke:#000000;stroke-width:1px;stroke-linecap:butt;stroke-linejoin:miter;stroke-opacity:1"
       d="m 291.6168,9.196657 24.47934,42.602161"
       id="8" />
    <path
       style="display:inline;fill:none;stroke:#000000;stroke-width:1px;stroke-linecap:butt;stroke-linejoin:miter;stroke-opacity:1"
       d="M 290.39959,51.798818 314.4732,9.4671469"
       id="7" />
  </g>
  <g
     inkscape:groupmode="layer"
     id="layer2"
     inkscape:label="Inner"
     style="display:inline">
    <path
       style="display:inline;fill:#ff9f58;fill-opacity:0;stroke:#580f78;stroke-width:1;stroke-opacity:1"
       d="M 188,20.284229 V 12.56846 l 3.52173,0.336709 4.56221,0.436189 c 8.15374,0.779572 10.52166,2.347079 10.56231,6.991975 0.0112,1.283333 -1.17959,3.533333 -2.64625,5 -1.95556,1.955556 -4.44444,2.666666 -9.33334,2.666666 H 188 Z"
       id="path20419" />
    <path
       style="display:inline;fill:#ff9f58;fill-opacity:0;stroke:#580f78;stroke-width:1;stroke-opacity:1"
       d="m 188,39.146795 v -8.853204 l 7.21892,0.745059 C 205.39402,32.088814 208,33.774191 208,39.304639 c 0,6.105539 -3.861,8.69536 -12.96335,8.69536 H 188 Z"
       id="path20417" />
    <path
       style="display:inline;fill:#ff9f58;fill-opacity:0;stroke:#580f78;stroke-width:1;stroke-opacity:1"
       d="m 257.60257,38.413734 c 3.97308,-3.732519 4.15189,-11.409956 0.36052,-15.479512 -5.50424,-5.908112 -14.07695,-5.330838 -18.99776,1.27928 -2.03804,2.737693 -2.43283,4.653292 -1.73052,8.396929 0.65144,3.472492 2.12016,5.604155 5.17087,7.504909 5.08025,3.16526 10.68427,2.537774 15.19689,-1.701606 z"
       id="path20407" />
  </g>
</svg>
