<?xml version="1.0" encoding="UTF-8" standalone="no"?>
<!-- Created with Inkscape (http://www.inkscape.org/) -->

<svg
   width="399.67151"
   height="722.8017"
   viewBox="0 0 105.74642 191.24128"
   version="1.1"
   id="svg5"
   inkscape:version="1.1 (c4e8f9e, 2021-05-24)"
   sodipodi:docname="lethal-passage-illustration.svg"
   xmlns:inkscape="http://www.inkscape.org/namespaces/inkscape"
   xmlns:sodipodi="http://sodipodi.sourceforge.net/DTD/sodipodi-0.dtd"
   xmlns="http://www.w3.org/2000/svg"
   xmlns:svg="http://www.w3.org/2000/svg">
  <sodipodi:namedview
     id="namedview7"
     pagecolor="#ffffff"
     bordercolor="#111111"
     borderopacity="1"
     inkscape:pageshadow="0"
     inkscape:pageopacity="0"
     inkscape:pagecheckerboard="false"
     inkscape:document-units="mm"
     showgrid="true"
     units="px"
     inkscape:zoom="0.41255533"
     inkscape:cx="147.85896"
     inkscape:cy="271.47874"
     inkscape:window-width="1440"
     inkscape:window-height="900"
     inkscape:window-x="0"
     inkscape:window-y="0"
     inkscape:window-maximized="0"
     inkscape:current-layer="layer1"
     fit-margin-top="0"
     fit-margin-left="0"
     fit-margin-right="0"
     fit-margin-bottom="0">
    <inkscape:grid
       type="xygrid"
       id="grid833"
       originx="36.954748"
       originy="96.609866"
       dotted="false"
       visible="true"
       snapvisiblegridlinesonly="true" />
  </sodipodi:namedview>
  <defs
     id="defs2" />
  <g
     inkscape:label="Layer 1"
     inkscape:groupmode="layer"
     id="layer1"
     transform="translate(-247.57254,0.7608679)"
     style="display:inline">
    <path
       d="m 348.91028,0.22320616 c -0.1873,0.554668 -0.34578,1.19878604 -0.34578,1.44928104 0,0.751486 -0.34578,1.538742 -1.16701,2.648079 -1.13819,1.538742 -1.7145,2.039732 -5.31638,4.5446611 -0.36018,0.232599 -0.87885,0.590451 -1.1526,0.787268 -0.27374,0.196817 -0.80682,0.5725557 -1.18141,0.8230517 -0.36019,0.26838 -2.27639,1.610316 -4.25023,2.970137 -1.95941,1.377707 -3.73153,2.612287 -3.93323,2.755424 -2.24757,1.610318 -5.51809,3.900544 -6.6851,4.669915 -0.63393,0.429416 -1.19582,0.840946 -1.23904,0.91251 -0.0432,0.07161 -0.34579,0.268391 -0.67715,0.447312 -0.34579,0.196817 -0.61952,0.393633 -0.61952,0.447312 0,0.07161 -0.27375,0.268381 -0.60512,0.465197 -0.34579,0.178931 -0.64834,0.375738 -0.69157,0.429426 -0.0576,0.08948 -4.7833,3.399543 -7.1029,4.974077 -0.33138,0.232599 -0.85004,0.590451 -1.13819,0.805164 -0.28815,0.214703 -2.36283,1.663984 -4.61041,3.220623 -3.31373,2.308123 -4.12054,2.791217 -4.32225,2.648078 -0.69156,-0.518886 -2.33402,0.0716 -4.95619,1.771341 -3.67391,2.397583 -5.374,3.50691 -6.9012,4.50888 -0.86444,0.59045 -1.84417,1.216683 -2.16113,1.413499 -0.31697,0.196817 -0.9653,0.626244 -1.44075,0.930406 -1.18141,0.805164 -4.52396,2.970138 -6.69948,4.383637 -0.99414,0.626233 -1.90181,1.252466 -2.01707,1.377708 -0.11525,0.107357 -0.44663,0.32207 -0.72037,0.447323 -0.27375,0.125242 -0.60512,0.339955 -0.72038,0.447301 -0.11526,0.125253 -0.63393,0.483094 -1.1526,0.805163 -0.97971,0.608336 -4.61041,3.131161 -6.55542,4.544661 -0.389,0.286277 -1.06616,0.858831 -1.49838,1.270361 -1.64246,1.556638 -3.29932,2.415469 -5.22992,2.755424 -1.12379,0.196818 -1.38313,0.357852 -2.17555,1.359822 -1.21023,1.520857 -1.08055,3.954222 0.24493,4.938306 0.51867,0.375737 0.9509,1.055648 0.9509,1.449282 0,0.143139 -0.2161,0.518875 -0.47544,0.858831 -0.96531,1.270361 -1.97385,3.363772 -2.20435,4.562558 -0.21612,1.109338 -0.89327,2.129204 -1.7145,2.576505 -0.31697,0.178932 -1.3543,0.50099 -2.30521,0.715693 -0.95089,0.214713 -2.01705,0.465208 -2.36282,0.572564 -0.95091,0.268381 -2.33402,1.127213 -2.79507,1.735559 -0.40341,0.518876 -0.41781,0.554668 -0.24493,1.556638 0.10089,0.590451 0.25934,1.055649 0.38902,1.109326 0.11525,0.05373 0.74918,-0.125242 1.39752,-0.393622 2.06028,-0.876739 4.58158,-0.805164 6.16642,0.196806 0.70596,0.447312 1.28226,1.4135 1.49838,2.487044 0.12966,0.715693 0.70597,2.075514 1.45515,3.471128 0.53309,0.984073 0.61952,1.288247 0.61952,2.0934 0,2.09341 -1.3687,4.580454 -4.25021,7.675845 -0.63393,0.679903 -1.22463,1.32403 -1.31109,1.43138 -0.10079,0.0895 -0.63393,0.626223 -1.21022,1.163003 -0.5763,0.53677 -2.04588,2.003926 -3.27051,3.238486 -1.22464,1.25248 -2.70861,2.6123 -3.28492,3.04172 -1.41193,1.03776 -1.64245,1.66399 -1.08055,3.02381 0.15848,0.39363 0.34578,0.71569 0.40341,0.71569 0.18729,0 1.59924,2.20077 2.04587,3.16696 0.92207,2.00395 1.70008,5.31404 2.03145,8.55256 0.24493,2.46915 0.21612,10.28812 -0.072,14.68965 -0.18729,2.89857 -0.2017,4.2405 -0.0864,6.79912 0.2017,4.25837 0.34579,5.3856 1.31109,10.27022 0.47545,2.41546 3.93325,15.70952 4.29344,16.47889 0.0721,0.14313 0.2017,0.75147 0.30256,1.34193 0.0864,0.57256 0.25933,1.41349 0.36019,1.8608 0.11525,0.44731 0.30255,1.48507 0.43222,2.29024 0.11526,0.82305 0.24493,1.55663 0.28815,1.64609 0.0432,0.0717 0.1873,0.89463 0.34578,1.80714 1.32549,8.05157 1.48397,8.55256 2.82388,9.42929 1.21022,0.78725 4.71126,1.98605 6.9156,2.36178 0.63394,0.10736 2.16114,0.23261 3.38577,0.30418 5.9359,0.26839 11.94383,-1.59242 18.15347,-5.6182 1.13819,-0.75149 2.24757,-1.48508 2.44927,-1.664 0.20171,-0.16103 0.95091,-0.78726 1.65687,-1.35983 0.72038,-0.57255 1.32549,-1.09144 1.36871,-1.1451 0.0432,-0.0537 0.46104,-0.44733 0.93649,-0.89463 1.12379,-1.03776 2.39165,-2.3618 2.33403,-2.43336 -0.0145,-0.0358 -0.33138,0.0358 -0.67716,0.12524 -0.66274,0.17892 -2.20435,-0.0358 -2.70862,-0.37574 -0.14407,-0.0895 -0.61952,-0.37574 -1.08057,-0.64413 -0.87884,-0.48309 -1.70007,-1.41348 -2.08908,-2.30811 -0.14408,-0.35785 -0.25933,-1.28825 -0.31696,-2.77332 -0.1729,-3.68583 -0.83564,-4.93829 -2.89592,-5.34983 -1.22464,-0.25049 -1.87298,-0.84094 -2.34842,-2.14708 -0.28815,-0.82305 -0.37459,-1.32404 -0.37459,-2.3618 0,-2.36179 0.7636,-3.57848 2.37724,-3.7395 l 0.86445,-0.0895 -0.30257,-0.37573 c -0.1873,-0.2326 -0.59071,-0.42942 -1.06615,-0.50098 -1.45515,-0.23261 -3.76035,-1.80713 -4.19259,-2.8449 -0.10089,-0.21471 -0.24492,-0.44731 -0.33137,-0.51887 -0.28815,-0.23261 -0.1873,-1.78924 0.14408,-2.37969 0.17289,-0.30418 0.36019,-0.82305 0.41782,-1.163 0.0576,-0.33996 0.15848,-0.7157 0.21611,-0.80517 0.14407,-0.25049 0.43223,-2.59439 0.43223,-3.52479 0,-1.03777 -0.24494,-2.05763 -0.59072,-2.48705 -0.15848,-0.19682 -0.74918,-0.66201 -1.32549,-1.03776 -2.07468,-1.35982 -2.75183,-2.03974 -3.34254,-3.34588 -0.31696,-0.71569 -0.389,-1.07355 -0.389,-2.20077 0,-1.44928 0.23052,-2.34389 0.82122,-3.31009 0.33137,-0.53676 0.87886,-1.07353 3.31373,-3.32797 1.85858,-1.71767 2.62217,-2.64807 3.45781,-4.20471 0.43222,-0.80517 0.79241,-1.55664 0.79241,-1.66399 0,-0.0895 -0.34578,-0.2326 -0.74918,-0.30418 -0.41782,-0.0717 -1.10939,-0.32205 -1.52721,-0.55467 -0.41781,-0.2326 -0.80682,-0.4294 -0.87885,-0.4294 -0.072,0 -0.20171,-0.12526 -0.30256,-0.26839 -0.14407,-0.21471 -0.14407,-0.2684 0.0288,-0.2684 0.11525,0 0.27375,0.0895 0.37459,0.21472 0.25934,0.32207 2.47809,0.30417 2.95354,-0.0179 0.33137,-0.21472 0.38901,-0.37575 0.38901,-1.01988 0,-0.89462 -0.25934,-2.5765 -0.44663,-2.86278 -0.23053,-0.35785 -0.9653,-3.48902 -1.16701,-4.90252 -0.20171,-1.50296 -0.24494,-6.28022 -0.0721,-7.53268 l 0.11524,-0.82306 0.82123,0.51887 c 2.14673,1.39561 4.42312,2.03975 6.65628,1.87871 1.62806,-0.10736 2.14673,-0.28627 3.09762,-1.03776 l 0.72038,-0.57255 -1.22464,-0.30417 c -1.44076,-0.37573 -2.1035,-0.6978 -3.14083,-1.55664 -2.10351,-1.71767 -3.28492,-4.222576 -3.44341,-7.21059 -0.0864,-1.860812 0.1009,-3.220633 0.67716,-4.759375 1.02293,-2.773321 2.66539,-4.526776 5.07144,-5.475078 2.13232,-0.823049 5.84946,-0.393623 7.78007,0.894624 1.06614,0.715692 2.29079,2.182871 2.73743,3.274311 0.85004,2.0934 1.05173,3.345865 1.05173,6.870672 0,3.059576 -0.0288,3.292176 -0.4178,4.741456 -0.61954,2.30811 -1.39754,3.81107 -2.82388,5.51085 -2.53572,3.00592 -6.55541,4.77727 -11.59805,5.08143 -0.69156,0.0537 -0.72038,0.0716 -0.7636,0.62624 -0.072,0.82305 0.5907,1.59242 1.49838,1.77134 1.71449,0.32206 5.30197,-0.37573 7.4775,-1.44928 2.85268,-1.3956 4.76889,-2.84488 6.71391,-5.08143 1.556,-1.77135 2.37723,-3.39955 3.11203,-6.15499 0.37459,-1.3956 0.38899,-1.62819 0.38899,-5.224536 0.0145,-2.182873 -0.072,-4.634134 -0.18729,-5.850817 -0.15849,-1.646099 -0.1729,-2.308113 -0.0288,-3.131173 0.44662,-2.77331 1.95942,-4.86672 4.76888,-6.566497 3.28491,-2.003951 3.99089,-2.755435 4.4087,-4.777272 0.21612,-1.019865 0.14408,-1.270361 -1.21022,-4.36574 -2.79507,-6.351797 -3.05439,-7.031707 -3.05439,-7.854757 0,-0.411529 0.0576,-0.823059 0.12966,-0.912519 0.072,-0.107346 0.23052,-0.608337 0.37459,-1.127223 0.20171,-0.787257 0.21611,-1.09143 0.0864,-1.753444 -0.15849,-0.787267 -1.08057,-3.023816 -1.3255,-3.220634 -0.072,-0.05373 -0.12966,-0.232599 -0.12966,-0.393633 0,-0.304174 0.0864,-0.393634 2.16112,-1.878697 1.93061,-1.395603 3.18407,-2.308123 3.60188,-2.630182 0.41782,-0.322071 3.09761,-2.254445 3.31373,-2.379687 0.11526,-0.0716 0.80682,-0.572554 1.51278,-1.109336 0.72039,-0.536763 1.81536,-1.341926 2.44929,-1.789227 0.63393,-0.465208 1.80093,-1.306154 2.59335,-1.896605 0.79241,-0.59045 1.64246,-1.18089 1.87298,-1.324029 0.24491,-0.161034 0.89326,-0.626242 1.44075,-1.037762 l 1.00852,-0.769371 0.1729,-1.288257 c 0.17288,-1.252465 0.27373,-1.628202 0.99411,-3.524796 0.34578,-0.930406 1.19582,-2.665964 1.5272,-3.131162 0.10079,-0.143148 0.38901,-0.59045 0.61953,-1.019876 0.24491,-0.411519 0.74919,-1.163005 1.13818,-1.663985 0.41782,-0.536772 0.59071,-0.894623 0.46105,-0.894623 -0.11527,0 -0.25934,0.08948 -0.30256,0.17892 -0.0576,0.107357 -0.41782,0.41153 -0.82123,0.679911 -1.28227,0.858841 -1.90179,1.288258 -2.57894,1.789237 -0.3746,0.268391 -1.23905,0.876728 -1.93061,1.377717 -0.69156,0.483094 -1.55602,1.109327 -1.93061,1.377719 -0.36019,0.250494 -0.89327,0.626231 -1.16701,0.823048 -0.54749,0.375737 -4.09174,2.898564 -5.08585,3.614267 -0.34578,0.250495 -1.19582,0.840935 -1.88739,1.341925 -0.70596,0.483094 -1.55601,1.091441 -1.88738,1.341935 -1.00853,0.733579 -4.36547,3.095381 -5.01382,3.542693 -0.33137,0.214702 -1.02292,0.715693 -1.54161,1.09143 -0.99411,0.733588 -1.22463,0.751485 -1.35429,0.143138 -0.0864,-0.41153 0.41781,-1.091429 0.99411,-1.306142 0.15848,-0.07161 0.37459,-0.214713 0.48986,-0.322071 0.10079,-0.107346 0.73478,-0.554657 1.38312,-1.001969 0.95089,-0.644128 11.55482,-7.997893 14.82533,-10.270235 0.40341,-0.286277 0.9653,-0.6799 1.23905,-0.858831 0.27373,-0.196817 0.83563,-0.59045 1.22464,-0.876728 0.40341,-0.286276 1.00852,-0.697796 1.36871,-0.912509 0.36019,-0.232599 0.67715,-0.465198 0.72038,-0.518877 0.0432,-0.05373 0.56189,-0.429425 1.1526,-0.823049 0.5907,-0.411529 2.66539,-1.842915 4.61041,-3.18485 1.94501,-1.359822 3.73154,-2.59439 3.96207,-2.737529 0.24492,-0.161034 0.46103,-0.322069 0.50426,-0.393644 0.0432,-0.05363 0.33137,-0.250484 0.64834,-0.429405 0.31696,-0.196827 0.60512,-0.393633 0.64832,-0.465209 0.0432,-0.05363 1.15261,-0.85883 2.49251,-1.77134 l 2.40606,-1.663994 V -0.7608679 h -4.04851 z"
       id="path824"
       style="fill:#1f2932;fill-opacity:1;stroke-width:0.352778" />
  </g>
</svg>
