<svg width="42" height="32" viewBox="0 0 42 32" fill="none" xmlns="http://www.w3.org/2000/svg">
<path d="M28.8398 11.6412L21.2666 0.739964C21.1369 0.553313 20.8625 0.553313 20.7328 0.739964L13.1595 11.6412C13.1135 11.7071 13.0269 11.73 12.9549 11.6946L1.16815 5.93375C0.936463 5.8204 0.672021 6.01032 0.702336 6.26809L3.25662 28.007H3.25689C3.44555 29.8871 11.3171 31.4 21 31.4C30.6831 31.4 38.5544 29.8871 38.743 28.007H38.7433L41.2976 6.26809C41.3279 6.01005 41.0634 5.8204 40.8317 5.93375L29.0447 11.6946C28.9725 11.7297 28.8856 11.7071 28.8398 11.6412ZM35.5943 25.7724C35.5827 25.8718 35.4866 25.9375 35.3908 25.9116C32.1671 25.0419 26.9224 24.4759 20.9997 24.4759C15.0769 24.4759 9.83222 25.0416 6.6083 25.9116C6.51248 25.9375 6.41639 25.8718 6.40476 25.7724L4.74421 11.66C4.7342 11.5741 4.82189 11.5112 4.89903 11.5488L13.9483 15.9715C14.0922 16.0418 14.2655 15.9963 14.3572 15.8641L20.9114 6.42994C20.9545 6.36809 21.0457 6.36809 21.0887 6.42994L27.6427 15.8644C27.7344 15.9965 27.9077 16.0418 28.0516 15.9717L37.1009 11.5491C37.1777 11.5115 37.2657 11.5744 37.2557 11.6602L35.5943 25.7724Z" fill="url(#paint0_linear)"/>
<path d="M25.2923 19.7335C25.5031 18.1787 24.9339 16.8163 24.0212 16.6907C23.1085 16.5648 22.198 17.7234 21.9872 19.2782C21.7766 20.833 22.3455 22.1954 23.2582 22.321C24.1712 22.4466 25.082 21.2883 25.2923 19.7335Z" fill="url(#paint1_linear)"/>
<path d="M32.2227 20.5663C32.3946 19.2976 31.9342 18.1864 31.1939 18.0842C30.4539 17.9823 29.7147 18.9278 29.5426 20.1965C29.3707 21.4652 29.8311 22.5764 30.5714 22.6786C31.3117 22.7808 32.0508 21.835 32.2227 20.5663Z" fill="url(#paint2_linear)"/>
<defs>
<linearGradient id="paint0_linear" x1="41.2999" y1="0.601223" x2="0.934619" y2="0.597604" gradientUnits="userSpaceOnUse">
<stop stop-color="#FFE7B7"/>
<stop offset="0.483062" stop-color="#F9CED5"/>
<stop offset="1" stop-color="#D4F2FE"/>
</linearGradient>
<linearGradient id="paint1_linear" x1="25.3362" y1="16.6816" x2="21.963" y2="16.6814" gradientUnits="userSpaceOnUse">
<stop stop-color="#FFE7B7"/>
<stop offset="0.483062" stop-color="#F9CED5"/>
<stop offset="1" stop-color="#D4F2FE"/>
</linearGradient>
<linearGradient id="paint2_linear" x1="32.2587" y1="18.0769" x2="29.5225" y2="18.0768" gradientUnits="userSpaceOnUse">
<stop stop-color="#FFE7B7"/>
<stop offset="0.483062" stop-color="#F9CED5"/>
<stop offset="1" stop-color="#D4F2FE"/>
</linearGradient>
</defs>
</svg>
