<?xml version="1.0" encoding="UTF-8" standalone="no"?>
<svg
   width="273"
   height="37"
   viewBox="0 0 273 37"
   fill="none"
   version="1.1"
   id="svg908"
   xmlns="http://www.w3.org/2000/svg"
   xmlns:svg="http://www.w3.org/2000/svg">
  <defs
     id="defs912" />
  <path
     d="M40.3214 21.5476C39.0729 24.6983 37.0236 27.4846 34.3679 29.6423C31.7122 31.8 28.5379 33.2577 25.146 33.8772C27.0302 35.8076 29.6177 36.9291 32.3433 36.9968C35.0689 37.0644 37.7111 36.0728 39.6928 34.2384L50.292 24.3692C49.0329 23.0776 47.4469 22.1361 45.6954 21.6405C43.9439 21.1448 42.0896 21.1128 40.3214 21.5476Z"
     fill="#ACACEC"
     id="petal5" />
  <path
     d="M41.3712 10.8003L39.9525 3.26154L33.0985 6.96203C32.3836 7.34779 31.6932 7.77567 31.0311 8.24329L25.146 33.8773L40.3212 21.5477C41.6886 18.1315 42.0523 14.4085 41.3712 10.8003Z"
     fill="#9595EF"
     id="petal4" />
  <path
     opacity="0.5"
     d="M40.3214 21.5478L25.146 33.8774C28.5379 33.2579 31.7122 31.8002 34.3679 29.6425C37.0236 27.4848 39.0729 24.6985 40.3214 21.5478Z"
     fill="#6B6FB4"
     id="path878" />
  <path
     d="M40.3214 21.5478L25.146 33.8774C28.5379 33.2579 31.7122 31.8002 34.3679 29.6425C37.0236 27.4848 39.0729 24.6985 40.3214 21.5478Z"
     fill="#8484F2"
     id="path880" />
  <path
     d="M25.1451 33.8774C21.7531 33.2579 18.5789 31.8002 15.9232 29.6425C13.2674 27.4848 11.2182 24.6985 9.96969 21.5478C8.20161 21.113 6.34749 21.1451 4.59619 21.6408C2.8449 22.1364 1.25898 23.0778 0 24.3692L10.5991 34.2381C12.5807 36.0724 15.223 37.0641 17.9486 36.9964C20.6742 36.9288 23.2618 35.8073 25.146 33.8769L25.1451 33.8774Z"
     fill="#ACACEC"
     id="petal1" />
  <path
     d="M25.1449 33.8773L19.2595 8.24192C18.5977 7.77461 17.9076 7.34699 17.1931 6.96142L10.3391 3.26154L8.92045 10.8003C8.23927 14.4085 8.60293 18.1315 9.97027 21.5477L9.97496 21.5486L25.1449 33.8773Z"
     fill="#9595EF"
     id="petal2" />
  <path
     opacity="0.5"
     d="M25.1448 33.8774L9.9749 21.5487L9.97021 21.5478C11.2187 24.6984 13.2678 27.4847 15.9234 29.6424C18.5789 31.8001 21.753 33.2578 25.1448 33.8774Z"
     fill="#6B6FB4"
     id="path886" />
  <path
     d="M25.1448 33.8774L9.9749 21.5487L9.97021 21.5478C11.2187 24.6984 13.2678 27.4847 15.9234 29.6424C18.5789 31.8001 21.753 33.2578 25.1448 33.8774Z"
     fill="#8484F2"
     id="path888" />
  <path
     d="M29.7231 6.21786L25.1461 0L20.5691 6.21786C14.0624 15.0572 16.122 27.5039 25.1452 33.8773C34.1699 27.5039 36.2296 15.0572 29.7231 6.21786Z"
     fill="#7272F3"
     id="petal3" />
  <path
     d="M79.5047 10.8723C79.4737 9.50694 79.1408 8.16447 78.5289 6.93792C77.9591 5.8409 77.1463 4.88298 76.1503 4.1344C75.0787 3.34758 73.8622 2.77158 72.5678 2.4381C71.0893 2.04954 69.5641 1.85923 68.0336 1.87236C66.9471 1.88134 65.8643 1.99665 64.8012 2.21659C63.6709 2.43811 62.5868 2.84544 61.5947 3.42139C60.6108 3.99375 59.7782 4.78575 59.1646 5.73312C58.4964 6.82173 58.1656 8.07775 58.2126 9.34783C58.2126 10.7577 58.5633 11.9051 59.2649 12.7901C60.0019 13.7035 60.9453 14.436 62.0204 14.9297C63.2683 15.5088 64.5795 15.946 65.9286 16.2327C67.398 16.561 68.8843 16.8725 70.3875 17.1672C71.9236 17.4624 73.4178 17.8149 74.8701 18.2248C76.2455 18.6016 77.5609 19.1643 78.7783 19.8968C79.9143 20.5856 80.8673 21.5295 81.5588 22.6506C82.2606 23.7817 82.6114 25.1997 82.6112 26.9047C82.6112 28.7406 82.2104 30.2816 81.4088 31.5276C80.634 32.7466 79.5999 33.7868 78.3773 34.5768C77.1367 35.3724 75.7628 35.9468 74.3188 36.2734C72.9162 36.6077 71.4788 36.7809 70.0356 36.7898C68.0447 36.8026 66.0595 36.5797 64.123 36.1259C62.3878 35.7296 60.7519 34.9936 59.3134 33.962C57.9334 32.9508 56.8241 31.6257 56.081 30.1007C55.2957 28.5268 54.9196 26.6088 54.9527 24.3466H57.1571C57.0567 26.2823 57.3406 27.9135 58.0089 29.2401C58.65 30.5367 59.6047 31.6595 60.7896 32.5106C62.0441 33.3943 63.4668 34.0215 64.9732 34.3547C66.6314 34.7383 68.3301 34.9282 70.0337 34.9205C71.1887 34.9109 72.3392 34.779 73.4653 34.5269C74.6538 34.277 75.7895 33.8278 76.8224 33.199C77.8461 32.5715 78.7181 31.7323 79.3775 30.74C80.0618 29.7241 80.4042 28.4455 80.4046 26.9041C80.4046 25.4288 80.0539 24.2239 79.3525 23.2894C78.6207 22.3302 77.6678 21.5549 76.5717 21.0271C75.3279 20.421 74.0165 19.9589 72.6639 19.6502C71.2111 19.3059 69.7169 18.9867 68.1812 18.6923C66.678 18.3976 65.1916 18.0533 63.722 17.6596C62.3503 17.3069 61.0351 16.769 59.8141 16.0612C58.703 15.4128 57.7598 14.5208 57.0583 13.4549C56.3574 12.3895 56.0067 11.0207 56.0063 9.34843C55.9629 7.8448 56.3351 6.3577 57.0833 5.04496C57.7747 3.87596 58.7356 2.88226 59.8888 2.14356C61.0798 1.38925 62.3933 0.840168 63.7726 0.519989C65.1659 0.180908 66.5957 0.0075462 68.0312 0.00364349C69.7959 -0.00880146 71.5551 0.197678 73.2671 0.61817C74.7971 0.98809 76.2421 1.63891 77.5256 2.53627C78.7571 3.41929 79.7608 4.57307 80.4564 5.90523C81.2353 7.45241 81.6627 9.14714 81.7091 10.8723H79.5047Z"
     fill="#7272F3"
     id="path892" />
  <path
     d="M103.588 30.9705H103.489C103.175 31.7476 102.735 32.4699 102.186 33.1098C101.589 33.8078 100.888 34.4133 100.107 34.9058C99.2474 35.4487 98.3103 35.8631 97.3264 36.1354C96.2176 36.44 95.0705 36.5889 93.9192 36.5778C91.1802 36.5778 89.0593 35.9959 87.5565 34.8321C86.0538 33.6683 85.3022 31.8732 85.3018 29.4469C85.3018 27.9714 85.6023 26.7665 86.2035 25.8322C86.7738 24.9274 87.5552 24.1689 88.4833 23.6192C89.4285 23.0679 90.4617 22.6771 91.5394 22.4632C92.607 22.2418 93.6861 22.0776 94.7718 21.9714L97.728 21.7257C98.818 21.6695 99.9002 21.5131 100.96 21.2584C101.618 21.1104 102.229 20.8065 102.739 20.3733C103.145 19.9843 103.409 19.4743 103.489 18.9227C103.6 18.1901 103.65 17.45 103.639 16.7095C103.645 16.0496 103.508 15.396 103.238 14.7917C102.952 14.178 102.523 13.6389 101.986 13.2178C101.332 12.7163 100.582 12.3484 99.7815 12.1357C98.7037 11.8517 97.5903 11.7193 96.4746 11.7424C94.1699 11.7424 92.3077 12.2998 90.888 13.4145C89.4684 14.5292 88.6918 16.2177 88.5583 18.48H86.653C86.7859 15.6935 87.6962 13.6033 89.3838 12.2097C91.0713 10.816 93.4679 10.1192 96.5734 10.1194C99.6796 10.1194 101.943 10.7181 103.362 11.9154C104.055 12.4897 104.607 13.2106 104.976 14.024C105.345 14.8375 105.521 15.7223 105.492 16.6122V31.315C105.492 31.6763 105.499 32.0367 105.517 32.3971C105.528 32.7313 105.587 33.0624 105.692 33.3807C105.782 33.6623 105.957 33.9107 106.193 34.0937C106.487 34.2914 106.84 34.3863 107.195 34.3631C107.666 34.3493 108.135 34.3 108.598 34.2155V35.7894C108.091 35.9213 107.569 35.9874 107.044 35.986C106.42 36.0111 105.798 35.9106 105.215 35.6909C104.805 35.5265 104.45 35.2542 104.188 34.904C103.945 34.5572 103.783 34.1628 103.712 33.7482C103.625 33.2694 103.583 32.7837 103.587 32.2974L103.588 30.9705ZM103.588 21.6263C103.032 22.2327 102.279 22.6322 101.458 22.7574C100.408 22.9679 99.3452 23.1158 98.2766 23.2002L95.0701 23.4953C94.1349 23.5935 93.1997 23.7332 92.2646 23.9144C91.3755 24.0784 90.5202 24.3858 89.7335 24.8243C88.9849 25.2473 88.3559 25.8474 87.9039 26.57C87.4003 27.4457 87.1573 28.4426 87.2025 29.4472C87.2025 31.316 87.8038 32.7012 89.0065 33.6028C90.2092 34.5043 91.8625 34.9552 93.9665 34.9554C96.1373 34.9554 97.8574 34.5702 99.1267 33.7997C100.282 33.1345 101.274 32.2277 102.033 31.1438C102.647 30.2674 103.081 29.2819 103.311 28.2424C103.451 27.619 103.543 26.986 103.585 26.3488L103.588 21.6263Z"
     fill="#7272F3"
     id="path894" />
  <path
     d="M111.469 10.6753H113.373V15.8394H113.473C113.682 15.0366 114.038 14.2781 114.526 13.6019C115.03 12.8938 115.648 12.2708 116.355 11.7574C117.856 10.6683 119.673 10.0821 121.539 10.0854C122.627 10.0632 123.711 10.2211 124.746 10.5526C125.581 10.8284 126.361 11.2444 127.051 11.782C127.657 12.2585 128.167 12.8424 128.554 13.5034C128.907 14.1079 129.161 14.7636 129.305 15.4461H129.406C130.173 13.6754 131.2 12.3393 132.485 11.4377C133.771 10.5362 135.466 10.0854 137.571 10.0854C138.671 10.074 139.764 10.2487 140.803 10.6017C141.765 10.9317 142.638 11.4696 143.359 12.1756C144.112 12.937 144.685 13.8522 145.036 14.8558C145.462 16.0905 145.665 17.3885 145.637 18.6917V35.9541H143.734V18.6426C143.734 17.0366 143.483 15.7743 142.982 14.8558C142.563 14.0328 141.954 13.3171 141.203 12.7656C140.595 12.3233 139.893 12.0208 139.149 11.8804C138.628 11.7828 138.101 11.7253 137.571 11.7083C136.465 11.6964 135.367 11.8969 134.339 12.2986C133.359 12.6874 132.485 13.2933 131.783 14.0689C131.027 14.9221 130.456 15.9179 130.106 16.9951C129.685 18.2903 129.482 19.6441 129.505 21.0034V35.9541H127.601V18.6426C127.601 17.0689 127.359 15.8148 126.874 14.8803C126.484 14.0603 125.9 13.3437 125.171 12.7901C124.576 12.3562 123.892 12.0543 123.167 11.905C122.631 11.7913 122.086 11.7255 121.539 11.7083C119.498 11.7385 117.545 12.5297 116.077 13.9213C115.228 14.7453 114.563 15.7334 114.123 16.823C113.594 18.1542 113.339 19.5749 113.372 21.0034V35.9541H111.468L111.469 10.6753Z"
     fill="#7272F3"
     id="path896" />
  <path
     d="M168.386 30.9375H168.285C167.971 31.7146 167.531 32.437 166.983 33.0768C166.386 33.7749 165.685 34.3804 164.904 34.8728C164.044 35.4157 163.107 35.8301 162.123 36.1024C161.014 36.407 159.867 36.5559 158.716 36.5449C155.976 36.5449 153.855 35.963 152.353 34.7992C150.85 33.6354 150.099 31.8403 150.098 29.4139C150.098 27.9384 150.399 26.7335 151 25.7992C151.57 24.8945 152.352 24.1359 153.28 23.5863C154.225 23.035 155.258 22.6442 156.336 22.4303C157.403 22.2088 158.482 22.0447 159.568 21.9385L162.524 21.6927C163.614 21.6365 164.697 21.4801 165.757 21.2255C166.415 21.0776 167.025 20.7737 167.536 20.3403C167.943 19.9515 168.207 19.4413 168.287 18.8895C168.397 18.1569 168.448 17.4168 168.437 16.6762C168.442 16.0164 168.305 15.363 168.034 14.759C167.747 14.1454 167.318 13.6063 166.781 13.1852C166.127 12.6836 165.377 12.3157 164.576 12.1031C163.499 11.819 162.385 11.6866 161.27 11.7098C158.965 11.7098 157.103 12.2671 155.683 13.3818C154.263 14.4965 153.487 16.185 153.353 18.4474H151.45C151.582 15.6608 152.492 13.5707 154.18 12.177C155.868 10.7833 158.264 10.0866 161.37 10.0868C164.476 10.0868 166.739 10.6855 168.159 11.8828C168.852 12.4571 169.403 13.178 169.772 13.9914C170.141 14.8048 170.317 15.6897 170.288 16.5796V31.282C170.288 31.6433 170.296 32.0037 170.313 32.3641C170.325 32.6984 170.384 33.0293 170.488 33.3477C170.579 33.6295 170.755 33.8778 170.992 34.0604C171.285 34.2581 171.638 34.353 171.994 34.3298C172.464 34.316 172.933 34.2667 173.396 34.1823V35.7561C172.89 35.8881 172.367 35.9542 171.843 35.9528C171.219 35.9778 170.597 35.8774 170.014 35.6576C169.604 35.4933 169.248 35.2209 168.986 34.8707C168.744 34.5238 168.582 34.1295 168.51 33.715C168.424 33.2361 168.382 32.7505 168.385 32.2641L168.386 30.9375ZM168.386 21.5933C167.83 22.1997 167.077 22.5992 166.256 22.7245C165.206 22.935 164.143 23.0828 163.075 23.1672L159.868 23.4623C158.933 23.5605 157.998 23.7002 157.063 23.8814C156.174 24.0454 155.318 24.3529 154.532 24.7914C153.783 25.2146 153.154 25.8146 152.702 26.5371C152.199 27.4128 151.956 28.4096 152.001 29.4142C152.001 31.283 152.602 32.6682 153.804 33.5698C155.007 34.4714 156.66 34.9223 158.764 34.9225C160.935 34.9225 162.656 34.5373 163.925 33.7668C165.08 33.1015 166.072 32.1948 166.831 31.1108C167.445 30.2345 167.879 29.2489 168.109 28.2094C168.249 27.5861 168.341 26.953 168.383 26.3159L168.386 21.5933Z"
     fill="#7272F3"
     id="path898" />
  <path
     d="M177.354 18.3968C177.336 15.9496 177.725 13.516 178.506 11.1919C179.217 9.04632 180.349 7.05809 181.838 5.33942C183.313 3.66783 185.143 2.33333 187.199 1.42957C189.462 0.450065 191.915 -0.0364321 194.389 0.00355692C196.243 -0.0349497 198.09 0.23944 199.85 0.814748C201.244 1.28169 202.555 1.9623 203.733 2.83133C204.725 3.57366 205.595 4.46101 206.313 5.46244C206.917 6.30056 207.429 7.19894 207.841 8.14264C208.146 8.84202 208.389 9.566 208.568 10.3065C208.701 10.9137 208.767 11.2499 208.768 11.3149H206.564C206.356 9.91253 205.862 8.56577 205.111 7.3557C204.387 6.20515 203.453 5.1963 202.355 4.38036C201.244 3.5568 199.999 2.92486 198.673 2.51165C195.995 1.64633 193.115 1.58928 190.404 2.34787C187.693 3.10647 185.276 4.64582 183.466 6.76692C182.166 8.31462 181.179 10.0928 180.561 12.0052C179.224 16.1665 179.224 20.6307 180.561 24.792C181.179 26.7045 182.165 28.4827 183.466 30.0302C184.795 31.5998 186.467 32.855 188.358 33.7023C190.249 34.5495 192.31 34.967 194.389 34.9237C196.077 34.9343 197.747 34.5729 199.274 33.8662C200.766 33.1806 202.116 32.2303 203.257 31.0629C204.401 29.8863 205.325 28.5213 205.988 27.0304C206.666 25.5301 207.065 23.9226 207.165 22.2842H209.369C209.193 24.2944 208.659 26.2587 207.791 28.0876C206.985 29.7929 205.883 31.348 204.535 32.6835C203.222 33.9742 201.664 35.0011 199.951 35.7067C198.19 36.4324 196.298 36.8005 194.389 36.7888C191.916 36.8289 189.463 36.3423 187.2 35.3625C185.143 34.4593 183.313 33.1248 181.839 31.453C180.349 29.7344 179.217 27.7461 178.507 25.6005C177.726 23.2768 177.336 20.8436 177.354 18.3968Z"
     fill="#7272F3"
     id="path900" />
  <path
     d="M230.112 30.9375H230.011C229.697 31.7146 229.257 32.437 228.709 33.0768C228.112 33.7748 227.411 34.3803 226.63 34.8728C225.77 35.4157 224.833 35.8301 223.849 36.1024C222.74 36.407 221.593 36.5559 220.442 36.5448C217.702 36.5448 215.581 35.9629 214.079 34.7991C212.576 33.6353 211.824 31.84 211.823 29.413C211.823 27.9375 212.124 26.7326 212.725 25.7983C213.295 24.8935 214.077 24.135 215.005 23.5853C215.95 23.0341 216.983 22.6432 218.061 22.4293C219.128 22.2079 220.208 22.0437 221.293 21.9375L224.249 21.6918C225.339 21.6356 226.422 21.4792 227.482 21.2245C228.14 21.0766 228.75 20.7727 229.261 20.3394C229.668 19.9506 229.932 19.4404 230.012 18.8885C230.123 18.1559 230.173 17.4158 230.162 16.6753C230.168 16.0154 230.032 15.3618 229.762 14.7575C229.475 14.1438 229.046 13.6047 228.509 13.1836C227.855 12.6821 227.106 12.3142 226.304 12.1015C225.227 11.8175 224.113 11.6851 222.998 11.7082C220.693 11.7082 218.831 12.2656 217.411 13.3803C215.991 14.495 215.215 16.1835 215.081 18.4458H213.177C213.31 15.6593 214.22 13.5691 215.908 12.1755C217.595 10.7818 219.992 10.085 223.097 10.0852C226.204 10.0852 228.466 10.6839 229.886 11.8812C230.579 12.4555 231.131 13.1764 231.5 13.9898C231.868 14.8033 232.045 15.6881 232.016 16.578V31.282C232.016 31.6432 232.024 32.0039 232.041 32.3641C232.053 32.6983 232.112 33.0293 232.216 33.3477C232.306 33.6293 232.481 33.8777 232.717 34.0607C233.011 34.2584 233.364 34.3533 233.719 34.3301C234.19 34.3163 234.659 34.267 235.122 34.1825V35.7564C234.615 35.8883 234.093 35.9544 233.569 35.953C232.945 35.9781 232.322 35.8776 231.739 35.6579C231.329 35.4935 230.974 35.2212 230.712 34.871C230.47 34.5241 230.307 34.1298 230.236 33.7153C230.149 33.2364 230.107 32.7508 230.111 32.2644L230.112 30.9375ZM230.112 21.5933C229.556 22.1996 228.804 22.5991 227.982 22.7245C226.932 22.9349 225.869 23.0828 224.801 23.1672L221.594 23.4623C220.659 23.5605 219.724 23.7002 218.789 23.8814C217.9 24.0454 217.044 24.3529 216.258 24.7913C215.509 25.2145 214.88 25.8146 214.428 26.537C213.925 27.4127 213.682 28.4096 213.727 29.4142C213.727 31.283 214.328 32.6682 215.53 33.5698C216.733 34.4714 218.386 34.9223 220.49 34.9225C222.661 34.9225 224.381 34.5372 225.651 33.7667C226.806 33.1014 227.798 32.1947 228.557 31.1108C229.171 30.2344 229.605 29.2489 229.835 28.2094C229.975 27.586 230.067 26.953 230.109 26.3158L230.112 21.5933Z"
     fill="#7272F3"
     id="path902" />
  <path
     d="M239.982 16.2821H240.132C240.383 15.4302 240.819 14.6418 241.41 13.9707C242.051 13.23 242.813 12.5985 243.664 12.1017C244.585 11.5626 245.581 11.1568 246.621 10.8969C247.724 10.6166 248.863 10.4925 250.002 10.5281V12.3968C248.85 12.2781 247.684 12.3783 246.57 12.6919C245.171 13.0851 243.902 13.8311 242.888 14.8558C242.453 15.3094 242.043 15.7855 241.66 16.2821C241.303 16.7518 241.009 17.264 240.783 17.8066C240.536 18.4096 240.351 19.0357 240.233 19.6753C240.085 20.4875 240.002 21.3096 239.982 22.1343V35.9541H238.079V10.6754H239.983L239.982 16.2821Z"
     fill="#7272F3"
     id="path904" />
  <path
     d="M252.106 23.5593V23.8545C252.1 25.2854 252.303 26.7098 252.709 28.084C253.077 29.3618 253.681 30.5621 254.492 31.6248C255.279 32.641 256.293 33.4656 257.456 34.0347C258.747 34.6474 260.167 34.9509 261.601 34.9201C264.179 34.9201 266.222 34.2561 267.73 32.9281C269.238 31.6 270.276 29.7558 270.845 27.3952H272.749C272.18 30.3462 270.952 32.6086 269.066 34.1823C267.18 35.7559 264.683 36.5428 261.576 36.5428C259.858 36.5811 258.153 36.2364 256.591 35.5346C255.208 34.892 253.992 33.9505 253.033 32.7808C252.05 31.557 251.326 30.1526 250.904 28.65C250.425 26.978 250.189 25.2478 250.203 23.5108C250.196 21.7893 250.44 20.0756 250.929 18.4222C251.375 16.874 252.114 15.4223 253.109 14.1436C254.083 12.9091 255.323 11.9015 256.741 11.1928C258.337 10.4228 260.099 10.0428 261.877 10.0853C263.527 10.0532 265.163 10.3895 266.661 11.0689C268.011 11.6969 269.2 12.6126 270.143 13.7491C271.099 14.9177 271.821 16.2524 272.273 17.6835C272.766 19.2355 273.011 20.8531 272.999 22.4788C272.999 22.643 272.991 22.8315 272.974 23.0442C272.957 23.2579 272.949 23.43 272.949 23.5605L252.106 23.5593ZM271.045 21.9364C270.987 20.6086 270.751 19.2941 270.343 18.0268C269.966 16.8427 269.361 15.7407 268.56 14.7809C267.774 13.8479 266.799 13.0858 265.696 12.5431C264.501 11.9697 263.184 11.6831 261.854 11.7071C260.448 11.6783 259.054 11.973 257.785 12.5676C256.649 13.1134 255.64 13.8836 254.821 14.83C253.998 15.7965 253.367 16.9058 252.961 18.1005C252.527 19.34 252.257 20.6292 252.157 21.9364H271.045Z"
     fill="#7272F3"
     id="path906" />
</svg>
