<?xml version="1.0" encoding="UTF-8"?>
<svg width="605.25" height="761.48" data-name="Layer 1" version="1.1" viewBox="0 0 605.25 761.48" xmlns="http://www.w3.org/2000/svg" xmlns:cc="http://creativecommons.org/ns#" xmlns:dc="http://purl.org/dc/elements/1.1/" xmlns:rdf="http://www.w3.org/1999/02/22-rdf-syntax-ns#">
 <defs>
  <linearGradient id="c07350d9-0c50-4d35-b63a-3c71f5ac29f1-175" x1="304.32" x2="304.32" y1="452.8" y2="148.23" gradientUnits="userSpaceOnUse">
   <stop stop-color="gray" stop-opacity=".25" offset="0"/>
   <stop stop-color="gray" stop-opacity=".12" offset=".54"/>
   <stop stop-color="gray" stop-opacity=".1" offset="1"/>
  </linearGradient>
 </defs>
 <title>broadcast</title>
 <g fill="#6c63ff">
  <path transform="translate(-297.37 -69.26)" d="m847.51 148.64a84.83 84.83 0 0 1 31.57 57.89 6.66 6.66 0 0 0 6.82 6l10.24-0.3a6.68 6.68 0 0 0 6.46-7.31 108.65 108.65 0 0 0-113.2-98.3 6.69 6.69 0 0 0-6.34 7.42l1.14 10.18a6.65 6.65 0 0 0 6.85 5.92 84.79 84.79 0 0 1 56.46 18.5z"/>
  <path transform="translate(-297.37 -69.26)" d="m839.34 158.88a84.78 84.78 0 0 0-55.4-18.56 6.67 6.67 0 0 0-6.42 7.42l0.85 7.59a6.66 6.66 0 0 0 6.74 5.92 64.15 64.15 0 0 1 64.79 56.22 6.68 6.68 0 0 0 6.81 5.89l7.63-0.22a6.66 6.66 0 0 0 6.45-7.37 84.82 84.82 0 0 0-31.45-56.89z"/>
  <path transform="translate(-297.37 -69.26)" d="m807.48 198.8a47 47 0 0 1 17.15 29.52 6.73 6.73 0 0 0 6.81 5.77l3.69-0.11a6.69 6.69 0 0 0 6.41-7.69 64.15 64.15 0 0 0-63.32-54.82 6.64 6.64 0 0 0-6.52 7.42l0.41 3.68a6.73 6.73 0 0 0 6.67 5.93 46.94 46.94 0 0 1 28.7 10.3z"/>
  <path transform="translate(-297.37 -69.26)" d="m352.49 148.64a84.83 84.83 0 0 0-31.57 57.89 6.66 6.66 0 0 1-6.82 6l-10.24-0.3a6.68 6.68 0 0 1-6.46-7.31 108.65 108.65 0 0 1 113.2-98.3 6.69 6.69 0 0 1 6.34 7.42l-1.14 10.16a6.65 6.65 0 0 1-6.85 5.92 84.79 84.79 0 0 0-56.46 18.52z"/>
  <path transform="translate(-297.37 -69.26)" d="m360.66 158.88a84.78 84.78 0 0 1 55.4-18.56 6.67 6.67 0 0 1 6.42 7.42l-0.85 7.59a6.66 6.66 0 0 1-6.74 5.92 64.15 64.15 0 0 0-64.79 56.22 6.68 6.68 0 0 1-6.81 5.89l-7.63-0.22a6.66 6.66 0 0 1-6.45-7.37 84.82 84.82 0 0 1 31.45-56.89z"/>
  <path transform="translate(-297.37 -69.26)" d="m392.52 198.8a47 47 0 0 0-17.15 29.52 6.73 6.73 0 0 1-6.81 5.77l-3.69-0.11a6.69 6.69 0 0 1-6.41-7.69 64.15 64.15 0 0 1 63.32-54.82 6.64 6.64 0 0 1 6.52 7.42l-0.41 3.68a6.73 6.73 0 0 1-6.67 5.93 46.94 46.94 0 0 0-28.7 10.3z"/>
 </g>
 <path transform="translate(-297.37 -69.26)" d="m577.93 822.91v-734.66a19 19 0 0 1 19-19h11.26a19 19 0 0 1 19 19v734.66c-0.02 10.44-49.26 10.44-49.26 0z" fill="#535461"/>
 <rect x="120.96" y="148.23" width="366.73" height="304.56" rx="44.36" ry="44.36" fill="url(#c07350d9-0c50-4d35-b63a-3c71f5ac29f1-175)"/>
 <rect x="125.44" y="152.71" width="358.31" height="295.61" rx="44.36" ry="44.36" fill="#fff"/>
 <path transform="translate(-297.37 -69.26)" d="m618.47 344.61a4.76 4.76 0 0 1 4.75 4.75v40.83a4.76 4.76 0 0 1-4.75 4.75h-36.94a4.76 4.76 0 0 1-4.75-4.75v-40.83a4.76 4.76 0 0 1 4.75-4.75h36.95m0-2h-36.95a6.75 6.75 0 0 0-6.75 6.75v40.83a6.75 6.75 0 0 0 6.75 6.75h36.95a6.75 6.75 0 0 0 6.75-6.75v-40.83a6.75 6.75 0 0 0-6.75-6.75z" fill="#e0e0e0"/>
 <line x1="302.63" x2="302.63" y1="288.42" y2="299.88" fill="none" stroke="#6c63ff" stroke-linecap="round" stroke-miterlimit="10" stroke-width="2"/>
 <path transform="translate(-297.37 -69.26)" d="M604.8,362.7a10.19,10.19,0,1,1-9.42-.09" fill="none" stroke="#6c63ff" stroke-linecap="round" stroke-miterlimit="10" stroke-width="2"/>
 <metadata>
  <rdf:RDF>
   <cc:Work rdf:about="">
    <dc:title>broadcast</dc:title>
   </cc:Work>
  </rdf:RDF>
 </metadata>
 <style>.s0 { fill: #ea3827 }</style>
 <style>.s0 { fill: #ea3827 }</style>
 <path class="s0" d="m288.52 270.15c16.803-7.794 36.766-0.48611 44.561 16.309 8.0371 16.803 0.7291 37.018-16.317 44.804-16.795 7.794-36.766 0.49422-44.561-16.309-7.7859-16.803-0.7291-36.767 16.317-44.804zm64.775 10.711v-25.075h-19.242v-13.636h32.878v38.711zm-114.93 0v-38.711h32.87v13.636h-19.234v25.075zm13.636 39.934v25.084h19.234v13.636h-32.626v-38.719zm115.18 0v38.719h-32.635v-13.636h18.999v-25.084z" fill-rule="evenodd"/>
</svg>
