<svg class="plot" fill="currentColor" text-anchor="middle" width="640" height="250" viewBox="0 0 640 250" xmlns="http://www.w3.org/2000/svg" xmlns:xlink="http://www.w3.org/1999/xlink"><g transform="translate(40,0)" fill="none" text-anchor="end"><g class="tick" opacity="1" transform="translate(0,220)"><line stroke="currentColor" x2="-6"/><text fill="currentColor" x="-9" dy="0.32em">0</text></g><g class="tick" opacity="1" transform="translate(0,180)"><line stroke="currentColor" x2="-6"/><text fill="currentColor" x="-9" dy="0.32em">1</text></g><g class="tick" opacity="1" transform="translate(0,140)"><line stroke="currentColor" x2="-6"/><text fill="currentColor" x="-9" dy="0.32em">2</text></g><g class="tick" opacity="1" transform="translate(0,100)"><line stroke="currentColor" x2="-6"/><text fill="currentColor" x="-9" dy="0.32em">3</text></g><g class="tick" opacity="1" transform="translate(0,59.99999999999999)"><line stroke="currentColor" x2="-6"/><text fill="currentColor" x="-9" dy="0.32em">4</text></g><g class="tick" opacity="1" transform="translate(0,20)"><line stroke="currentColor" x2="-6"/><text fill="currentColor" x="-9" dy="0.32em">5</text></g><text fill="currentColor" transform="translate(-40,20)" dy="-1em" text-anchor="start">Interest rates vs. CBO 2012 estimates (%)</text></g><g transform="translate(0,220)" fill="none" text-anchor="middle"><g class="tick" opacity="1" transform="translate(71,0)"><line stroke="currentColor" y2="6"/><text fill="currentColor" y="9" dy="0.71em">2012</text></g><g class="tick" opacity="1" transform="translate(123,0)"><line stroke="currentColor" y2="6"/><text fill="currentColor" y="9" dy="0.71em">2013</text></g><g class="tick" opacity="1" transform="translate(175,0)"><line stroke="currentColor" y2="6"/><text fill="currentColor" y="9" dy="0.71em">2014</text></g><g class="tick" opacity="1" transform="translate(227,0)"><line stroke="currentColor" y2="6"/><text fill="currentColor" y="9" dy="0.71em">2015</text></g><g class="tick" opacity="1" transform="translate(279,0)"><line stroke="currentColor" y2="6"/><text fill="currentColor" y="9" dy="0.71em">2016</text></g><g class="tick" opacity="1" transform="translate(331,0)"><line stroke="currentColor" y2="6"/><text fill="currentColor" y="9" dy="0.71em">2017</text></g><g class="tick" opacity="1" transform="translate(383,0)"><line stroke="currentColor" y2="6"/><text fill="currentColor" y="9" dy="0.71em">2018</text></g><g class="tick" opacity="1" transform="translate(435,0)"><line stroke="currentColor" y2="6"/><text fill="currentColor" y="9" dy="0.71em">2019</text></g><g class="tick" opacity="1" transform="translate(487,0)"><line stroke="currentColor" y2="6"/><text fill="currentColor" y="9" dy="0.71em">2020</text></g><g class="tick" opacity="1" transform="translate(539,0)"><line stroke="currentColor" y2="6"/><text fill="currentColor" y="9" dy="0.71em">2021</text></g><g class="tick" opacity="1" transform="translate(591,0)"><line stroke="currentColor" y2="6"/><text fill="currentColor" y="9" dy="0.71em">2022</text></g></g><g><rect x="47.5" width="46" y="147.64" height="72.36000000000001" fill="rgb(70, 130, 180)"/><rect x="99.5" width="46" y="136.9829012" height="83.01709880000001" fill="rgb(70, 130, 180)"/><rect x="151.5" width="46" y="109.60000000000002" height="110.39999999999998" fill="rgb(70, 130, 180)"/><rect x="203.5" width="46" y="130" height="90" fill="rgb(70, 130, 180)"/><rect x="255.5" width="46" y="145.16000000000003" height="74.83999999999997" fill="rgb(70, 130, 180)"/><rect x="307.5" width="46" y="122.76" height="97.24" fill="rgb(70, 130, 180)"/><rect x="359.5" width="46" y="99.28000000000002" height="120.71999999999998" fill="rgb(70, 130, 180)"/><rect x="411.5" width="46" y="127.75999999999999" height="92.24000000000001" fill="rgb(70, 130, 180)"/><rect x="463.5" width="46" y="184.95999999999998" height="35.04000000000002" fill="rgb(70, 130, 180)"/></g><g fill="none" stroke="black"><rect x="47" width="47" y="147.64" height="72.36000000000001"/><rect x="99" width="47" y="150" height="70"/><rect x="151" width="47" y="123" height="97"/><rect x="203" width="47" y="98.48000000000002" height="121.51999999999998"/><rect x="255" width="47" y="68" height="152"/><rect x="307" width="47" y="42" height="178"/><rect x="359" width="47" y="26.000000000000004" height="194"/><rect x="411" width="47" y="20" height="200"/><rect x="463" width="47" y="20" height="200"/><rect x="515" width="47" y="20" height="200"/><rect x="567" width="47" y="20" height="200"/></g><g fill="white" transform="translate(23.5,0)"><text dy="12" x="203" y="130">74%</text><text dy="12" x="255" y="145.16000000000003">49%</text><text dy="12" x="307" y="122.76">55%</text><text dy="12" x="359" y="99.28000000000002">62%</text><text dy="12" x="411" y="127.75999999999999">46%</text><text dy="12" x="463" y="184.95999999999998">18%</text></g><g transform="translate(23.5,0)"><text dy="-4" x="99" y="136.9829012">119%</text><text dy="-4" x="151" y="109.60000000000002">114%</text></g><g stroke="currentColor"><line x1="40" x2="620" y1="220" y2="220"/></g></svg>