<svg viewBox="0,0,1152,640" width="1152" height="640" xmlns="http://www.w3.org/2000/svg" xmlns:xlink="http://www.w3.org/1999/xlink"><g transform="translate(576 320)" font-family="sans-serif"><path d="M-277.1281292110204,240L277.1281292110204,240L1.9594348786357652e-14,-240Z" fill="#ececec" stroke="none"/><g><g><line x1="277.1281292110204" y1="240" x2="-277.1281292110204" y2="240" stroke="#fff" stroke-width="2"/><line x1="249.41531628991834" y1="192" x2="-249.41531628991834" y2="192" stroke="#fff" stroke-width="1"/><line x1="221.7025033688163" y1="144" x2="-221.7025033688163" y2="144" stroke="#fff" stroke-width="2"/><line x1="193.98969044771428" y1="95.99999999999997" x2="-193.98969044771422" y2="96" stroke="#fff" stroke-width="1"/><line x1="166.27687752661222" y1="48" x2="-166.2768775266122" y2="48" stroke="#fff" stroke-width="2"/><line x1="138.5640646055102" y1="0" x2="-138.56406460551017" y2="0" stroke="#fff" stroke-width="1"/><line x1="110.85125168440814" y1="-48.00000000000006" x2="-110.85125168440811" y2="-48.00000000000006" stroke="#fff" stroke-width="2"/><line x1="83.13843876330611" y1="-96.00000000000006" x2="-83.13843876330608" y2="-96.00000000000003" stroke="#fff" stroke-width="1"/><line x1="55.425625842204056" y1="-144" x2="-55.42562584220404" y2="-144.00000000000003" stroke="#fff" stroke-width="2"/><line x1="27.712812921102028" y1="-192" x2="-27.71281292110201" y2="-192" stroke="#fff" stroke-width="1"/></g><g><line x1="1.9594348786357652e-14" y1="-240" x2="277.1281292110204" y2="240" stroke="#fff" stroke-width="2"/><line x1="-27.71281292110202" y1="-192" x2="221.70250336881634" y2="240" stroke="#fff" stroke-width="1"/><line x1="-55.42562584220406" y1="-144" x2="166.27687752661228" y2="240" stroke="#fff" stroke-width="2"/><line x1="-83.13843876330611" y1="-95.99999999999997" x2="110.85125168440811" y2="240" stroke="#fff" stroke-width="1"/><line x1="-110.85125168440815" y1="-48" x2="55.425625842204056" y2="240" stroke="#fff" stroke-width="2"/><line x1="-138.56406460551017" y1="0" x2="0" y2="240" stroke="#fff" stroke-width="1"/><line x1="-166.27687752661222" y1="48.00000000000006" x2="-55.42562584220414" y2="240" stroke="#fff" stroke-width="2"/><line x1="-193.98969044771425" y1="96.00000000000006" x2="-110.8512516844082" y2="240" stroke="#fff" stroke-width="1"/><line x1="-221.7025033688163" y1="144" x2="-166.27687752661228" y2="240" stroke="#fff" stroke-width="2"/><line x1="-249.41531628991834" y1="192" x2="-221.70250336881634" y2="240" stroke="#fff" stroke-width="1"/></g><g><line x1="-277.1281292110204" y1="240" x2="0" y2="-240" stroke="#fff" stroke-width="2"/><line x1="-221.7025033688163" y1="240" x2="27.712812921102028" y2="-192" stroke="#fff" stroke-width="1"/><line x1="-166.27687752661222" y1="240" x2="55.425625842204056" y2="-144" stroke="#fff" stroke-width="2"/><line x1="-110.85125168440814" y1="240" x2="83.13843876330614" y2="-96" stroke="#fff" stroke-width="1"/><line x1="-55.425625842204056" y1="240" x2="110.85125168440817" y2="-48" stroke="#fff" stroke-width="2"/><line x1="0" y1="240" x2="138.5640646055102" y2="0" stroke="#fff" stroke-width="1"/><line x1="55.42562584220411" y1="240" x2="166.27687752661228" y2="48.00000000000006" stroke="#fff" stroke-width="2"/><line x1="110.85125168440817" y1="240" x2="193.98969044771428" y2="96.00000000000003" stroke="#fff" stroke-width="1"/><line x1="166.27687752661228" y1="240" x2="221.70250336881634" y2="144.00000000000003" stroke="#fff" stroke-width="2"/><line x1="221.70250336881634" y1="240" x2="249.41531628991837" y2="192" stroke="#fff" stroke-width="1"/></g></g><g font-size="10"><g><text transform="translate(277.1281292110204,240) rotate(0)" text-anchor="start" dx="10" dy=".3em">0</text><text transform="translate(221.7025033688163,144) rotate(0)" text-anchor="start" dx="10" dy=".3em">20</text><text transform="translate(166.27687752661222,48) rotate(0)" text-anchor="start" dx="10" dy=".3em">40</text><text transform="translate(110.85125168440817,-48) rotate(0)" text-anchor="start" dx="10" dy=".3em">60</text><text transform="translate(55.425625842204056,-144) rotate(0)" text-anchor="start" dx="10" dy=".3em">80</text><text transform="translate(0,-240) rotate(0)" text-anchor="start" dx="10" dy=".3em">100</text></g><g><text transform="translate(1.9594348786357652e-14,-240) rotate(60)" text-anchor="end" dx="-10" dy=".3em">0</text><text transform="translate(-55.42562584220406,-144) rotate(60)" text-anchor="end" dx="-10" dy=".3em">20</text><text transform="translate(-110.85125168440815,-48) rotate(60)" text-anchor="end" dx="-10" dy=".3em">40</text><text transform="translate(-166.2768775266122,48) rotate(60)" text-anchor="end" dx="-10" dy=".3em">60</text><text transform="translate(-221.7025033688163,144) rotate(60)" text-anchor="end" dx="-10" dy=".3em">80</text><text transform="translate(-277.1281292110204,240) rotate(60)" text-anchor="end" dx="-10" dy=".3em">100</text></g><g><text transform="translate(-277.1281292110204,240) rotate(-60)" text-anchor="end" dx="-10" dy=".3em">0</text><text transform="translate(-166.27687752661222,240) rotate(-60)" text-anchor="end" dx="-10" dy=".3em">20</text><text transform="translate(-55.425625842204056,240) rotate(-60)" text-anchor="end" dx="-10" dy=".3em">40</text><text transform="translate(55.425625842204056,240) rotate(-60)" text-anchor="end" dx="-10" dy=".3em">60</text><text transform="translate(166.27687752661228,240) rotate(-60)" text-anchor="end" dx="-10" dy=".3em">80</text><text transform="translate(277.1281292110204,240) rotate(-60)" text-anchor="end" dx="-10" dy=".3em">100</text></g></g><g font-size="16"><text transform="translate(173.20508075688775,-20) rotate(60)" text-anchor="middle">Service</text><text transform="translate(-173.20508075688772,-20) rotate(-60)" text-anchor="middle">Agriculture</text><text transform="translate(0,280) rotate(0)" text-anchor="middle">Industry</text></g><circle r="5" cx="50.43731951640572" cy="-125.51999999999998" fill="#8dd3c7" stroke="#ddd"><title>Djibouti</title></circle><circle r="5" cx="-66.51075101064488" cy="28.560000000000002" fill="#8dd3c7" stroke="#ddd"><title>Burundi</title></circle><circle r="5" cx="-104.47730471255468" cy="54.24000000000001" fill="#8dd3c7" stroke="#ddd"><title>Comoros</title></circle><circle r="5" cx="49.60593512877267" cy="-41.75999999999999" fill="#8dd3c7" stroke="#ddd"><title>Eritrea</title></circle><circle r="5" cx="-37.68942557269875" cy="38.39999999999999" fill="#8dd3c7" stroke="#ddd"><title>Ethiopia</title></circle><circle r="5" cx="-50.16019138719468" cy="11.040000000000006" fill="#8dd3c7" stroke="#ddd"><title>Kenya</title></circle><circle r="5" cx="-21.338865949248554" cy="-49.44" fill="#8dd3c7" stroke="#ddd"><title>Madagascar</title></circle><circle r="5" cx="-34.08675989295549" cy="-29.279999999999987" fill="#8dd3c7" stroke="#ddd"><title>Malawi</title></circle><circle r="5" cx="49.32880699956164" cy="-116.16000000000001" fill="#8dd3c7" stroke="#ddd"><title>Mauritius</title></circle><circle r="5" cx="1.9398969044771555" cy="-22.560000000000002" fill="#8dd3c7" stroke="#ddd"><title>Mozambique</title></circle><circle r="5" cx="-36.858041185065694" cy="-7.199999999999989" fill="#8dd3c7" stroke="#ddd"><title>Rwanda</title></circle><circle r="5" cx="31.315478600845324" cy="-161.76" fill="#8dd3c7" stroke="#ddd"><title>Seychelles</title></circle><circle r="5" cx="-146.32365222341878" cy="84.23999999999998" fill="#8dd3c7" stroke="#ddd"><title>Somalia</title></circle><circle r="5" cx="14.41066271897308" cy="10.560000000000002" fill="#8dd3c7" stroke="#ddd"><title>Tanzania</title></circle><circle r="5" cx="-7.205331359486526" cy="-4.800000000000011" fill="#8dd3c7" stroke="#ddd"><title>Uganda</title></circle><circle r="5" cx="83.69269502172817" cy="-43.19999999999999" fill="#8dd3c7" stroke="#ddd"><title>Zambia</title></circle><circle r="5" cx="39.90645060638695" cy="-50.879999999999995" fill="#8dd3c7" stroke="#ddd"><title>Zimbabwe</title></circle><circle r="5" cx="141.88960215604246" cy="103.68" fill="#8dd3c7" stroke="#ddd"><title>Angola</title></circle><circle r="5" cx="13.579278331340001" cy="5.280000000000001" fill="#8dd3c7" stroke="#ddd"><title>Cameroon</title></circle><circle r="5" cx="-74.82459488697549" cy="42.24000000000001" fill="#8dd3c7" stroke="#ddd"><title>Central African Republic</title></circle><circle r="5" cx="-124.43053001574816" cy="110.64" fill="#8dd3c7" stroke="#ddd"><title>Chad</title></circle><circle r="5" cx="32.97824737611142" cy="19.680000000000007" fill="#8dd3c7" stroke="#ddd"><title>Congo, Democratic Republic of the</title></circle><circle r="5" cx="116.11668613941754" cy="46.56" fill="#8dd3c7" stroke="#ddd"><title>Congo, Republic of the</title></circle><circle r="5" cx="149.64918977395104" cy="43.19999999999999" fill="#8dd3c7" stroke="#ddd"><title>Equatorial Guinea</title></circle><circle r="5" cx="109.46561103835306" cy="-7.200000000000003" fill="#8dd3c7" stroke="#ddd"><title>Gabon</title></circle><circle r="5" cx="8.31384387633063" cy="-112.32" fill="#8dd3c7" stroke="#ddd"><title>Sao Tome and Principe</title></circle><circle r="5" cx="63.462341589323685" cy="-3.3600000000000136" fill="#8dd3c7" stroke="#ddd"><title>Algeria</title></circle><circle r="5" cx="58.751163392736345" cy="-25.680000000000007" fill="#8dd3c7" stroke="#ddd"><title>Egypt</title></circle><circle r="5" cx="173.20508075688772" cy="72.48" fill="#8dd3c7" stroke="#ddd"><title>Libya</title></circle><circle r="5" cx="39.629322477175926" cy="-29.039999999999992" fill="#8dd3c7" stroke="#ddd"><title>Morocco</title></circle><circle r="5" cx="43.50911628613022" cy="-68.39999999999999" fill="#8dd3c7" stroke="#ddd"><title>Tunisia</title></circle><circle r="5" cx="-102.53740780807753" cy="-37.44" fill="#8dd3c7" stroke="#ddd"><title>Sudan</title></circle><circle r="5" cx="76.21023553303063" cy="-91.68" fill="#8dd3c7" stroke="#ddd"><title>Botswana</title></circle><circle r="5" cx="106.69432974624286" cy="6.959999999999994" fill="#8dd3c7" stroke="#ddd"><title>Eswatini</title></circle><circle r="5" cx="81.198541858829" cy="-48.480000000000004" fill="#8dd3c7" stroke="#ddd"><title>Lesotho</title></circle><circle r="5" cx="53.20860080851594" cy="-84.47999999999998" fill="#8dd3c7" stroke="#ddd"><title>Namibia</title></circle><circle r="5" cx="74.5474667577645" cy="-84" fill="#8dd3c7" stroke="#ddd"><title>South Africa</title></circle><circle r="5" cx="-6.928203230275504" cy="-6.240000000000009" fill="#8dd3c7" stroke="#ddd"><title>Benin</title></circle><circle r="5" cx="-27.435684791891003" cy="18.720000000000013" fill="#8dd3c7" stroke="#ddd"><title>Burkina Faso</title></circle><circle r="5" cx="27.712812921102046" cy="-116.16000000000001" fill="#8dd3c7" stroke="#ddd"><title>Cabo Verde</title></circle><circle r="5" cx="-17.181944011083253" cy="-73.92000000000002" fill="#8dd3c7" stroke="#ddd"><title>Gambia, The</title></circle><circle r="5" cx="17.181944011083278" cy="-34.56" fill="#8dd3c7" stroke="#ddd"><title>Ghana</title></circle><circle r="5" cx="52.37721642088285" cy="37.91999999999997" fill="#8dd3c7" stroke="#ddd"><title>Guinea</title></circle><circle r="5" cx="-86.46397631383836" cy="33.60000000000001" fill="#8dd3c7" stroke="#ddd"><title>Guinea-Bissau</title></circle><circle r="5" cx="31.592606730056342" cy="-18.24000000000001" fill="#8dd3c7" stroke="#ddd"><title>Cote d'Ivoire</title></circle><circle r="5" cx="-70.94480107802121" cy="-16.319999999999993" fill="#8dd3c7" stroke="#ddd"><title>Liberia</title></circle><circle r="5" cx="-60.96818842642449" cy="47.03999999999998" fill="#8dd3c7" stroke="#ddd"><title>Mali</title></circle><circle r="5" cx="42.40060376928613" cy="49.44" fill="#8dd3c7" stroke="#ddd"><title>Mauritania</title></circle><circle r="5" cx="-64.84798223537875" cy="46.08" fill="#8dd3c7" stroke="#ddd"><title>Niger</title></circle><circle r="5" cx="-9.145228263963661" cy="-48.480000000000004" fill="#8dd3c7" stroke="#ddd"><title>Nigeria</title></circle><circle r="5" cx="20.507481561615524" cy="-42.24000000000001" fill="#8dd3c7" stroke="#ddd"><title>Senegal</title></circle><circle r="5" cx="-150.20344603237305" cy="82.32000000000001" fill="#8dd3c7" stroke="#ddd"><title>Sierra Leone</title></circle><circle r="5" cx="-18.013328398716308" cy="-1.4399999999999977" fill="#8dd3c7" stroke="#ddd"><title>Togo</title></circle><circle r="5" cx="52.377216420882874" cy="-126.24000000000001" fill="#ffffb3" stroke="#ddd"><title>Anguilla</title></circle><circle r="5" cx="49.605935128772664" cy="-132" fill="#ffffb3" stroke="#ddd"><title>Antigua and Barbuda</title></circle><circle r="5" cx="91.17515451042571" cy="-78.24000000000002" fill="#ffffb3" stroke="#ddd"><title>Aruba</title></circle><circle r="5" cx="14.96491897739512" cy="-192" fill="#ffffb3" stroke="#ddd"><title>Bahamas, The</title></circle><circle r="5" cx="9.42235639317471" cy="-210.24" fill="#ffffb3" stroke="#ddd"><title>Barbados</title></circle><circle r="5" cx="28.267069179524096" cy="-181.44" fill="#ffffb3" stroke="#ddd"><title>British Virgin Islands</title></circle><circle r="5" cx="19.953225303193484" cy="-200.4" fill="#ffffb3" stroke="#ddd"><title>Cayman Islands</title></circle><circle r="5" cx="48.774550741139606" cy="-117.12" fill="#ffffb3" stroke="#ddd"><title>Cuba</title></circle><circle r="5" cx="41.014963123231034" cy="-162.24" fill="#ffffb3" stroke="#ddd"><title>Curacao</title></circle><circle r="5" cx="-4.7111781965873405" cy="-101.27999999999999" fill="#ffffb3" stroke="#ddd"><title>Dominica</title></circle><circle r="5" cx="78.42726056671879" cy="-51.599999999999994" fill="#ffffb3" stroke="#ddd"><title>Dominican Republic</title></circle><circle r="5" cx="14.13353458976205" cy="-128.16000000000003" fill="#ffffb3" stroke="#ddd"><title>Grenada</title></circle><circle r="5" cx="-3.0484094213212063" cy="-35.040000000000006" fill="#ffffb3" stroke="#ddd"><title>Haiti</title></circle><circle r="5" cx="43.2319881569192" cy="-92.16000000000001" fill="#ffffb3" stroke="#ddd"><title>Jamaica</title></circle><circle r="5" cx="55.979882100626135" cy="-127.68" fill="#ffffb3" stroke="#ddd"><title>Montserrat</title></circle><circle r="5" cx="136.62416770103306" cy="4.319999999999993" fill="#ffffb3" stroke="#ddd"><title>Puerto Rico</title></circle><circle r="5" cx="80.0900293419849" cy="-90.72000000000001" fill="#ffffb3" stroke="#ddd"><title>Saint Kitts and Nevis</title></circle><circle r="5" cx="31.315478600845314" cy="-157.68" fill="#ffffb3" stroke="#ddd"><title>Saint Lucia</title></circle><circle r="5" cx="38.79793808954287" cy="-163.2" fill="#ffffb3" stroke="#ddd"><title>Saint Martin</title></circle><circle r="5" cx="28.544197308735118" cy="-122.39999999999999" fill="#ffffb3" stroke="#ddd"><title>Saint Vincent and the Grenadines</title></circle><circle r="5" cx="49.60593512877267" cy="-150.24" fill="#ffffb3" stroke="#ddd"><title>Sint Maarten</title></circle><circle r="5" cx="134.13001453813385" cy="-3.8400000000000034" fill="#ffffb3" stroke="#ddd"><title>Trinidad and Tobago</title></circle><circle r="5" cx="23.27876285372573" cy="-194.88" fill="#ffffb3" stroke="#ddd"><title>Turks and Caicos Islands</title></circle><circle r="5" cx="49.88306325798369" cy="-134.39999999999998" fill="#ffffb3" stroke="#ddd"><title>Virgin Islands</title></circle><circle r="5" cx="11.362253297651856" cy="-92.88" fill="#ffffb3" stroke="#ddd"><title>Belize</title></circle><circle r="5" cx="42.95486002770817" cy="-112.80000000000001" fill="#ffffb3" stroke="#ddd"><title>Costa Rica</title></circle><circle r="5" cx="38.79793808954288" cy="-71.28000000000002" fill="#ffffb3" stroke="#ddd"><title>El Salvador</title></circle><circle r="5" cx="28.821325437946133" cy="-63.360000000000014" fill="#ffffb3" stroke="#ddd"><title>Guatemala</title></circle><circle r="5" cx="40.46070686480898" cy="-37.44" fill="#ffffb3" stroke="#ddd"><title>Honduras</title></circle><circle r="5" cx="76.76449179145267" cy="-68.39999999999999" fill="#ffffb3" stroke="#ddd"><title>Mexico</title></circle><circle r="5" cx="24.664403499780814" cy="-26.159999999999997" fill="#ffffb3" stroke="#ddd"><title>Nicaragua</title></circle><circle r="5" cx="36.85804118506573" cy="-153.36" fill="#ffffb3" stroke="#ddd"><title>Panama</title></circle><circle r="5" cx="-16.073431494239163" cy="-114.96000000000002" fill="#ffffb3" stroke="#ddd"><title>Greenland</title></circle><circle r="5" cx="13.856406460551039" cy="-208.07999999999998" fill="#ffffb3" stroke="#ddd"><title>Bermuda</title></circle><circle r="5" cx="73.1618261117094" cy="-96.96" fill="#ffffb3" stroke="#ddd"><title>Canada</title></circle><circle r="5" cx="36.026656797432665" cy="-158.39999999999998" fill="#ffffb3" stroke="#ddd"><title>Saint Pierre and Miquelon</title></circle><circle r="5" cx="49.883063257983686" cy="-144.95999999999998" fill="#ffffb3" stroke="#ddd"><title>United States</title></circle><circle r="5" cx="47.94316635350654" cy="-52.31999999999999" fill="#ffffb3" stroke="#ddd"><title>Argentina</title></circle><circle r="5" cx="67.619263527489" cy="0.960000000000008" fill="#ffffb3" stroke="#ddd"><title>Bolivia</title></circle><circle r="5" cx="41.01496312323103" cy="-109.44" fill="#ffffb3" stroke="#ddd"><title>Brazil</title></circle><circle r="5" cx="74.82459488697552" cy="-68.39999999999999" fill="#ffffb3" stroke="#ddd"><title>Chile</title></circle><circle r="5" cx="66.2336228814339" cy="-54.480000000000004" fill="#ffffb3" stroke="#ddd"><title>Colombia</title></circle><circle r="5" cx="76.21023553303063" cy="-33.599999999999994" fill="#ffffb3" stroke="#ddd"><title>Ecuador</title></circle><circle r="5" cx="56.25701022983714" cy="25.439999999999998" fill="#ffffb3" stroke="#ddd"><title>Guyana</title></circle><circle r="5" cx="27.15855666268001" cy="-21.360000000000014" fill="#ffffb3" stroke="#ddd"><title>Paraguay</title></circle><circle r="5" cx="79.81290121277388" cy="-29.519999999999982" fill="#ffffb3" stroke="#ddd"><title>Peru</title></circle><circle r="5" cx="54.03998519614898" cy="-35.27999999999999" fill="#ffffb3" stroke="#ddd"><title>Suriname</title></circle><circle r="5" cx="52.10008829167185" cy="-90.24000000000001" fill="#ffffb3" stroke="#ddd"><title>Uruguay</title></circle><circle r="5" cx="93.66930767332491" cy="-35.51999999999998" fill="#ffffb3" stroke="#ddd"><title>Venezuela</title></circle><circle r="5" cx="82.02992624646204" cy="-51.83999999999999" fill="#bebada" stroke="#ddd"><title>Kazakhstan</title></circle><circle r="5" cx="50.43731951640573" cy="-15.360000000000014" fill="#bebada" stroke="#ddd"><title>Kyrgyzstan</title></circle><circle r="5" cx="-8.590972005541621" cy="19.680000000000007" fill="#bebada" stroke="#ddd"><title>Tajikistan</title></circle><circle r="5" cx="103.64592032492165" cy="11.280000000000001" fill="#bebada" stroke="#ddd"><title>Turkmenistan</title></circle><circle r="5" cx="44.063372544552244" cy="14.16000000000001" fill="#bebada" stroke="#ddd"><title>Uzbekistan</title></circle><circle r="5" cx="86.46397631383839" cy="-10.560000000000002" fill="#bebada" stroke="#ddd"><title>China</title></circle><circle r="5" cx="19.676097173982466" cy="-204.95999999999998" fill="#bebada" stroke="#ddd"><title>Hong Kong</title></circle><circle r="5" cx="79.53577308356286" cy="-92.63999999999999" fill="#bebada" stroke="#ddd"><title>Japan</title></circle><circle r="5" cx="43.23198815691919" cy="78.96000000000001" fill="#bebada" stroke="#ddd"><title>Korea, North</title></circle><circle r="5" cx="102.81453593728857" cy="-40.31999999999999" fill="#bebada" stroke="#ddd"><title>Korea, South</title></circle><circle r="5" cx="31.315478600845328" cy="-185.76" fill="#bebada" stroke="#ddd"><title>Macau</title></circle><circle r="5" cx="63.462341589323685" cy="-3.3600000000000136" fill="#bebada" stroke="#ddd"><title>Mongolia</title></circle><circle r="5" cx="94.77782019016898" cy="-58.31999999999999" fill="#bebada" stroke="#ddd"><title>Taiwan</title></circle><circle r="5" cx="153.2518554536943" cy="36.959999999999994" fill="#bebada" stroke="#ddd"><title>Brunei</title></circle><circle r="5" cx="20.78460969082652" cy="38.879999999999995" fill="#bebada" stroke="#ddd"><title>Cambodia</title></circle><circle r="5" cx="73.16182611170939" cy="19.919999999999987" fill="#bebada" stroke="#ddd"><title>Indonesia</title></circle><circle r="5" cx="34.08675989295551" cy="19.680000000000007" fill="#bebada" stroke="#ddd"><title>Laos</title></circle><circle r="5" cx="78.98151682514082" cy="-22.560000000000002" fill="#bebada" stroke="#ddd"><title>Malaysia</title></circle><circle r="5" cx="29.375581696368165" cy="48.719999999999985" fill="#bebada" stroke="#ddd"><title>Myanmar</title></circle><circle r="5" cx="58.196907134314316" cy="-47.04000000000002" fill="#bebada" stroke="#ddd"><title>Philippines</title></circle><circle r="5" cx="68.72777604433307" cy="-120.95999999999998" fill="#bebada" stroke="#ddd"><title>Singapore</title></circle><circle r="5" cx="77.59587617908574" cy="-26.88000000000001" fill="#bebada" stroke="#ddd"><title>Thailand</title></circle><circle r="5" cx="134.13001453813385" cy="82.56000000000002" fill="#bebada" stroke="#ddd"><title>Timor-Leste</title></circle><circle r="5" cx="49.883063257983665" cy="17.519999999999982" fill="#bebada" stroke="#ddd"><title>Vietnam</title></circle><circle r="5" cx="72.33044172407634" cy="-20.64" fill="#bebada" stroke="#ddd"><title>Iran</title></circle><circle r="5" cx="-5.265434455009373" cy="-28.319999999999993" fill="#bebada" stroke="#ddd"><title>Afghanistan</title></circle><circle r="5" cx="41.56921938165308" cy="-31.439999999999998" fill="#bebada" stroke="#ddd"><title>Bangladesh</title></circle><circle r="5" cx="74.54746675776452" cy="39.83999999999999" fill="#bebada" stroke="#ddd"><title>Bhutan</title></circle><circle r="5" cx="21.06173782003756" cy="-55.44" fill="#bebada" stroke="#ddd"><title>India</title></circle><circle r="5" cx="36.026656797432665" cy="-148.8" fill="#bebada" stroke="#ddd"><title>Maldives</title></circle><circle r="5" cx="-37.412297443487745" cy="-26.400000000000006" fill="#bebada" stroke="#ddd"><title>Nepal</title></circle><circle r="5" cx="-15.519175235817126" cy="-30" fill="#bebada" stroke="#ddd"><title>Pakistan</title></circle><circle r="5" cx="62.90808533090164" cy="-56.16000000000001" fill="#bebada" stroke="#ddd"><title>Sri Lanka</title></circle><circle r="5" cx="27.989941050313067" cy="-21.600000000000023" fill="#bebada" stroke="#ddd"><title>Armenia</title></circle><circle r="5" cx="118.88796743152777" cy="25.439999999999998" fill="#bebada" stroke="#ddd"><title>Azerbaijan</title></circle><circle r="5" cx="24.110147241358792" cy="-176.4" fill="#bebada" stroke="#ddd"><title>Cyprus</title></circle><circle r="5" cx="38.243681831120824" cy="-79.68" fill="#bebada" stroke="#ddd"><title>Georgia</title></circle><circle r="5" cx="69.55916043196612" cy="-54.96000000000002" fill="#bebada" stroke="#ddd"><title>Turkey</title></circle><circle r="5" cx="105.03156097097674" cy="-55.19999999999999" fill="#bebada" stroke="#ddd"><title>Bahrain</title></circle><circle r="5" cx="50.160191387194715" cy="-122.16" fill="#bebada" stroke="#ddd"><title>Gaza Strip</title></circle><circle r="5" cx="99.21187025754533" cy="-22.08" fill="#bebada" stroke="#ddd"><title>Iraq</title></circle><circle r="5" cx="67.34213539827797" cy="-97.44000000000001" fill="#bebada" stroke="#ddd"><title>Israel</title></circle><circle r="5" cx="68.17351978591103" cy="-80.63999999999999" fill="#bebada" stroke="#ddd"><title>Jordan</title></circle><circle r="5" cx="161.5656993300249" cy="43.68000000000001" fill="#bebada" stroke="#ddd"><title>Kuwait</title></circle><circle r="5" cx="42.40060376928613" cy="-111.83999999999999" fill="#bebada" stroke="#ddd"><title>Lebanon</title></circle><circle r="5" cx="120.55073620679391" cy="-14.64" fill="#bebada" stroke="#ddd"><title>Oman</title></circle><circle r="5" cx="138.8411927347212" cy="2.4000000000000057" fill="#bebada" stroke="#ddd"><title>Qatar</title></circle><circle r="5" cx="115.2853017517845" cy="-15.360000000000014" fill="#bebada" stroke="#ddd"><title>Saudi Arabia</title></circle><circle r="5" cx="-1.108512516844068" cy="-49.920000000000016" fill="#bebada" stroke="#ddd"><title>Syria</title></circle><circle r="5" cx="135.51565518418897" cy="3.5999999999999943" fill="#bebada" stroke="#ddd"><title>United Arab Emirates</title></circle><circle r="5" cx="50.160191387194715" cy="-122.16" fill="#bebada" stroke="#ddd"><title>West Bank</title></circle><circle r="5" cx="-27.158556662679988" cy="-55.68000000000001" fill="#bebada" stroke="#ddd"><title>Yemen</title></circle><circle r="5" cx="89.51238573515961" cy="-5.280000000000001" fill="#fb8072" stroke="#ddd"><title>Belarus</title></circle><circle r="5" cx="65.67936662301184" cy="-84.95999999999998" fill="#fb8072" stroke="#ddd"><title>Bulgaria</title></circle><circle r="5" cx="97.8262296114902" cy="-46.56" fill="#fb8072" stroke="#ddd"><title>Czechia</title></circle><circle r="5" cx="73.43895424092041" cy="-70.56" fill="#fb8072" stroke="#ddd"><title>Hungary</title></circle><circle r="5" cx="6.651075101064507" cy="-111.36000000000001" fill="#fb8072" stroke="#ddd"><title>Moldova</title></circle><circle r="5" cx="104.75443284176573" cy="-35.51999999999998" fill="#fb8072" stroke="#ddd"><title>Poland</title></circle><circle r="5" cx="80.36715747119592" cy="-60.480000000000004" fill="#fb8072" stroke="#ddd"><title>Romania</title></circle><circle r="5" cx="76.76449179145266" cy="-60.480000000000004" fill="#fb8072" stroke="#ddd"><title>Russia</title></circle><circle r="5" cx="86.46397631383839" cy="-53.75999999999999" fill="#fb8072" stroke="#ddd"><title>Slovakia</title></circle><circle r="5" cx="38.243681831120824" cy="-39.360000000000014" fill="#fb8072" stroke="#ddd"><title>Ukraine</title></circle><circle r="5" cx="62.63095720169062" cy="-120.95999999999998" fill="#fb8072" stroke="#ddd"><title>Denmark</title></circle><circle r="5" cx="67.61926352748898" cy="-90.24000000000001" fill="#fb8072" stroke="#ddd"><title>Estonia</title></circle><circle r="5" cx="58.196907134314294" cy="33.60000000000001" fill="#fb8072" stroke="#ddd"><title>Faroe Islands</title></circle><circle r="5" cx="69.55916043196612" cy="-93.60000000000001" fill="#fb8072" stroke="#ddd"><title>Finland</title></circle><circle r="5" cx="19.398969044771448" cy="-177.60000000000002" fill="#fb8072" stroke="#ddd"><title>Guernsey</title></circle><circle r="5" cx="38.79793808954287" cy="-117.12" fill="#fb8072" stroke="#ddd"><title>Iceland</title></circle><circle r="5" cx="103.0916640664996" cy="-51.599999999999994" fill="#fb8072" stroke="#ddd"><title>Ireland</title></circle><circle r="5" cx="33.25537550532246" cy="-172.8" fill="#fb8072" stroke="#ddd"><title>Isle of Man</title></circle><circle r="5" cx="1.8810574834903348e-14" cy="-220.8" fill="#fb8072" stroke="#ddd"><title>Jersey</title></circle><circle r="5" cx="50.99157577482777" cy="-120.95999999999998" fill="#fb8072" stroke="#ddd"><title>Latvia</title></circle><circle r="5" cx="69.83628856117716" cy="-87.59999999999998" fill="#fb8072" stroke="#ddd"><title>Lithuania</title></circle><circle r="5" cx="79.53577308356286" cy="-79.19999999999999" fill="#fb8072" stroke="#ddd"><title>Norway</title></circle><circle r="5" cx="87.0182325722604" cy="-73.92" fill="#fb8072" stroke="#ddd"><title>Sweden</title></circle><circle r="5" cx="50.991575774827766" cy="-145.92000000000002" fill="#fb8072" stroke="#ddd"><title>United Kingdom</title></circle><circle r="5" cx="3.3255375505322426" cy="-17.519999999999996" fill="#fb8072" stroke="#ddd"><title>Albania</title></circle><circle r="5" cx="60.13680403879145" cy="-21.60000000000001" fill="#fb8072" stroke="#ddd"><title>Andorra</title></circle><circle r="5" cx="52.65434455009388" cy="-73.92000000000002" fill="#fb8072" stroke="#ddd"><title>Bosnia and Herzegovina</title></circle><circle r="5" cx="85.90972005541633" cy="-60.72000000000001" fill="#fb8072" stroke="#ddd"><title>Croatia</title></circle><circle r="5" cx="33.25537550532246" cy="-144" fill="#fb8072" stroke="#ddd"><title>Greece</title></circle><circle r="5" cx="60.69106029721348" cy="-114.72000000000001" fill="#fb8072" stroke="#ddd"><title>Italy</title></circle><circle r="5" cx="16.073431494239195" cy="-97.92000000000002" fill="#fb8072" stroke="#ddd"><title>Kosovo</title></circle><circle r="5" cx="55.425625842204084" cy="-48" fill="#fb8072" stroke="#ddd"><title>Macedonia</title></circle><circle r="5" cx="23.278762853725723" cy="-127.68" fill="#fb8072" stroke="#ddd"><title>Montenegro</title></circle><circle r="5" cx="55.14849771299308" cy="-123.36000000000001" fill="#fb8072" stroke="#ddd"><title>Portugal</title></circle><circle r="5" cx="108.357098521509" cy="-51.360000000000014" fill="#fb8072" stroke="#ddd"><title>San Marino</title></circle><circle r="5" cx="86.74110444304941" cy="4.319999999999993" fill="#fb8072" stroke="#ddd"><title>Serbia</title></circle><circle r="5" cx="84.24695128015023" cy="-76.56" fill="#fb8072" stroke="#ddd"><title>Slovenia</title></circle><circle r="5" cx="57.08839461747022" cy="-116.16000000000001" fill="#fb8072" stroke="#ddd"><title>Spain</title></circle><circle r="5" cx="25.772916016624915" cy="-182.88" fill="#fb8072" stroke="#ddd"><title>Malta</title></circle><circle r="5" cx="75.37885114539755" cy="-97.92000000000002" fill="#fb8072" stroke="#ddd"><title>Austria</title></circle><circle r="5" cx="58.474035263525316" cy="-132" fill="#fb8072" stroke="#ddd"><title>Belgium</title></circle><circle r="5" cx="50.160191387194715" cy="-133.92000000000002" fill="#fb8072" stroke="#ddd"><title>France</title></circle><circle r="5" cx="81.75279811725105" cy="-92.64" fill="#fb8072" stroke="#ddd"><title>Germany</title></circle><circle r="5" cx="1.9594348786357652e-14" cy="-240" fill="#fb8072" stroke="#ddd"><title>Gibraltar</title></circle><circle r="5" cx="94.22356393174694" cy="-9.599999999999994" fill="#fb8072" stroke="#ddd"><title>Liechtenstein</title></circle><circle r="5" cx="32.4239911176894" cy="-181.92000000000002" fill="#fb8072" stroke="#ddd"><title>Luxembourg</title></circle><circle r="5" cx="38.79793808954287" cy="-172.8" fill="#fb8072" stroke="#ddd"><title>Monaco</title></circle><circle r="5" cx="45.17188506139633" cy="-121.67999999999999" fill="#fb8072" stroke="#ddd"><title>Netherlands</title></circle><circle r="5" cx="69.0049041735441" cy="-113.75999999999999" fill="#fb8072" stroke="#ddd"><title>Switzerland</title></circle><circle r="5" cx="62.3538290724796" cy="-97.44" fill="#80b1d3" stroke="#ddd"><title>Australia</title></circle><circle r="5" cx="61.79957281405756" cy="-95.51999999999998" fill="#80b1d3" stroke="#ddd"><title>New Zealand</title></circle><circle r="5" cx="20.230353432404495" cy="-103.19999999999999" fill="#80b1d3" stroke="#ddd"><title>Fiji</title></circle><circle r="5" cx="69.55916043196612" cy="-105.84" fill="#80b1d3" stroke="#ddd"><title>New Caledonia</title></circle><circle r="5" cx="57.64265087589224" cy="72" fill="#80b1d3" stroke="#ddd"><title>Papua New Guinea</title></circle><circle r="5" cx="-73.99321049934242" cy="-38.88000000000001" fill="#80b1d3" stroke="#ddd"><title>Solomon Islands</title></circle><circle r="5" cx="-52.377216420882846" cy="-95.76" fill="#80b1d3" stroke="#ddd"><title>Tuvalu</title></circle><circle r="5" cx="-49.605935128772636" cy="-66.72000000000001" fill="#80b1d3" stroke="#ddd"><title>Vanuatu</title></circle><circle r="5" cx="-44.34050067376325" cy="-96" fill="#80b1d3" stroke="#ddd"><title>Kiribati</title></circle><circle r="5" cx="15.242047106606138" cy="-171.36" fill="#80b1d3" stroke="#ddd"><title>Marshall Islands</title></circle><circle r="5" cx="-20.507481561615503" cy="-23.04000000000002" fill="#80b1d3" stroke="#ddd"><title>Micronesia, Federated States of</title></circle><circle r="5" cx="74.5474667577645" cy="-52.079999999999984" fill="#80b1d3" stroke="#ddd"><title>Nauru</title></circle><circle r="5" cx="156.3002648750155" cy="47.040000000000006" fill="#80b1d3" stroke="#ddd"><title>Northern Mariana Islands</title></circle><circle r="5" cx="44.34050067376327" cy="-134.39999999999998" fill="#80b1d3" stroke="#ddd"><title>Palau</title></circle><circle r="5" cx="-41.56921938165305" cy="-48.95999999999998" fill="#80b1d3" stroke="#ddd"><title>American Samoa</title></circle><circle r="5" cx="21.061737820037564" cy="-154.32" fill="#80b1d3" stroke="#ddd"><title>Cook Islands</title></circle><circle r="5" cx="29.098453567157158" cy="-165.60000000000002" fill="#80b1d3" stroke="#ddd"><title>French Polynesia</title></circle><circle r="5" cx="9.422356393174704" cy="2.160000000000011" fill="#80b1d3" stroke="#ddd"><title>Niue</title></circle><circle r="5" cx="36.5809130558547" cy="-76.80000000000001" fill="#80b1d3" stroke="#ddd"><title>Samoa</title></circle><circle r="5" cx="3.6026656797432794" cy="-46.80000000000001" fill="#80b1d3" stroke="#ddd"><title>Tonga</title></circle></g></svg>