<?xml version="1.0" encoding="UTF-8"?>
<svg id="Drone" xmlns="http://www.w3.org/2000/svg" version="1.1" viewBox="0 0 200 200">
  <!-- Generator: Adobe Illustrator 29.2.0, SVG Export Plug-In . SVG Version: 2.1.0 Build 38)  -->
  <defs>
    <style>
      .st0 {
        fill: black;
      }

      .st1 {
        fill: #d2d3d4;
      }

      .st2 {
        fill: #ef4237;
      }

      .st3 {
        fill: #fcc0c0;
      }

      .st4 {
        fill: #bdbec0;
      }
      
      .st5 {
        fill: #febc12;
      }

      .st6 {
        fill: #fdc0c0;
      }

      .st7 {
        fill: #ef4237;
      }
    </style>
    <filter id="dropShadow" x="-50%" y="-50%" width="200%" height="200%">
      <feDropShadow dx="0" dy="0" stdDeviation="5" flood-color="black" flood-opacity="1"/>
    </filter>
  </defs>
  <path id="shadow" filter="url(#dropShadow)" d="M140.1487,119.1c-2.563,0-5.0111.4843-7.2847,1.3307-.4375-1.4243-.6819-2.8441-.6096-4.171,5.0757-10.1127,5.1138-22.1416.1161-32.2838-.1192-1.2883.0599-2.6634.4376-4.0488,2.3113.8739,4.8116,1.3729,7.4406,1.3729,11.5,0,20.9-9.3,20.9-20.9,0-11.5-9.3-20.9-20.9-20.9-11.5,0-20.9,9.3-20.9,20.9,0,2.4138.4229,4.7182,1.1652,6.8698-1.3502.4177-2.6996.6573-3.9761.6129-10.3718-5.3188-22.8144-5.304-33.1732.0482-1.1816.0184-2.4239-.2-3.6713-.5759.7675-2.1758,1.2068-4.509,1.2068-6.955,0-11.6-9.3-20.9-20.9-20.9-11.5,0-20.9,9.3-20.9,20.9,0,11.5,9.3,20.9,20.9,20.9,2.6151,0,5.1115-.5018,7.4236-1.3813.3354,1.1718.5245,2.3354.5073,3.4459-5.3841,10.4206-5.3707,22.9515.0439,33.36-.0033,1.195-.2515,2.4548-.6611,3.7203-2.2901-.8556-4.7636-1.3448-7.3636-1.3448-11.5,0-20.9,9.3-20.9,20.9,0,11.5,9.3,20.9,20.9,20.9,11.5,0,20.9-9.3,20.9-20.9,0-2.678-.515-5.2239-1.4202-7.5706,1.1062-.3755,2.2098-.6301,3.2733-.7164,10.7495,5.843,23.8777,5.8374,34.6229-.0162,1.0911.0843,2.2216.3507,3.3506.7451-.9092,2.3433-1.428,4.8848-1.428,7.5582,0,11.6,9.3,20.9,20.9,20.9,11.5,0,20.9-9.3,20.9-20.9,0-11.5-9.3-20.9-20.9-20.9ZM140.0486,121.4101v11.1088l-.4861-.5064s-3.7586-4.4416-5.89-9.4011c1.9861-.7483,4.1287-1.1776,6.3761-1.2014ZM139.5,68l.6487-.6487v11.6437c-2.3309-.0123-4.5505-.4626-6.6005-1.2518,2.0474-5.1086,5.9518-9.7432,5.9518-9.7432ZM140.3487,78.995v-11.8437l.3861-.3861c3.316-.3295,5.9478-3.025,6.1898-6.3652h11.9241c0,10.2662-8.2469,18.5408-18.5,18.595ZM158.8386,60.2h-11.9039c.0043-.1002.0153-.1987.0153-.3,0-3.6992-2.94-6.7264-6.6013-6.8848v-11.2102c10.1857.0538,18.3824,8.2225,18.4899,18.395ZM140.1487,41.8051v11.2c-.0332-.0005-.0654-.005-.0987-.005-3.6044,0-6.5739,2.7904-6.8705,6.3205l-.8795.8795h-10.6412c.1085-10.0753,8.3048-18.3405,18.4899-18.395ZM121.6487,60.4h10.4513l-.1.1s-4.3862,3.8138-9.3274,5.9623c-.6526-1.9012-1.0239-3.9349-1.0239-6.0623ZM68.0083,60.5h10.5867c-.0112,2.1296-.3915,4.1647-1.0565,6.0652-4.7327-2.0263-9.0135-5.6231-9.5302-6.0652ZM78.595,60.3h-10.795l-.9795-.9795c-.2924-3.4805-3.1846-6.2361-6.7205-6.3129v-11.2026c10.2194.054,18.441,8.2755,18.495,18.495ZM59.9,41.805v11.1976c-3.7769.0273-6.85,3.1143-6.85,6.8975,0,.135.0126.2668.0203.4h-11.6653c.054-10.2195,8.2756-18.441,18.495-18.495ZM41.405,60.5h11.6755c.2867,3.2943,2.9016,5.939,6.1847,6.2652l.6348.6348v11.595c-10.2194-.054-18.441-8.2756-18.495-18.495ZM60.1,78.995v-11.395l.35.35s4.0719,4.6728,6.2104,9.8079c-2.0391.7795-4.2446,1.2249-6.5604,1.2371ZM60.3,132.05l-.25.25v-10.895c2.2663.012,4.426.4408,6.4288,1.1891-2.2356,4.98-6.1788,9.4559-6.1788,9.4559ZM59.85,121.405v11.095l-.7597.7597c-3.3634.4222-5.985,3.2773-6.0352,6.7403h-11.7051c0-10.2662,8.2469-18.5408,18.5-18.595ZM41.36,140.2h11.695c.0539,3.7202,3.0748,6.741,6.7949,6.7949v11.6c-10.1857-.0538-18.3824-8.2225-18.4899-18.395ZM60.05,158.5949v-11.6c3.6119-.0523,6.5604-2.9026,6.7786-6.4735l.3214-.3214h11.3899c-.1085,10.0752-8.3048,18.3405-18.4899,18.3949ZM78.55,140h-11.2l.45-.45s4.4781-3.9556,9.4899-6.2596c.8028,2.0822,1.2601,4.3386,1.2601,6.7097ZM131.9625,139.5125l.468.4875h-10.7819c0-2.3454.4489-4.5779,1.2353-6.6415,4.839,2.3077,9.0786,6.1541,9.0786,6.1541ZM121.6588,140.2h10.9637l.5624.5858c.3463,3.4797,3.2958,6.2134,6.8638,6.2141v11.59c-10.1387-.1071-18.2828-8.2512-18.3899-18.3899ZM140.2487,158.6v-11.61c3.6744-.1058,6.6429-3.103,6.6963-6.7899h11.8937c-.1078,10.2061-8.3575,18.4-18.59,18.4ZM146.9449,140c-.051-3.523-2.7618-6.4221-6.209-6.7651l-.4873-.5076v-11.3272c10.3,0,18.6,8.3,18.6,18.6h-11.9037Z"/>
  <g id="body">
    <path id="base" class="st4" d="M140.736,133.2349l-1.1735-1.2224s-7.6727-9.0623-7.3082-15.7528c5.0757-10.1127,5.1138-22.1416.1161-32.2838-.6259-6.7651,7.1296-15.9759,7.1296-15.9759l1.2348-1.2348c3.4805-.3458,6.2152-3.2963,6.2152-6.8652,0-3.8-3.1-6.9-6.9-6.9-3.6044,0-6.5739,2.7904-6.8705,6.3205l-1.1795,1.1795s-8.7543,7.6163-15.4623,7.3826c-10.3718-5.3188-22.8144-5.304-33.1732.0482-6.7054.1044-15.4145-7.4808-15.4145-7.4808l-1.1295-1.1295c-.2966-3.5301-3.2661-6.3205-6.8705-6.3205-3.8,0-6.9,3.1-6.9,6.9,0,3.5688,2.7347,6.5193,6.2152,6.8652l1.1848,1.1848s7.5852,8.709,7.4808,15.4145c-5.3841,10.4206-5.3707,22.9515.0439,33.36-.0183,6.6368-7.6747,15.3254-7.6747,15.3254l-1.2097,1.2097c-3.3961.4263-6.0403,3.332-6.0403,6.8403,0,3.8,3.1,6.9,6.9,6.9,3.6578,0,6.6584-2.8745,6.8785-6.4786l.9714-.9714s8.2626-7.2981,14.9031-7.837c10.7495,5.843,23.8777,5.8374,34.6229-.0162,6.5782.5084,14.6365,7.8157,14.6365,7.8157l1.2224,1.2733c.3463,3.4801,3.2966,6.2142,6.8651,6.2142,3.8,0,6.9-3.1,6.9-6.9,0-3.5685-2.734-6.5187-6.2141-6.8651Z"/>
    <g id="body1" data-name="body">
      <path id="motor" class="st1" d="M119.7,119.7c-10.9,10.9-28.6,10.9-39.4,0-10.9-10.9-10.9-28.6,0-39.4,10.9-10.9,28.6-10.9,39.4,0,10.9,10.9,10.9,28.6,0,39.4Z"/>
      <path id="center" class="st2" d="M116.5,116.5c-9.1,9.1-23.8,9.1-32.9,0s-9.1-23.8,0-32.9,23.8-9.1,32.9,0c9.1,9.1,9.1,23.8,0,32.9Z"/>
      <path id="highlight" class="st3" d="M83.3,101.9c-1,0-1.9-.8-1.9-1.9,0-5,1.8-9.7,5.4-13.3,7.2-7.2,18.8-7.2,26,0,.8.8.8,2,0,2.7-.8.8-2,.8-2.7,0-5.7-5.7-14.9-5.7-20.6,0-2.8,2.8-4.3,6.5-4.3,10.5,0,1.1-.8,1.9-1.9,2h0Z"/>
    </g>
  </g>
  <g id="guards">
    <path id="guard-tprt" class="st0" d="M140.2487,81.3c11.5,0,20.9-9.3,20.9-20.9,0-11.5-9.3-20.9-20.9-20.9-11.5,0-20.9,9.3-20.9,20.9s9.3,20.9,20.9,20.9ZM140.3487,78.995v-18.595h18.5c0,10.2662-8.2469,18.5408-18.5,18.595ZM158.8386,60.2h-18.4899v-18.395c10.1857.0538,18.3824,8.2225,18.4899,18.395ZM140.1487,41.8051v18.395h-18.4899c.1085-10.0753,8.3048-18.3405,18.4899-18.395ZM140.1487,60.4v18.595c-10.2531-.0542-18.5-8.3287-18.5-18.595h18.5Z"/>
    <path id="guard-btrt" class="st0" d="M140.1487,119.1c-11.5,0-20.9,9.3-20.9,20.9s9.3,20.9,20.9,20.9c11.5,0,20.9-9.3,20.9-20.9,0-11.5-9.3-20.9-20.9-20.9ZM140.0486,121.4101v18.5899h-18.4c0-10.2324,8.1938-18.4821,18.4-18.5899ZM121.6588,140.2h18.3899v18.3899c-10.1387-.1071-18.2828-8.2512-18.3899-18.3899ZM140.2487,158.6v-18.4h18.59c-.1078,10.2061-8.3575,18.4-18.59,18.4ZM140.2487,140v-18.6c10.3,0,18.6,8.3,18.6,18.6h-18.6Z"/>
    <path id="guard-btlft" class="st0" d="M59.95,119.1c-11.5,0-20.9,9.3-20.9,20.9,0,11.5,9.3,20.9,20.9,20.9,11.5,0,20.9-9.3,20.9-20.9s-9.3-20.9-20.9-20.9ZM59.85,121.405v18.595h-18.5c0-10.2662,8.2469-18.5408,18.5-18.595ZM41.36,140.2h18.4899v18.395c-10.1857-.0538-18.3824-8.2225-18.4899-18.395ZM60.05,158.5949v-18.3949h18.4899c-.1085,10.0752-8.3048,18.3405-18.4899,18.3949ZM60.05,140v-18.595c10.2531.0542,18.5,8.3287,18.5,18.595h-18.5Z"/>
    <path id="guard-tplft" class="st0" d="M60,39.5c-11.5,0-20.9,9.3-20.9,20.9,0,11.5,9.3,20.9,20.9,20.9,11.5,0,20.9-9.3,20.9-20.9s-9.3-20.9-20.9-20.9ZM78.595,60.3h-18.495v-18.495c10.2194.054,18.441,8.2755,18.495,18.495ZM59.9,41.805v18.495h-18.495c.054-10.2195,8.2756-18.441,18.495-18.495ZM41.405,60.5h18.495v18.495c-10.2194-.054-18.441-8.2756-18.495-18.495ZM60.1,78.995v-18.495h18.495c-.054,10.2194-8.2756,18.441-18.495,18.495Z"/>
  </g>
  <g id="blade-base">
    <path id="blade-base-tprt" class="st1" d="M140.05,53c-3.8,0-6.9,3.1-6.9,6.9s3.1,6.9,6.9,6.9,6.9-3.1,6.9-6.9-3.1-6.9-6.9-6.9Z"/>
    <path id="blade-base-btrt" class="st1" d="M140.05,147c-3.8,0-6.9-3.1-6.9-6.9s3.1-6.9,6.9-6.9,6.9,3.1,6.9,6.9-3.1,6.9-6.9,6.9Z"/>
    <path id="blade-base-btlft" class="st1" d="M59.95,147c3.8,0,6.9-3.1,6.9-6.9s-3.1-6.9-6.9-6.9-6.9,3.1-6.9,6.9,3.1,6.9,6.9,6.9Z"/>
    <path id="blade-base-tplft" class="st1" d="M59.95,53c3.8,0,6.9,3.1,6.9,6.9s-3.1,6.9-6.9,6.9-6.9-3.1-6.9-6.9,3.1-6.9,6.9-6.9Z"/>
  </g>
    <g id="prop-tprt">
    <path class="st5" d="M138.3,54.6c.7.7,1.2,1.3,1.6,1.8.4-.6,1-1.2,1.7-1.9,3.4-3.4,8.9-7.2,10-6.2,1.1,1.1-2.7,6.5-6.2,10-.7.7-1.3,1.2-1.8,1.6.6.4,1.2,1,1.9,1.7,3.4,3.4,7.2,8.9,6.2,10-1.1,1.1-6.5-2.7-10-6.2s-1.2-1.3-1.6-1.8c-.4.6-1,1.2-1.7,1.9-3.4,3.4-8.9,7.2-10,6.2-1.1-1.1,2.7-6.5,6.1-10,.7-.7,1.3-1.2,1.8-1.6-.6-.4-1.2-1-1.9-1.7-3.4-3.4-7.2-8.9-6.2-10,1.1-1.1,6.5,2.7,10,6.2h0Z"/>
    <animateTransform attributeType="XML" attributeName="transform" type="rotate" from="0 140 60" to="360 140 60" dur="0.8s" repeatCount="indefinite"/>
  </g>
  <g id="prop-tplft">
    <path class="st5" d="M61.7,54.6c-.7.7-1.2,1.3-1.6,1.8-.4-.6-1-1.2-1.7-1.9-3.4-3.4-8.9-7.2-10-6.2-1.1,1.1,2.7,6.5,6.2,10s1.3,1.2,1.8,1.6c-.6.4-1.2,1-1.9,1.7-3.4,3.4-7.2,8.9-6.2,10,1.1,1.1,6.5-2.7,10-6.2.7-.7,1.2-1.3,1.6-1.8.4.6,1,1.2,1.7,1.9,3.4,3.4,8.9,7.2,10,6.2,1.1-1.1-2.7-6.5-6.1-10-.7-.7-1.3-1.2-1.8-1.6.6-.4,1.2-1,1.9-1.7,3.4-3.4,7.2-8.9,6.2-10-1.1-1.1-6.5,2.7-10,6.2h0Z"/>
    <animateTransform attributeType="XML" attributeName="transform" type="rotate" from="360 60 60" to="0 60 60" dur="0.8s" repeatCount="indefinite"/>
  </g>
  <g id="prop-btlft">
    <path class="st5" d="M61.7,145.4c-.7-.7-1.2-1.3-1.6-1.8-.4.6-1,1.2-1.7,1.9-3.4,3.4-8.9,7.2-10,6.2-1.1-1.1,2.7-6.5,6.2-10,.7-.7,1.3-1.2,1.8-1.6-.6-.4-1.2-1-1.9-1.7-3.4-3.4-7.2-8.9-6.2-10,1.1-1.1,6.5,2.7,10,6.2.7.7,1.2,1.3,1.6,1.8.4-.6,1-1.2,1.7-1.9,3.4-3.4,8.9-7.2,10-6.2,1.1,1.1-2.7,6.5-6.1,10-.7.7-1.3,1.2-1.8,1.6.6.4,1.2,1,1.9,1.7,3.4,3.4,7.2,8.9,6.2,10-1.1,1.1-6.5-2.7-10-6.2h0Z"/>
    <animateTransform attributeType="XML" attributeName="transform" type="rotate" from="0 60 140" to="360 60 140" dur="0.8s" repeatCount="indefinite"/>
  </g>
  <g id="prop-btrt">
    <path class="st5" d="M138.3,145.4c.7-.7,1.2-1.3,1.6-1.8.4.6,1,1.2,1.7,1.9,3.4,3.4,8.9,7.2,10,6.2,1.1-1.1-2.7-6.5-6.2-10s-1.3-1.2-1.8-1.6c.6-.4,1.2-1,1.9-1.7,3.4-3.4,7.2-8.9,6.2-10-1.1-1.1-6.5,2.7-10,6.2s-1.2,1.3-1.6,1.8c-.4-.6-1-1.2-1.7-1.9-3.4-3.4-8.9-7.2-10-6.2-1.1,1.1,2.7,6.5,6.1,10,.7.7,1.3,1.2,1.8,1.6-.6.4-1.2,1-1.9,1.7-3.4,3.4-7.2,8.9-6.2,10,1.1,1.1,6.5-2.7,10-6.2h0Z"/>
    <animateTransform attributeType="XML" attributeName="transform" type="rotate" from="360 140 140" to="0 140 140" dur="0.8s" repeatCount="indefinite"/>
  </g>
  <g id="prop-pins">
    <g id="pin-tprt">
      <path class="st7" d="M140,55.9c-2.2,0-4,1.8-4,4s1.8,4,4,4,4-1.8,4-4-1.8-4-4-4Z"/>
      <path class="st6" d="M137.5,60.2c-.2,0-.3,0-.3-.3,0-.8.3-1.6.9-2.2,1.2-1.2,3.1-1.2,4.3,0,.1,0,.1.3,0,.4-.1,0-.3,0-.4,0-.9-.9-2.5-.9-3.4,0-.5.5-.7,1.1-.7,1.7s-.1.3-.3.3h-.1Z"/>
    </g>
    <g id="pin-tplft">
      <path class="st7" d="M60,55.9c2.2,0,4,1.8,4,4s-1.8,4-4,4-4-1.8-4-4,1.8-4,4-4Z"/>
      <path class="st6" d="M57.3,60.2c-.2,0-.3,0-.3-.3,0-.8.3-1.6.9-2.2,1.2-1.2,3.1-1.2,4.3,0s0,.3,0,.4c0,0-.3,0-.4,0-.9-.9-2.5-.9-3.4,0s-.7,1.1-.7,1.7,0,.3-.3.3h0Z"/>
    </g>
    <g id="pin-btlft">
      <path class="st7" d="M60,144.1c2.2,0,4-1.8,4-4s-1.8-4-4-4-4,1.8-4,4,1.8,4,4,4Z"/>
      <path class="st6" d="M57.3,140.1c-.2,0-.3-.1-.3-.3,0-.8.3-1.6.9-2.2,1.2-1.2,3.1-1.2,4.3,0,0,.1,0,.3,0,.4,0,.1-.3.1-.4,0-.9-.9-2.5-.9-3.4,0-.5.5-.7,1.1-.7,1.7s0,.3-.3.3h0Z"/>
    </g>
    <g id="pin-btrt">
      <path class="st7" d="M140.2,136c2.2,0,4,1.8,4,4s-1.8,4-4,4-4-1.8-4-4,1.8-4,4-4Z"/>
      <path class="st6" d="M137.4,140.3c-.2,0-.3-.1-.3-.3,0-.8.3-1.6.9-2.2,1.2-1.2,3.1-1.2,4.3,0s.1.3,0,.4c-.1.1-.3.1-.4,0-.9-.9-2.5-.9-3.4,0s-.7,1.1-.7,1.7-.1.3-.3.3h-.1Z"/>
    </g>
</g>
</svg>